<?xml version="1.0" standalone="no"?>
<!DOCTYPE svg PUBLIC "-//W3C//DTD SVG 20010904//EN"
 "http://www.w3.org/TR/2001/REC-SVG-20010904/DTD/svg10.dtd">
<svg version="1.0" xmlns="http://www.w3.org/2000/svg"
 width="1792.000000pt" height="1024.000000pt" viewBox="0 0 1792.000000 1024.000000"
 preserveAspectRatio="xMidYMid meet">

<g transform="translate(0.000000,1024.000000) scale(0.100000,-0.100000)"
fill="#000000" stroke="none">
<path d="M14320 9940 c-989 -207 -4221 -859 -4980 -1005 -217 -42 -665 -129
-995 -195 -330 -65 -742 -147 -915 -180 -340 -67 -1385 -276 -1670 -335 -96
-20 -584 -119 -1085 -220 -1146 -232 -2172 -440 -2930 -595 -324 -66 -728
-148 -897 -182 -168 -33 -311 -64 -318 -68 -8 -5 9 -68 59 -221 38 -118 138
-423 221 -679 83 -256 214 -654 290 -885 122 -371 387 -1189 600 -1855 89
-281 231 -719 320 -995 38 -115 111 -345 164 -510 366 -1150 527 -1649 536
-1658 4 -5 63 7 131 27 68 19 194 53 279 76 85 23 205 55 265 72 126 34 773
210 855 233 30 8 87 24 125 34 39 11 196 54 350 95 401 107 563 151 980 266
204 56 602 164 885 241 283 77 659 180 835 229 368 102 552 152 1045 285 195
53 459 125 585 160 224 62 914 254 1285 356 190 53 444 123 980 273 330 92
632 174 970 266 118 32 397 109 620 170 223 62 434 120 470 130 36 10 162 45
282 79 119 33 240 67 270 75 217 59 331 90 778 214 278 78 588 163 690 191
218 58 1219 333 1535 421 336 93 385 109 385 125 0 14 -252 554 -559 1197
-142 298 -195 409 -378 788 -104 215 -522 1085 -653 1360 -56 118 -197 413
-312 655 -116 242 -296 618 -401 835 -104 217 -232 483 -282 590 -80 170 -95
195 -116 197 -13 0 -148 -25 -299 -57z m-767 -679 c102 -27 211 -81 289 -145
75 -62 110 -107 145 -182 33 -73 31 -181 -5 -232 -95 -132 -393 -148 -587 -31
-124 74 -253 249 -271 365 -27 185 174 290 429 225z m-773 -203 c36 -44 39
-53 25 -60 -12 -7 -25 0 -53 33 l-38 42 -109 -22 c-61 -13 -166 -36 -233 -52
-68 -17 -125 -29 -127 -27 -2 2 -5 12 -7 22 -3 17 18 23 192 62 248 55 229 51
272 53 34 1 42 -4 78 -51z m-571 -233 c44 -96 81 -177 81 -179 0 -6 -96 -26
-124 -26 -19 0 -31 18 -76 111 -29 61 -53 117 -53 125 0 8 -4 14 -9 14 -5 0
-6 5 -3 10 3 6 1 10 -5 10 -6 0 -8 5 -5 10 3 6 2 10 -3 10 -11 0 -35 51 -27
58 4 4 87 23 136 31 3 1 43 -78 88 -174z m724 126 c23 -11 57 -35 75 -54 36
-37 95 -151 84 -162 -4 -4 -2 -5 3 -4 16 5 135 -60 135 -74 0 -7 -3 -8 -8 -2
-4 6 -16 11 -27 13 -11 2 -46 15 -78 29 -53 24 -61 32 -88 85 -25 50 -28 62
-17 76 10 13 10 14 0 8 -8 -5 -20 1 -33 17 -35 45 -115 43 -166 -5 -30 -28
-30 -70 3 -134 23 -45 24 -55 15 -90 -6 -22 -16 -47 -23 -57 -10 -12 -91 -33
-308 -76 -162 -33 -388 -79 -502 -102 -202 -42 -207 -43 -227 -25 -21 19 -28
60 -12 70 8 5 866 178 951 191 88 14 97 33 55 113 -42 79 -27 137 49 183 39
24 66 24 119 0z m-1016 -3 c4 -7 42 -87 84 -178 49 -107 72 -167 65 -171 -6
-3 -25 -9 -42 -12 l-31 -6 -82 171 c-45 94 -83 175 -84 181 -4 21 77 34 90 15z
m-137 -89 c59 -116 110 -241 104 -251 -4 -6 -2 -8 3 -5 6 4 13 -2 16 -13 3
-11 0 -18 -6 -17 -24 5 -47 33 -53 64 -3 18 -10 31 -14 28 -11 -7 -22 24 -13
37 3 6 2 8 -3 5 -13 -8 -68 119 -58 134 4 7 3 9 -3 6 -13 -8 -36 41 -27 55 4
7 2 8 -4 4 -7 -4 -12 -2 -12 3 0 6 9 11 20 11 14 0 28 -17 50 -61z m779 26
c54 -27 78 -118 42 -154 -22 -22 -80 -36 -113 -27 -24 6 -170 128 -176 146 -2
5 7 10 20 10 13 0 52 9 88 19 80 24 103 25 139 6z m-1069 -240 c0 -11 12 -51
26 -90 14 -38 26 -78 26 -87 -1 -10 4 -18 9 -18 6 0 7 -5 3 -11 -4 -8 -9 -7
-15 2 -5 8 -9 10 -9 6 0 -14 -80 84 -80 98 0 8 -13 29 -30 48 -40 46 -51 81
-44 137 l6 48 54 -56 c29 -31 54 -66 54 -77z m-452 -37 c29 -61 50 -113 48
-116 -3 -2 -25 40 -51 94 -25 54 -53 106 -62 116 -13 14 -13 18 -2 18 8 -1 37
-49 67 -112z m-480 53 c11 -6 7 -13 -15 -29 -33 -23 -83 -39 -83 -26 0 5 8 19
18 31 14 18 28 25 62 32 3 0 11 -3 18 -8z m-208 -103 c140 -310 157 -356 142
-371 -13 -13 -18 -11 -41 16 -15 18 -34 48 -41 67 -8 19 -45 104 -82 189 -50
115 -65 157 -55 163 30 19 45 7 77 -64z m-126 -143 c64 -150 86 -192 115 -217
75 -65 100 -139 61 -178 -47 -47 -128 -39 -182 19 -41 43 -44 58 -27 126 11
44 10 47 -70 221 -45 97 -83 182 -84 187 -2 11 39 24 83 26 23 1 31 -13 104
-184z m-253 43 c24 -57 54 -118 67 -137 53 -80 36 -116 -53 -116 -72 0 -87 16
-134 146 -22 57 -46 121 -55 142 -18 42 -19 40 49 56 82 18 79 20 126 -91z
m962 67 c54 -38 74 -117 38 -149 -66 -60 -201 3 -201 95 0 25 30 60 60 72 21
8 80 -2 103 -18z m-1557 -26 c12 -13 44 -76 70 -139 25 -63 77 -187 114 -275
177 -416 379 -905 380 -922 4 -38 -1 -53 -24 -68 -13 -9 -151 -42 -307 -75
-156 -32 -333 -70 -394 -84 -60 -14 -346 -75 -635 -136 -289 -61 -625 -133
-748 -161 -123 -27 -238 -49 -256 -49 -41 0 -80 30 -105 79 -11 20 -78 192
-151 381 -72 190 -186 484 -252 654 -82 212 -118 316 -114 332 9 36 48 50 236
84 96 17 249 47 340 65 91 19 284 57 430 84 146 28 499 98 785 155 333 68 536
104 564 102 29 -3 51 -12 67 -27z m395 -153 c14 -39 9 -51 -18 -42 -11 4 -35
43 -60 100 -24 51 -43 96 -43 99 0 3 10 7 23 9 19 3 27 -7 54 -64 17 -37 37
-83 44 -102z m4125 123 c19 -11 32 -24 29 -29 -3 -4 2 -13 11 -21 8 -7 20 -22
26 -33 11 -20 -12 -4 -84 59 -13 11 -18 12 -18 3 0 -8 -7 -5 -15 6 -12 16 -12
22 -2 28 16 10 15 11 53 -13z m-2414 -98 l27 -50 -54 -5 c-30 -3 -81 -9 -112
-12 -67 -6 -195 -33 -205 -43 -3 -3 5 -19 19 -36 14 -16 22 -25 19 -18 -10 18
27 33 113 49 97 17 149 10 179 -25 20 -21 22 -22 13 -4 -15 30 -15 30 22 25
47 -6 67 -36 67 -104 0 -55 -1 -57 -22 -49 -17 6 -24 18 -28 47 -4 31 -11 42
-35 54 -39 19 -193 20 -257 1 l-46 -13 19 -32 c10 -17 19 -39 19 -48 0 -10 6
-18 13 -19 6 0 -1 -5 -17 -9 -36 -11 -106 24 -106 54 0 10 -22 49 -50 86 -86
115 -73 130 140 164 164 27 203 32 235 34 14 1 28 -12 47 -47z m1299 19 c250
-77 390 -354 257 -506 -50 -57 -101 -78 -188 -78 -85 0 -164 19 -154 36 5 8 1
9 -10 5 -26 -10 -93 28 -158 91 -176 167 -149 401 52 463 46 14 137 9 201 -11z
m909 -20 c14 -26 -7 -31 -47 -12 -31 15 -41 31 -27 45 10 10 64 -14 74 -33z
m200 -18 c93 -69 90 -176 -5 -188 -104 -14 -192 144 -112 201 27 20 81 14 117
-13z m-1808 1 c8 -10 18 -28 21 -41 4 -18 2 -22 -11 -19 -9 2 -16 9 -14 16 1
7 -2 9 -8 6 -8 -5 -6 -13 5 -25 15 -16 14 -18 -2 -24 -9 -4 -14 -4 -11 0 8 8
-9 26 -40 43 -24 13 -28 31 -10 49 17 17 53 15 70 -5z m-2498 -100 c53 -105
506 -1180 506 -1201 0 -15 59 -69 137 -125 81 -58 107 -100 107 -175 1 -35 -3
-46 -13 -44 -7 1 -19 -2 -25 -8 -7 -5 -16 -7 -19 -3 -4 3 -7 0 -7 -7 0 -7 -3
-10 -7 -7 -3 4 -11 3 -17 -2 -10 -8 -72 -23 -152 -36 -29 -4 -32 -1 -57 48
-14 28 -33 71 -42 94 l-16 41 37 86 c47 110 45 126 -35 326 -69 172 -88 216
-290 702 -78 185 -141 341 -141 347 0 21 10 11 34 -36z m3851 11 c56 -37 9
-103 -52 -75 -23 11 -46 9 -141 -10 -99 -21 -114 -22 -122 -9 -5 8 -10 20 -10
26 0 12 107 37 121 28 5 -3 9 0 9 6 0 7 17 11 48 9 39 -2 53 2 70 19 26 26 44
28 77 6z m-1268 -114 c55 -109 283 -581 283 -585 0 -2 -14 -6 -31 -10 -41 -9
-46 -3 -109 135 -29 63 -95 204 -147 313 -51 109 -91 203 -87 208 3 6 18 9 32
7 22 -2 33 -15 59 -68z m1898 -4 c20 -39 19 -46 -9 -46 -17 0 -27 9 -36 29
-22 54 19 68 45 17z m-325 -30 c28 -35 -11 -93 -47 -70 -22 14 -29 64 -11 75
20 13 44 11 58 -5z m-2816 -28 c8 -12 13 -26 9 -31 -8 -13 -95 0 -105 16 -17
27 -8 37 36 37 35 0 48 -5 60 -22z m1040 -47 c25 -33 46 -65 46 -72 0 -8 -15
-10 -51 -7 -42 4 -57 12 -87 42 l-37 37 35 29 c19 16 38 30 42 30 4 0 27 -27
52 -59z m-1911 -8 c14 -21 76 -150 137 -288 62 -137 126 -275 142 -305 l29
-55 -28 -6 c-59 -12 -60 -10 -215 347 -82 186 -148 339 -148 341 0 2 13 3 29
3 22 0 34 -9 54 -37z m850 -19 c12 -4 13 -22 9 -93 -3 -64 0 -103 12 -147 50
-172 228 -365 421 -456 l64 -30 111 17 c61 8 141 25 178 37 74 22 177 71 187
89 4 6 -14 33 -42 62 -92 96 -93 98 -86 191 5 70 3 89 -15 129 -12 26 -19 47
-17 47 2 0 20 -7 39 -17 41 -19 53 -47 62 -141 4 -41 14 -79 26 -97 21 -32 98
-95 115 -95 6 0 23 28 38 62 48 107 36 211 -34 290 -17 20 -31 40 -31 46 0 5
19 12 42 15 49 7 57 -1 88 -83 43 -111 46 -279 7 -371 -47 -112 -217 -187
-598 -266 -28 -5 -83 22 -74 37 3 5 -3 6 -14 3 -10 -3 -46 9 -80 26 -168 83
-327 230 -399 368 -51 100 -69 164 -77 286 l-7 97 30 0 c17 0 37 -3 45 -6z
m658 -44 c28 -19 65 -52 80 -73 40 -55 37 -68 -4 -15 -40 52 -107 95 -179 114
l-53 13 52 -3 c38 -2 65 -12 104 -36z m-113 11 c11 -7 11 -9 -2 -14 -9 -4 -16
-1 -17 6 0 7 -5 2 -11 -11 -7 -13 -17 -21 -25 -18 -8 3 -11 1 -8 -4 3 -6 -1
-10 -10 -10 -9 0 -13 -4 -10 -10 3 -5 1 -10 -4 -10 -6 0 -11 -16 -11 -35 0
-19 -4 -35 -10 -35 -5 0 -10 11 -10 24 0 31 20 86 31 86 5 0 9 8 10 18 0 10 3
12 6 5 5 -15 33 -18 33 -4 0 5 -6 12 -12 14 -7 3 -2 6 12 6 14 0 31 -3 38 -8z
m-1621 -13 c4 -7 51 -114 104 -238 93 -217 99 -239 63 -240 -6 0 -53 98 -104
218 -51 119 -96 221 -101 227 -5 5 -9 17 -9 27 0 21 34 25 47 6z m1368 -75 c0
-63 5 -87 24 -126 48 -97 177 -210 273 -239 43 -13 46 -18 19 -35 -62 -39
-268 113 -336 248 -18 34 -29 76 -33 115 -6 83 2 114 31 114 22 0 23 -3 22
-77z m315 63 c0 -2 -9 -6 -20 -9 -11 -3 -18 -1 -14 4 5 9 34 13 34 5z m-806
-72 c4 -9 5 -18 4 -19 -3 -3 -133 -38 -179 -49 -23 -5 -26 -3 -22 18 4 21 13
25 76 35 40 6 79 16 87 21 21 14 27 12 34 -6z m824 -13 c4 -24 -41 -81 -63
-81 -23 0 -35 22 -23 44 32 63 80 83 86 37z m-4956 -126 c76 -184 318 -805
318 -814 0 -5 6 -11 13 -14 7 -2 23 -25 35 -51 31 -60 23 -102 -21 -121 -67
-28 -140 25 -150 111 -3 27 -26 100 -52 162 -25 63 -48 128 -50 145 -2 18 -13
59 -25 91 -22 66 -24 80 -11 71 5 -3 12 -1 16 5 3 5 -3 10 -13 10 -23 0 -37
15 -47 50 -10 33 -128 343 -155 404 -11 27 -19 50 -17 52 6 6 82 22 96 21 7
-1 36 -56 63 -122z m212 -29 c44 -102 76 -213 90 -316 6 -40 5 -43 -7 -27 -8
9 -22 43 -32 75 -9 31 -23 71 -31 89 -8 17 -14 40 -14 51 0 25 -17 37 -47 33
-26 -3 -28 6 -12 59 10 33 9 42 -8 67 -11 15 -24 39 -28 53 -7 24 -7 24 8 5 8
-11 13 -23 11 -27 -2 -4 1 -10 7 -14 8 -5 9 -3 4 6 -6 10 -4 12 10 6 14 -5 16
-4 7 7 -7 8 -9 17 -5 20 3 4 1 7 -5 7 -7 0 -12 14 -11 33 1 30 1 31 9 7 4 -14
28 -74 54 -134z m4503 132 c-3 -8 -6 -5 -6 6 -1 11 2 17 5 13 3 -3 4 -12 1
-19z m2340 -13 c84 -50 116 -157 62 -210 -50 -51 -147 -45 -210 12 -49 44 -69
81 -69 125 0 97 111 134 217 73z m-6947 -5 c0 -5 -2 -10 -4 -10 -3 0 -8 5 -11
10 -3 6 -1 10 4 10 6 0 11 -4 11 -10z m-297 -215 c42 -110 108 -281 146 -379
53 -134 71 -192 71 -227 0 -26 -4 -51 -10 -54 -14 -9 -67 21 -87 51 -10 14
-32 43 -50 65 -17 21 -37 55 -43 74 -14 42 -5 79 17 71 11 -5 14 -2 9 11 -4
10 -57 143 -117 296 -61 153 -108 281 -105 284 9 9 80 20 87 14 4 -3 41 -96
82 -206z m-248 33 c27 -73 76 -205 111 -293 34 -88 83 -214 108 -279 26 -65
65 -157 87 -203 37 -75 40 -86 29 -112 -20 -50 -80 -65 -123 -31 -28 22 -54
82 -162 365 -40 105 -94 244 -120 310 -69 177 -126 338 -120 343 7 7 97 31
121 31 18 1 28 -18 69 -131z m8421 108 c3 -8 -8 -37 -24 -65 l-29 -51 -29 21
c-52 39 -103 92 -98 101 3 4 43 8 90 8 64 0 86 -4 90 -14z m-3078 -24 c4 -25
-23 -41 -40 -24 -7 7 -6 17 2 32 14 26 34 22 38 -8z m-1108 -1 c16 -31 12 -41
-18 -41 -37 0 -54 17 -41 42 13 24 46 23 59 -1z m-4430 -203 c178 -457 182
-470 165 -487 -10 -11 -18 -12 -26 -4 -10 10 -269 672 -269 689 0 2 23 9 41
13 3 0 43 -95 89 -211z m8420 157 c17 -20 13 -22 -40 -26 -35 -3 -45 -1 -48
13 -2 11 5 18 20 21 44 8 56 7 68 -8z m-3921 -81 c6 -15 10 -28 9 -29 -2 -2
-26 -6 -54 -10 -44 -6 -52 -4 -57 12 -2 10 -8 26 -12 36 -6 15 -1 17 47 17 49
0 56 -3 67 -26z m-5156 -41 c-14 -16 -34 -47 -45 -71 -11 -23 -24 -45 -29 -48
-15 -9 -10 66 7 99 20 39 31 47 66 47 l27 0 -26 -27z m5467 -13 c11 -21 20
-45 20 -52 0 -9 -31 -20 -87 -32 -49 -11 -92 -21 -98 -22 -5 -2 -20 19 -32 46
l-22 50 42 11 c23 6 60 17 82 24 63 21 73 18 95 -25z m-5385 16 c19 -8 35 -20
35 -25 0 -19 -28 -12 -54 14 -29 29 -27 30 19 11z m-300 -43 c8 -20 13 -38 11
-40 -4 -5 -36 55 -36 69 0 18 10 6 25 -29z m8743 -71 c46 -96 51 -130 24 -155
-10 -9 -70 -28 -133 -42 -63 -14 -170 -39 -239 -55 l-125 -29 -82 32 -83 33
228 54 c125 30 249 55 277 56 27 1 51 7 53 13 2 6 8 9 13 5 17 -10 9 16 -22
78 l-31 61 23 18 c42 32 53 24 97 -69z m-8912 -39 c34 -95 42 -108 64 -111 88
-11 142 -47 153 -100 l5 -27 121 5 121 5 60 48 c56 46 60 52 60 91 0 84 59
134 158 135 32 1 44 -3 49 -16 3 -10 30 -44 60 -75 43 -45 53 -63 53 -91 0
-39 -19 -59 -95 -102 -27 -15 -72 -46 -98 -68 l-49 -40 -35 17 c-35 17 -35 17
-17 39 66 79 77 87 121 87 71 0 123 37 123 86 0 10 -21 40 -47 66 -52 53 -88
61 -142 33 -34 -17 -43 -45 -29 -87 10 -29 8 -33 -63 -104 l-74 -75 -80 6
c-58 4 -108 1 -185 -13 -195 -36 -267 -60 -353 -119 -60 -41 -86 -53 -103 -49
-34 9 -30 36 10 75 34 33 162 81 299 111 43 10 57 17 57 31 0 23 -34 47 -85
60 -81 20 -92 28 -110 77 -31 87 -60 147 -77 160 -10 7 -18 18 -18 23 0 13 38
28 76 28 31 1 32 -1 70 -106z m5601 65 c10 -24 16 -45 14 -48 -1 -3 -25 -10
-51 -16 l-49 -11 -16 45 c-19 58 -19 60 8 65 66 13 76 9 94 -35z m2032 -4 c37
-47 22 -84 -34 -84 -56 0 -97 64 -63 98 22 22 75 14 97 -14z m-7820 7 c17 -11
7 -41 -14 -41 -8 0 -15 -6 -15 -14 0 -21 24 -36 48 -29 30 7 40 -22 17 -47
-13 -14 -31 -20 -63 -20 -38 0 -50 5 -83 39 -25 25 -39 48 -39 64 0 31 6 35
62 46 59 12 71 12 87 2z m8825 0 c3 -5 -15 -15 -40 -24 -40 -13 -46 -13 -51 0
-3 8 0 19 8 24 18 11 76 12 83 0z m830 -17 c5 -13 3 -14 -6 -6 -7 5 -24 12
-38 15 -22 4 -21 4 6 6 21 1 34 -5 38 -15z m146 6 c41 -7 100 -27 160 -57 79
-38 109 -60 181 -132 71 -71 94 -103 133 -181 29 -58 46 -104 43 -118 -2 -12
0 -25 4 -28 5 -3 9 -22 9 -43 0 -33 -4 -39 -23 -43 -20 -4 -23 -1 -21 19 3 26
-33 128 -57 164 l-16 23 -64 -25 -64 -25 3 -72 c3 -63 0 -81 -23 -127 -14 -30
-39 -64 -55 -75 -68 -48 -203 -48 -307 1 -27 13 -54 23 -61 22 -7 -1 -11 1 -8
4 7 8 -39 43 -56 43 -7 0 -18 -8 -25 -19 -6 -10 -29 -21 -52 -25 -45 -7 -48
-11 -26 -40 20 -27 19 -56 -2 -56 -22 0 -101 83 -109 116 -10 40 21 64 95 73
34 4 66 12 72 18 15 15 -10 65 -30 58 -18 -5 -529 -125 -535 -125 -8 0 -47 73
-41 78 5 5 317 78 464 108 78 16 84 16 93 1 12 -22 27 -22 22 1 -3 9 1 26 9
36 13 18 10 21 -44 48 -57 28 -109 77 -109 102 0 23 32 56 55 56 27 0 75 -52
75 -81 0 -12 10 -23 27 -30 24 -9 30 -7 53 20 69 83 190 92 353 26 13 -5 17
-2 17 14 0 12 -6 21 -15 21 -17 0 -18 2 -9 24 7 19 55 21 72 4 7 -7 12 -31 12
-54 0 -58 21 -78 77 -71 46 5 93 30 93 50 0 22 -89 115 -150 155 -32 22 -57
42 -54 45 6 6 -50 47 -65 47 -6 0 -11 5 -11 11 0 5 -5 7 -11 3 -6 -3 -14 -2
-18 3 -3 6 -46 17 -96 26 -49 8 -76 15 -60 16 17 0 59 -4 95 -9z m-1154 -45
c8 -20 12 -40 8 -46 -11 -18 -50 -28 -373 -94 -366 -74 -795 -169 -1025 -226
-278 -70 -654 -149 -706 -149 -89 0 -256 69 -332 138 -29 26 -55 66 -86 132
-65 139 -102 231 -97 240 8 13 54 18 64 6 4 -6 32 -65 61 -131 30 -66 64 -134
76 -151 23 -31 155 -107 217 -125 46 -13 344 42 812 152 116 27 293 66 395 88
102 22 322 69 490 104 432 92 443 95 463 96 12 1 23 -11 33 -34z m861 29 c-3
-3 -12 -4 -19 -1 -8 3 -5 6 6 6 11 1 17 -2 13 -5z m92 2 c-2 -2 -20 -6 -39
-10 -25 -4 -31 -3 -20 4 14 9 69 15 59 6z m-139 -22 c0 -8 -4 -12 -10 -9 -5 3
-10 10 -10 16 0 5 5 9 10 9 6 0 10 -7 10 -16z m-4040 -159 c34 -77 66 -144 71
-149 5 -6 9 -23 9 -39 0 -22 -4 -28 -16 -23 -9 3 -19 6 -24 6 -5 0 -11 14 -15
30 -4 17 -10 30 -15 30 -4 0 -33 62 -64 137 -53 128 -56 139 -39 150 9 7 20
10 24 6 3 -5 34 -71 69 -148z m1362 133 c-2 -10 3 -18 10 -18 20 0 -14 -20
-35 -20 -20 0 -32 23 -23 46 8 22 52 15 48 -8z m3142 -13 c11 -8 15 -15 10
-15 -6 0 -19 7 -30 15 -10 8 -14 14 -9 14 6 0 19 -6 29 -14z m-3919 -71 c19
-42 35 -80 35 -85 0 -17 -29 -9 -40 11 -6 11 -18 20 -28 20 -11 0 -26 20 -41
53 -14 28 -27 55 -29 59 -3 6 20 13 56 17 7 0 28 -33 47 -75z m-6540 10 c18
-43 14 -50 -25 -59 -42 -9 -67 2 -78 35 -11 31 -3 44 33 53 45 11 55 7 70 -29z
m6370 -14 c21 -47 16 -55 -40 -64 -34 -5 -37 -4 -18 6 l22 11 -21 31 c-12 17
-22 32 -23 34 -1 1 -39 -8 -84 -21 -45 -13 -84 -21 -87 -16 -2 4 12 13 33 18
126 33 189 48 194 45 3 -2 14 -21 24 -44z m-6437 -335 c71 -192 167 -451 213
-575 45 -124 87 -227 93 -229 6 -2 26 -19 44 -37 80 -80 -5 -174 -104 -114
-36 23 -41 33 -49 98 -3 23 -16 71 -30 105 -113 289 -395 1062 -395 1082 0 13
81 36 91 26 3 -3 65 -163 137 -356z m6976 265 c47 -48 54 -60 38 -60 -43 0
-70 20 -105 80 -20 34 -37 63 -37 66 0 11 49 -30 104 -86z m-6644 35 c25 -25
48 -45 53 -45 8 0 8 -113 -2 -190 l-7 -55 -38 74 c-21 41 -46 86 -55 100 -14
20 -17 41 -13 94 2 37 7 67 10 67 4 -1 27 -21 52 -45z m10007 -11 c-3 -3 -12
-4 -19 -1 -8 3 -5 6 6 6 11 1 17 -2 13 -5z m-3854 -99 c17 -36 16 -38 -27 -55
-24 -9 -28 -7 -46 23 -11 17 -20 35 -20 39 0 6 44 23 71 27 3 1 13 -15 22 -34z
m2532 14 c140 -36 248 -100 356 -209 141 -143 209 -299 209 -480 0 -104 -19
-181 -67 -273 -29 -55 -38 -66 -44 -51 -3 11 -2 27 3 38 59 113 82 292 54 420
-34 149 -132 303 -249 392 -141 106 -272 149 -422 141 -82 -4 -396 -70 -835
-175 l-115 -27 -34 -84 c-31 -75 -36 -81 -45 -62 -7 17 -4 40 15 93 13 39 29
76 35 82 6 7 69 24 140 40 71 15 260 56 419 91 160 35 313 69 340 74 56 11
179 6 240 -10z m-8879 -45 c18 -43 13 -50 -44 -59 -41 -7 -43 -6 -57 29 -8 19
-15 38 -15 41 0 9 43 24 73 24 23 1 31 -5 43 -35z m6197 -3 c16 -27 16 -31 1
-45 -20 -21 -26 -20 -58 5 -28 22 -32 39 -14 57 21 21 53 14 71 -17z m-7306
-6 c22 -6 68 -71 55 -78 -4 -3 -23 -7 -43 -11 -37 -6 -37 -6 -53 41 -20 59
-20 65 2 59 9 -2 27 -7 39 -11z m9978 -60 c296 -77 503 -376 441 -638 -30
-128 -95 -228 -190 -291 -71 -47 -108 -60 -291 -102 -82 -19 -150 -36 -152
-38 -3 -2 37 -97 111 -258 14 -32 25 -58 23 -58 -1 0 -85 -18 -187 -40 -101
-21 -186 -37 -188 -35 -4 4 -515 1148 -549 1229 -13 32 -23 59 -21 61 3 2 490
111 743 166 101 22 184 23 260 4z m-9416 -85 c19 -50 32 -92 30 -94 -9 -9
-114 -24 -121 -18 -6 6 -68 167 -68 178 0 2 9 4 20 4 11 0 20 5 20 10 0 6 19
10 43 10 l43 0 33 -90z m10231 72 c0 -26 -27 -36 -195 -73 l-146 -33 -21 22
c-12 12 -19 25 -15 28 12 12 289 73 335 73 34 1 42 -2 42 -17z m-8544 0 c7 -4
8 -18 2 -39 l-9 -33 -74 0 c-60 0 -75 -3 -75 -15 0 -11 12 -15 48 -16 61 0
111 -18 130 -46 14 -23 14 -23 -19 -15 -19 4 -68 7 -109 7 -97 0 -172 -25
-227 -76 -24 -21 -51 -39 -62 -39 -11 0 -24 -7 -28 -15 -7 -13 -272 -79 -281
-70 -2 2 -1 18 3 35 8 37 20 42 141 65 73 14 94 22 117 46 15 16 27 34 27 39
0 15 -75 5 -159 -20 -39 -12 -75 -20 -78 -16 -11 11 27 55 69 80 24 14 79 34
123 46 44 12 107 31 140 42 33 11 83 26 110 33 54 14 193 19 211 7z m342 -27
c36 -40 102 -137 125 -181 16 -30 15 -32 -1 -27 -10 2 -33 27 -52 54 -33 48
-74 93 -55 59 10 -18 11 -18 -44 42 -38 42 -41 49 -29 67 17 28 21 27 56 -14z
m4920 23 c5 -7 27 -53 47 -101 49 -114 81 -157 156 -207 64 -44 69 -45 160
-34 50 5 59 4 78 -15 23 -23 28 -63 9 -79 -7 -6 -46 -17 -86 -25 l-74 -16 -86
61 c-134 94 -166 129 -203 222 -18 45 -43 103 -56 130 -28 56 -24 63 38 75 4
0 11 -5 17 -11z m-7142 -110 c16 -51 28 -94 27 -97 -1 -3 -27 -11 -58 -17 -56
-11 -57 -11 -67 15 -27 68 -57 165 -53 169 6 7 66 20 96 21 23 1 27 -6 55 -91z
m7027 -10 c25 -57 60 -138 77 -181 47 -114 85 -164 167 -222 130 -90 91 -89
-72 2 -44 24 -87 50 -96 56 -8 7 -35 59 -59 117 -23 58 -60 146 -81 195 -20
50 -39 97 -41 104 -2 12 21 25 53 30 4 1 27 -45 52 -101z m279 95 c-18 -7 4
-33 28 -33 9 0 25 -9 35 -20 9 -10 42 -36 71 -56 l54 -37 -37 -14 c-21 -7 -43
-13 -50 -13 -10 0 -123 159 -123 174 0 3 8 6 18 5 11 0 12 -2 4 -6z m-8307
-33 c3 -5 0 -10 -8 -10 -8 0 -26 -9 -41 -21 -20 -16 -26 -17 -26 -6 0 15 37
46 57 46 6 1 15 -3 18 -9z m1792 -2 c6 -7 15 -28 21 -46 10 -30 9 -33 -14 -42
-47 -18 -72 -12 -89 21 -9 17 -15 38 -13 47 5 26 78 41 95 20z m-1759 -49 c-3
-8 -7 -3 -11 10 -4 17 -3 21 5 13 5 -5 8 -16 6 -23z m9362 2 c-12 -23 4 -19
-250 -76 -113 -26 -213 -49 -223 -52 -25 -7 -48 -60 -157 -369 -51 -142 -94
-261 -96 -263 -1 -1 -174 86 -383 194 -209 108 -389 199 -398 201 -15 4 -457
-93 -741 -162 l-73 -18 -48 -76 c-66 -103 -270 -451 -311 -530 -19 -36 -35
-66 -36 -68 -1 -2 -179 88 -395 198 -217 111 -405 202 -419 202 -14 -1 -95
-17 -180 -37 -85 -20 -231 -54 -325 -75 -370 -85 -1057 -249 -1062 -253 -2 -3
-35 -92 -73 -199 -106 -303 -112 -316 -122 -292 -7 15 8 72 58 224 78 241 105
306 131 314 10 3 110 26 222 51 113 25 288 66 390 91 102 25 294 69 426 99
132 30 309 70 393 89 l153 36 117 -59 c64 -33 238 -122 386 -200 149 -77 271
-139 271 -138 1 1 75 126 165 277 90 151 180 300 200 330 l37 55 194 44 c107
24 257 58 334 77 77 18 177 40 221 50 l82 17 233 -120 c129 -66 298 -155 377
-198 79 -43 147 -74 152 -69 4 5 41 104 81 219 39 116 89 251 110 300 l37 90
58 13 c274 63 442 100 457 101 14 1 16 -2 7 -18z m-6284 -17 c46 -22 96 -84
135 -167 37 -81 50 -205 27 -271 -16 -48 -24 -51 -65 -26 -30 18 -32 21 -22
50 20 56 7 159 -29 233 -18 37 -44 75 -56 84 -20 15 -22 22 -13 41 8 17 7 26
-2 35 -11 10 -12 8 -7 -9 4 -14 1 -28 -9 -38 -21 -21 -38 -20 -65 2 -18 14
-21 25 -16 45 9 37 67 47 122 21z m-2750 -49 c20 -48 18 -52 -21 -65 -32 -11
-33 -13 -23 -38 7 -15 18 -34 25 -43 17 -20 8 -43 -21 -57 -22 -10 -26 -5 -74
91 -28 56 -49 103 -47 105 2 2 34 12 72 22 37 10 69 19 71 19 2 1 10 -15 18
-34z m3802 -42 c-3 -30 -31 -41 -58 -23 -13 9 -12 13 9 30 34 29 53 26 49 -7z
m-4203 -47 c85 -51 113 -117 78 -186 -22 -42 -54 -60 -111 -60 -117 0 -194
118 -142 221 38 75 45 80 93 63 23 -8 59 -25 82 -38z m9618 -521 c328 -753
319 -729 299 -738 -16 -7 -355 -86 -358 -83 -2 1 -284 631 -309 690 l-13 30
-65 -130 c-66 -132 -235 -456 -241 -461 -3 -3 -396 212 -564 309 -57 33 -107
58 -112 56 -5 -2 58 -163 140 -358 81 -195 145 -358 142 -362 -7 -6 -349 -88
-369 -88 -6 0 -23 30 -38 68 -14 37 -68 164 -120 282 -103 238 -156 363 -300
709 -100 239 -103 250 -55 251 8 0 71 13 139 30 l124 29 256 -136 c395 -210
573 -303 581 -303 4 0 16 19 25 43 34 83 225 612 225 623 0 6 82 31 183 56
l182 44 22 -45 c12 -25 114 -257 226 -516z m-3060 463 c21 -50 35 -94 30 -99
-16 -15 -416 -100 -426 -90 -6 6 -27 51 -48 100 l-38 91 27 7 c59 15 378 80
397 81 16 1 27 -16 58 -90z m-3658 53 c43 -19 100 -77 116 -118 11 -29 12 -52
1 -38 -4 6 -14 10 -22 10 -8 0 -14 6 -12 14 2 7 -5 23 -15 35 -18 21 -18 21 3
6 11 -8 7 -3 -10 12 -22 20 -32 24 -38 15 -5 -8 -8 -7 -8 5 0 24 -96 52 -147
42 -45 -8 -68 -19 -106 -51 -16 -13 -33 -21 -38 -17 -5 3 -9 -2 -9 -10 0 -9
-4 -16 -10 -16 -15 0 -13 9 11 46 54 88 170 114 284 65z m8605 -11 c7 -14 7
-20 0 -20 -5 0 -10 7 -10 16 0 8 -5 12 -10 9 -6 -4 -8 -11 -5 -16 4 -5 -3 -9
-14 -9 -25 0 -26 4 -5 24 21 21 31 20 44 -4z m-83 -6 c-3 -3 -12 -4 -19 -1 -8
3 -5 6 6 6 11 1 17 -2 13 -5z m-8690 -36 c2 -17 0 -19 -7 -8 -5 8 -6 18 -4 22
8 12 10 10 11 -14z m9173 16 c0 -8 -19 -13 -24 -6 -3 5 1 9 9 9 8 0 15 -2 15
-3z m-374 -31 c-8 -8 -36 5 -36 17 0 7 6 7 21 0 11 -7 18 -14 15 -17z m414 6
c0 -5 -4 -7 -10 -4 -5 3 -10 1 -10 -4 0 -6 11 -11 25 -11 28 0 33 -22 13 -64
-18 -40 -46 -43 -79 -8 -26 28 -27 31 -13 58 8 16 21 32 27 36 18 11 47 10 47
-3z m-11175 -14 c69 -18 140 -55 194 -102 35 -29 46 -33 98 -33 68 0 140 -18
203 -50 65 -33 156 -124 187 -189 24 -48 28 -68 28 -146 0 -80 -3 -97 -30
-150 -22 -43 -36 -61 -53 -63 l-22 -3 25 37 c51 75 63 187 31 282 -49 143
-254 269 -401 245 -32 -5 -41 -1 -78 34 -84 80 -175 115 -295 114 -163 0 -278
-65 -347 -196 l-26 -50 6 43 c23 171 261 284 480 227z m10704 -1 c2 -2 -7 -4
-22 -4 -14 0 -38 -5 -54 -10 -25 -9 -26 -9 -10 4 18 14 18 14 0 19 -10 3 5 2
32 -1 28 -2 52 -6 54 -8z m-8991 -56 c-3 -33 -3 -33 -98 -55 -52 -12 -110 -22
-127 -22 -29 -1 -33 2 -33 23 0 32 5 35 119 61 137 32 143 32 139 -7z m-1153
-7 c27 -12 57 -29 67 -38 17 -15 17 -17 0 -29 -15 -13 -13 -14 23 -14 22 0 61
-3 87 -6 46 -6 48 -7 74 -62 14 -32 41 -97 60 -147 35 -88 35 -90 26 -183 -9
-90 -20 -121 -40 -108 -7 4 -19 94 -26 204 0 12 -4 22 -7 22 -12 0 -31 59 -23
71 4 7 3 10 -3 6 -5 -3 -19 11 -31 31 -27 48 -103 122 -167 161 -71 45 -192
81 -271 81 -36 0 -64 4 -64 10 0 6 10 10 23 10 12 0 29 5 37 11 26 18 179 5
235 -20z m1293 -17 c0 -14 9 -39 21 -55 12 -16 17 -29 12 -29 -5 0 -19 19 -30
43 -22 44 -28 82 -12 73 5 -3 9 -17 9 -32z m30 -20 c-3 -14 -5 -12 -10 9 -3
19 -2 25 4 19 6 -6 8 -18 6 -28z m8945 16 c27 -21 41 -70 51 -173 l6 -58 -80
61 c-138 105 -147 127 -71 167 54 28 62 28 94 3z m-4613 -10 c37 -37 18 -96
-37 -118 -15 -6 -185 -46 -378 -87 -192 -42 -402 -87 -465 -101 -155 -35 -207
-35 -237 0 -43 50 -25 89 50 110 28 8 93 22 142 32 110 20 748 161 790 173 55
17 113 13 135 -9z m-2656 -12 c9 -12 16 -38 15 -58 -1 -31 -2 -32 -8 -10 l-7
24 -16 -22 -15 -23 -27 35 c-28 38 -33 61 -13 69 28 12 57 6 71 -15z m185 -12
c11 -24 11 -30 0 -37 -26 -17 -45 -9 -62 25 -16 34 -16 35 6 39 34 6 41 3 56
-27z m-3774 9 c74 -12 189 -93 207 -145 3 -10 15 -10 55 -2 127 28 277 -37
336 -146 74 -137 -7 -321 -163 -370 -19 -6 -213 -50 -430 -98 -447 -98 -503
-104 -605 -65 -158 61 -237 236 -171 376 58 126 208 191 359 156 l37 -9 0 37
c0 95 49 182 128 228 50 30 142 54 182 48 14 -2 43 -7 65 -10z m3400 -10 c29
-28 31 -40 10 -49 -13 -5 -14 -10 -5 -28 10 -20 9 -21 -2 -6 -10 12 -19 13
-31 7 -13 -8 -17 -6 -17 6 0 14 -13 20 -35 15 -5 -1 -7 2 -3 6 4 4 3 12 -2 19
-13 16 16 55 41 55 11 0 31 -11 44 -25z m-183 -32 c11 -10 18 -29 17 -52 0
-29 -2 -32 -9 -16 -5 11 -9 14 -9 8 -1 -7 -8 -13 -16 -13 -21 0 -57 38 -50 53
4 7 -1 3 -9 -7 -22 -27 -32 -12 -12 19 19 29 60 33 88 8z m-1433 -29 c6 -15
10 -28 9 -29 -5 -5 -228 -55 -243 -55 -15 0 -40 48 -31 57 7 7 198 51 227 52
19 1 29 -6 38 -25z m171 12 c0 -17 -14 -29 -23 -20 -8 8 3 34 14 34 5 0 9 -6
9 -14z m-2931 -81 c12 -25 21 -51 21 -58 0 -7 -21 -50 -46 -95 -47 -82 -72
-103 -109 -89 -23 10 -29 54 -11 91 9 19 16 52 16 74 0 58 19 102 53 123 37
22 47 16 76 -46z m3178 49 c-3 -3 -12 -4 -19 -1 -8 3 -5 6 6 6 11 1 17 -2 13
-5z m1433 -74 c5 0 18 -17 29 -37 28 -56 181 -444 181 -459 0 -9 -13 -14 -37
-14 l-38 0 -97 248 c-80 205 -95 253 -91 285 l5 38 19 -30 c10 -17 23 -31 29
-31z m290 -206 c56 -141 100 -257 98 -259 -2 -1 -21 -6 -43 -9 -40 -7 -41 -6
-54 31 -7 21 -51 134 -97 251 -46 118 -84 218 -84 222 0 9 23 17 57 19 19 1
33 -27 123 -255z m-1797 239 c-7 -2 -19 -2 -25 0 -7 3 -2 5 12 5 14 0 19 -2
13 -5z m1084 1 c-3 -3 -12 -4 -19 -1 -8 3 -5 6 6 6 11 1 17 -2 13 -5z m-1363
-43 c33 -36 17 -54 -64 -73 -158 -36 -163 -37 -190 -11 -13 12 -21 26 -17 29
6 6 227 71 248 73 3 1 14 -8 23 -18z m5963 -38 c56 -27 102 -54 103 -60 0 -7
-3 -13 -6 -13 -10 0 -214 110 -214 116 0 10 20 2 117 -43z m-8267 27 c0 -5
-15 -10 -33 -10 -101 0 -229 -47 -301 -111 -20 -17 -50 -61 -68 -97 -30 -61
-33 -75 -33 -159 0 -51 -4 -93 -8 -93 -5 0 -5 5 -2 10 3 6 -1 10 -10 10 -9 0
-13 -4 -10 -10 4 -6 -1 -7 -11 -3 -14 5 -16 19 -12 92 8 177 101 301 267 358
70 24 221 33 221 13z m2874 -31 c27 -17 45 -34 40 -39 -11 -10 -144 -52 -276
-86 -63 -16 -133 -27 -178 -28 -41 -1 -109 -10 -151 -20 l-76 -19 -31 23 c-56
41 -43 52 98 80 38 8 62 20 77 38 21 25 23 26 86 14 122 -23 215 -9 287 42 46
33 67 32 124 -5z m1071 -2 c8 -13 33 -72 56 -132 40 -107 40 -108 25 -149 -27
-70 -88 -165 -146 -226 -50 -52 -61 -59 -115 -70 -33 -6 -223 -47 -423 -92
-199 -44 -369 -78 -376 -75 -8 3 -20 32 -26 64 -7 32 -30 99 -51 149 -21 50
-42 105 -45 121 -5 26 -2 31 26 43 43 18 48 10 106 -138 33 -85 51 -121 60
-118 8 3 150 35 316 71 390 85 429 97 478 141 44 40 97 125 106 170 4 21 -6
60 -33 130 -30 77 -37 104 -29 117 16 24 53 21 71 -6z m3249 -49 c14 -35 67
-162 116 -283 114 -276 363 -878 384 -927 l16 -36 -188 -46 c-103 -24 -190
-42 -194 -38 -6 6 -263 581 -306 685 -8 20 -18 37 -21 37 -3 0 -55 -89 -115
-198 -60 -108 -138 -247 -174 -309 l-65 -112 -156 82 c-86 45 -239 127 -341
183 -102 56 -186 101 -187 100 -2 -1 63 -164 142 -361 80 -197 143 -360 141
-363 -11 -10 -362 -92 -395 -92 -11 0 -25 25 -43 73 -15 39 -51 131 -81 202
-44 104 -408 990 -424 1031 -2 6 61 26 162 49 l165 39 38 -22 c20 -13 87 -48
147 -79 61 -30 233 -121 383 -200 150 -80 275 -143 276 -141 2 1 24 39 48 83
195 345 305 537 332 575 17 25 29 46 27 48 -11 10 20 22 134 49 72 17 135 32
141 32 7 1 23 -27 38 -61z m5191 31 c4 -11 5 -22 3 -23 -3 -4 -460 -115 -733
-180 -82 -20 -262 -60 -400 -91 -137 -30 -287 -64 -332 -74 -80 -18 -81 -18
-86 0 -7 27 7 32 178 73 83 20 236 56 340 81 188 45 732 175 895 213 111 27
127 27 135 1z m-9305 -100 c27 -17 50 -35 50 -39 0 -18 -62 -100 -90 -120 -15
-11 -40 -20 -56 -20 -26 0 -94 43 -94 59 0 14 58 34 85 29 32 -7 68 28 45 42
-8 6 -28 10 -44 10 -31 0 -264 -62 -400 -107 -66 -21 -91 -25 -162 -21 -47 2
-90 10 -96 16 -9 9 -7 12 11 12 25 0 502 119 596 149 83 26 97 25 155 -10z
m9364 -5 c10 -26 7 -34 -13 -34 -10 0 -137 -29 -282 -64 -569 -139 -1158 -269
-1179 -261 -8 3 -11 3 -7 -2 5 -4 -40 -18 -100 -30 -156 -34 -174 -49 -156
-137 6 -28 9 -53 6 -56 -9 -9 -33 34 -48 84 l-15 50 42 37 c34 29 59 40 123
54 44 10 117 26 162 36 46 10 97 16 115 14 25 -4 28 -3 13 3 -17 8 -12 11 25
17 25 5 52 9 60 10 8 1 44 11 80 23 36 11 200 53 365 92 165 38 401 94 525
124 249 60 275 63 284 40z m-8890 -25 c86 -68 58 -166 -51 -176 -39 -4 -53 -1
-77 18 -34 27 -55 72 -48 105 12 66 119 98 176 53z m9090 -393 c107 -215 137
-283 129 -295 -9 -15 -522 -146 -1275 -327 -228 -55 -238 -56 -263 -40 -50 33
-34 42 163 90 649 157 1024 248 1142 275 74 18 141 36 149 40 11 7 -12 62
-111 267 -69 143 -123 263 -121 267 3 5 15 7 26 5 18 -2 49 -57 161 -282z
m-252 -4 c59 -123 106 -228 103 -232 -7 -11 -41 -18 -53 -11 -6 4 -35 58 -65
121 -30 63 -78 165 -107 225 -75 157 -74 154 -47 164 32 13 45 -8 169 -267z
m116 31 c56 -115 103 -215 104 -223 2 -11 -6 -15 -26 -15 -29 0 -33 7 -132
214 -57 118 -101 218 -98 223 3 4 15 8 27 8 20 0 38 -30 125 -207z m-9850 170
c38 -97 75 -225 86 -294 12 -73 11 -79 -5 -79 -19 0 -27 18 -110 252 -48 135
-48 137 -26 141 42 8 45 7 55 -20z m9521 -60 c17 -37 3 -45 -117 -73 -53 -12
-149 -35 -212 -52 -63 -17 -124 -32 -135 -35 -15 -3 -25 5 -39 31 -11 20 -17
38 -15 40 4 4 476 114 495 115 6 1 16 -11 23 -26z m-8921 -3 c17 0 32 -3 32
-7 -1 -5 -19 -21 -41 -36 -24 -17 -39 -34 -36 -41 8 -19 -66 -38 -84 -22 -9 8
-10 8 -5 -1 5 -9 0 -13 -12 -13 -31 0 -36 43 -11 91 l21 42 51 -7 c29 -3 67
-6 85 -6z m1905 -107 c36 -98 434 -1124 473 -1221 9 -23 14 -45 11 -49 -8 -7
-355 -93 -379 -93 -10 0 -24 12 -32 28 -18 36 -184 458 -394 1007 -55 143
-103 268 -107 277 -5 13 2 19 32 28 33 9 348 86 364 89 4 1 18 -29 32 -66z
m-2959 27 c25 -10 46 -23 46 -27 0 -19 -61 -111 -94 -142 -41 -39 -46 -37 -69
30 -15 45 -14 47 6 57 l22 11 -22 0 c-12 1 -25 6 -29 12 -3 6 -15 8 -26 6 -11
-3 -17 -3 -14 0 3 4 1 12 -6 20 -13 16 -15 14 42 35 60 22 90 22 144 -2z
m10089 -147 c36 -76 67 -144 69 -152 3 -16 -24 -24 -491 -138 l-314 -77 -19
24 c-10 13 -17 28 -15 33 3 10 525 143 660 169 37 7 66 15 64 18 -13 22 -107
220 -109 230 -3 13 29 27 68 29 17 1 32 -23 87 -136z m-689 92 c21 -32 21 -30
-15 -46 -29 -12 -33 -11 -50 10 -32 39 -22 56 32 60 9 0 24 -10 33 -24z
m-9837 -88 c-60 -10 -110 -17 -112 -15 -1 2 -5 12 -9 24 -6 19 2 22 101 45
l108 25 11 -31 11 -30 -110 -18z m10334 21 c45 -88 46 -128 4 -128 -5 0 -3 5
5 10 13 8 13 10 -1 10 -17 0 -29 19 -29 46 0 9 5 12 12 8 7 -4 8 -3 4 4 -10
17 -38 2 -31 -17 14 -36 17 -71 6 -71 -6 0 -11 13 -11 29 0 16 -7 45 -15 64
-19 46 -19 53 0 37 8 -7 12 -16 9 -21 -3 -5 2 -6 10 -3 12 5 11 9 -5 25 -11
11 -24 17 -28 14 -5 -2 -14 2 -21 10 -7 8 -19 15 -26 15 -23 0 -16 18 9 23 69
13 75 10 108 -55z m-1121 22 c28 -28 11 -60 -29 -60 -23 0 -30 6 -35 26 -13
49 28 70 64 34z m-6401 -42 c71 -166 292 -769 307 -836 56 -261 -112 -529
-396 -633 -176 -64 -385 -77 -552 -35 -156 40 -310 128 -395 226 -81 95 -106
144 -193 385 -32 88 -95 261 -140 384 -44 123 -80 224 -78 225 2 2 82 20 178
41 96 21 186 42 199 47 13 5 26 7 28 4 6 -6 110 -275 233 -603 54 -145 109
-277 121 -294 94 -132 381 -143 521 -20 69 60 92 144 67 236 -6 22 -67 180
-134 350 -68 171 -137 347 -154 392 l-30 83 22 5 c12 3 94 23 182 44 88 22
168 40 178 40 12 1 24 -13 36 -41z m-3136 8 c18 -7 41 -24 52 -36 l20 -23 -20
7 c-16 6 -18 5 -7 -5 39 -40 -10 -109 -76 -109 -39 0 -92 40 -92 69 0 14 -1
14 -10 1 -7 -12 -10 -8 -10 15 0 51 41 93 93 94 10 1 32 -5 50 -13z m10337
-68 c11 -18 20 -36 20 -40 0 -3 -107 -32 -237 -63 -131 -32 -256 -64 -277 -72
-38 -13 -40 -13 -65 17 l-26 29 -64 -15 c-52 -12 -66 -13 -72 -2 -15 22 -11
26 44 38 95 22 260 60 427 99 212 50 225 50 250 9z m-8135 -41 c13 -29 68
-170 123 -313 247 -638 239 -620 280 -640 88 -42 227 -10 277 64 20 29 26 32
31 19 11 -29 -33 -84 -88 -111 -84 -42 -209 -34 -266 18 -32 28 -64 94 -122
245 -26 69 -75 194 -107 276 -33 83 -86 219 -118 303 -48 127 -61 152 -75 147
-9 -3 -131 -32 -271 -64 -287 -66 -255 -45 -284 -183 -17 -79 -20 -84 -42 -70
-17 11 27 224 48 231 24 8 553 128 572 130 13 1 25 -15 42 -52z m-1731 27 c4
-9 5 -18 3 -20 -1 -2 -52 -15 -112 -29 -106 -25 -124 -24 -125 7 0 4 44 16 98
28 53 12 102 23 107 25 19 6 23 5 29 -11z m816 -33 c0 -5 10 -11 23 -15 36 -9
49 -47 27 -76 -17 -22 -17 -27 -3 -55 8 -16 25 -40 36 -52 24 -27 17 -29 -22
-8 -33 16 -41 33 -41 80 0 19 -3 36 -7 38 -5 3 -129 -24 -278 -59 -148 -35
-436 -100 -638 -144 -202 -45 -408 -91 -457 -104 -77 -19 -94 -20 -120 -9 -39
16 -46 37 -25 69 23 36 53 46 295 98 118 26 411 91 650 145 411 94 560 118
560 92z m8248 -93 c5 -7 19 -34 30 -59 l20 -46 -229 -57 c-126 -31 -235 -56
-242 -56 -18 0 -71 96 -57 105 6 3 60 17 121 30 l110 23 25 -38 c30 -45 45
-53 78 -40 31 11 40 40 27 87 -6 21 -11 41 -11 45 0 17 114 23 128 6z m-9938
-70 c50 -34 71 -69 72 -116 1 -81 -62 -136 -150 -129 -81 6 -152 72 -152 142
0 38 36 95 70 112 42 21 122 16 160 -9z m7530 -41 c0 -1 47 -106 105 -232
l105 -230 -48 -21 -47 -22 -17 33 c-50 94 -178 395 -178 417 0 27 32 57 63 57
9 1 17 0 17 -2z m2784 -97 c-11 -9 -855 -220 -884 -220 -12 0 -28 16 -44 42
l-25 43 22 8 c22 9 679 173 797 200 l65 15 39 -40 c21 -22 34 -43 30 -48z
m-8574 30 c69 -24 173 -72 204 -96 13 -9 17 -17 10 -24 -6 -6 -37 4 -89 30
-180 88 -367 108 -585 61 -116 -24 -617 -136 -805 -179 l-120 -27 -30 -92
c-17 -51 -34 -95 -37 -98 -4 -4 -9 8 -13 26 -4 24 3 60 22 118 l28 85 100 22
c55 11 195 42 310 67 663 146 607 137 790 133 123 -3 162 -7 215 -26z m-2226
-13 c9 -15 7 -21 -8 -33 -25 -18 -41 -18 -60 2 -12 12 -13 20 -5 35 13 25 57
22 73 -4z m11936 -52 c40 -21 53 -54 40 -108 -10 -48 -40 -77 -80 -77 -44 0
-56 22 -41 80 11 42 10 54 -3 81 -12 24 -13 33 -3 44 13 13 30 9 87 -20z
m-9742 -50 c80 -23 222 -99 277 -147 25 -22 59 -59 75 -82 106 -155 90 -397
-37 -537 -20 -22 -34 -41 -32 -43 2 -2 69 -57 149 -121 309 -251 362 -298 345
-308 -17 -9 -425 -107 -447 -107 -8 0 -86 54 -174 121 -87 66 -182 133 -209
149 l-51 29 -124 -30 c-69 -16 -142 -34 -162 -40 l-37 -10 30 -82 c17 -45 46
-125 64 -177 18 -52 36 -102 39 -111 5 -12 0 -18 -21 -22 -15 -4 -106 -24
-200 -47 -95 -22 -175 -40 -177 -40 -5 0 -6 5 -117 300 -50 135 -115 308 -144
385 -29 77 -102 272 -164 433 -61 162 -111 297 -111 302 0 4 19 10 43 14 23 4
213 45 422 91 395 87 476 103 535 107 54 4 165 -9 228 -27z m9486 19 c23 -23
20 -61 -5 -67 -35 -9 -77 51 -52 76 11 12 41 7 57 -9z m-11877 -64 c3 -11 10
-20 15 -20 5 0 6 -4 3 -10 -11 -18 -32 -11 -43 15 -15 33 -15 35 4 35 9 0 18
-9 21 -20z m217 4 c8 -21 8 -39 -1 -31 -3 4 -12 2 -19 -4 -16 -13 -54 5 -54
27 0 8 4 13 9 9 5 -3 12 -1 16 5 10 16 42 12 49 -6z m590 -71 c-27 -7 -52 -13
-56 -13 -14 0 -8 28 7 34 8 3 12 12 9 20 -10 27 39 25 65 -3 l24 -25 -49 -13z
m9876 12 c10 -12 10 -18 0 -30 -15 -19 -29 -19 -54 0 -16 12 -17 17 -6 30 16
19 44 19 60 0z m770 -25 c0 -11 -4 -20 -10 -20 -5 0 -14 9 -20 20 -9 17 -8 20
10 20 13 0 20 -7 20 -20z m-11508 -16 c-20 -26 -23 -26 -16 2 3 11 12 21 19
21 10 0 10 -6 -3 -23z m11453 9 c-2 -8 9 -22 25 -32 26 -15 28 -20 16 -30 -24
-20 -76 12 -76 47 0 21 5 28 20 28 13 0 19 -5 15 -13z m-11237 -23 c30 -18 32
-22 17 -36 -14 -14 -13 -17 4 -32 11 -9 23 -29 27 -44 6 -28 6 -28 -61 -54
-19 -7 -19 -8 3 -12 33 -5 22 -25 -20 -36 -50 -12 -96 15 -125 74 -19 38 -21
51 -13 82 21 73 99 100 168 58z m-533 -1 c7 -10 -54 -148 -66 -149 -6 0 -46
100 -50 125 -5 26 102 48 116 24z m8482 -23 c19 -36 108 -136 122 -136 13 0
75 -160 65 -170 -5 -5 -20 -11 -34 -15 -24 -6 -28 -1 -52 57 -15 35 -49 116
-76 181 -49 116 -59 149 -25 83z m-8178 -56 c1 -13 0 -13 -9 0 -5 8 -9 26 -9
40 l1 25 8 -25 c4 -14 8 -32 9 -40z m-29 23 c0 -5 -4 -14 -9 -21 -7 -11 -9
-11 -14 1 -3 8 -3 18 0 21 9 8 23 7 23 -1z m9971 -14 c154 -50 217 -117 335
-357 104 -212 198 -422 213 -477 26 -93 7 -230 -40 -299 -43 -64 -113 -93
-384 -162 -203 -52 -333 -19 -466 116 -56 57 -79 90 -123 182 -116 242 -182
438 -190 567 -5 71 -5 73 5 26 42 -208 113 -416 202 -589 97 -190 232 -297
383 -304 40 -2 80 0 89 5 12 7 0 10 -44 12 -112 3 -216 58 -305 162 -48 56
-120 205 -186 383 -64 175 -89 276 -96 396 -8 110 2 144 62 209 55 62 105 87
239 120 144 36 219 38 306 10z m-9544 -66 c-3 -10 -5 -4 -5 12 0 17 2 24 5 18
2 -7 2 -21 0 -30z m5902 -41 c72 -172 141 -345 139 -347 -12 -9 -102 -24 -108
-18 -16 19 -140 328 -140 350 0 28 41 73 67 73 12 0 25 -18 42 -58z m2609 15
c2 -10 -3 -17 -11 -17 -16 0 -30 24 -19 34 10 10 27 1 30 -17z m1717 13 c11
-17 -84 -170 -106 -170 -14 0 -11 38 8 73 46 91 81 125 98 97z m1970 -19 c4
-14 11 -18 23 -14 14 6 15 4 5 -8 -10 -13 -9 -20 8 -37 15 -17 16 -22 5 -22
-13 0 -66 75 -66 93 0 15 19 6 25 -12z m-12191 -74 c-16 -12 -32 -21 -36 -19
-5 1 -8 -3 -8 -10 0 -9 -3 -9 -11 -1 -8 8 -5 24 12 60 l24 48 24 -28 23 -27
-28 -23z m12173 24 c13 -19 20 -37 17 -40 -4 -3 -11 2 -18 12 -25 41 -33 50
-45 46 -8 -3 -5 -11 9 -26 25 -28 25 -39 -1 -53 -26 -14 -43 -8 -64 23 -19 30
-11 53 23 66 40 14 54 9 79 -28z m-12529 -20 c21 -22 50 -42 65 -45 15 -3 39
-8 53 -11 34 -7 25 -31 -11 -28 -15 1 -25 -1 -22 -4 4 -3 2 -14 -4 -25 -13
-25 -39 -7 -32 22 4 14 -2 23 -23 32 -16 7 -38 21 -48 30 -10 10 -22 15 -27
13 -4 -3 -14 8 -22 25 -15 29 -15 30 9 30 16 0 38 -14 62 -39z m12312 15 c0
-12 6 -12 35 -3 40 12 40 13 60 -36 19 -45 4 -50 -16 -6 -8 18 -18 30 -24 28
-11 -4 -11 -8 -1 -54 7 -28 6 -28 -14 8 -25 45 -34 47 -25 7 9 -41 -1 -38 -20
6 -17 42 -19 64 -5 64 6 0 10 -6 10 -14z m-51 -64 c11 -24 21 -32 39 -32 30 0
27 -5 -9 -13 -22 -6 -27 -2 -38 28 -7 19 -19 35 -27 35 -18 0 -18 -4 2 -41 24
-47 10 -45 -18 2 -30 51 -45 38 -18 -14 11 -21 16 -37 10 -37 -8 0 -50 70 -50
84 0 7 62 25 80 23 8 -1 21 -17 29 -35z m-117 -31 c20 -39 16 -51 -15 -51 -15
0 -29 11 -40 30 -10 17 -23 30 -28 30 -11 0 -2 -39 12 -54 12 -13 11 -26 -1
-26 -10 0 -54 79 -48 85 2 2 15 5 30 7 15 2 31 7 35 11 14 15 38 1 55 -32z
m-132 5 c0 -3 -4 -8 -10 -11 -5 -3 -10 -1 -10 4 0 6 5 11 10 11 6 0 10 -2 10
-4z m-89 -56 c33 -61 20 -67 -16 -7 -26 46 -30 57 -17 57 4 0 19 -23 33 -50z
m72 5 c15 -42 15 -45 -1 -44 -20 1 -78 66 -68 76 4 4 18 -6 31 -22 l24 -30 -9
33 c-13 49 6 38 23 -13z m617 19 c0 -9 5 -12 12 -8 6 4 8 3 5 -3 -10 -15 13
-75 27 -70 6 3 10 9 9 15 -2 7 8 9 26 6 16 -4 32 -1 35 5 5 7 -3 11 -21 11
-42 0 -61 15 -47 37 15 24 47 28 64 8 11 -13 9 -14 -19 -9 -19 4 -31 2 -31 -4
0 -6 17 -12 37 -14 25 -2 39 -8 41 -19 3 -18 -41 -41 -63 -33 -8 4 -15 1 -15
-5 0 -6 -9 -11 -20 -11 -13 0 -25 14 -40 46 -22 50 -26 79 -10 69 6 -3 10 -13
10 -21z m-815 -60 c28 -63 28 -64 17 -64 -5 0 -17 19 -27 43 -11 23 -20 43
-21 45 -1 2 -12 -2 -24 -8 -18 -10 -21 -9 -18 2 3 7 10 14 16 14 7 1 18 2 25
3 8 1 7 4 -3 11 -10 7 -11 10 -2 10 7 0 23 -25 37 -56z m86 26 c10 -14 20 -37
23 -51 4 -25 2 -26 -27 -20 -41 8 -82 75 -57 91 22 14 40 8 61 -20z m499 -2
c0 -7 11 -37 25 -67 22 -47 27 -76 9 -58 -13 13 -53 137 -44 137 6 0 10 -6 10
-12z m194 -3 c26 -27 30 -57 10 -72 -23 -17 -66 -13 -72 5 -3 11 0 12 16 3 24
-13 52 -5 52 15 0 8 -6 11 -15 8 -26 -10 -65 5 -65 25 0 31 48 42 74 16z
m-935 -55 c40 -74 24 -80 -18 -6 -33 57 -36 66 -22 66 4 0 23 -27 40 -60z m89
11 c26 -46 26 -47 7 -55 -36 -14 -91 38 -80 75 11 34 49 24 73 -20z m-156 -21
c16 -34 29 -49 43 -50 17 0 17 -2 5 -10 -28 -18 -39 -10 -68 50 -18 39 -24 60
-16 60 7 0 23 -22 36 -50z m903 39 c10 -15 -3 -25 -16 -12 -6 6 -18 9 -25 6
-26 -10 -14 -22 23 -25 25 -2 39 -8 41 -19 4 -21 -46 -35 -62 -19 -8 9 -7 11
4 10 28 -4 41 0 34 11 -3 6 -16 8 -29 5 -27 -7 -42 19 -24 40 14 17 45 18 54
3z m-951 -57 c24 -57 24 -67 -1 -64 -13 2 -23 -2 -23 -7 0 -14 -46 -14 -71 0
-23 12 -49 66 -42 86 3 7 19 13 36 13 27 0 29 -1 14 -13 -15 -10 -16 -17 -6
-45 7 -21 18 -32 30 -32 22 0 25 26 7 65 -10 21 -9 28 2 35 21 13 36 2 54 -38z
m856 9 c14 -34 7 -51 -20 -51 -10 0 -20 -6 -23 -12 -5 -13 -21 22 -33 67 -6
23 -3 25 29 25 29 0 37 -5 47 -29z m-90 -21 c14 -35 11 -40 -33 -55 -22 -7
-31 -16 -29 -28 5 -31 -17 -18 -43 26 -32 55 -31 62 3 64 23 2 24 0 11 -9 -24
-16 -5 -58 22 -51 22 6 23 8 8 34 -15 28 -4 49 24 49 18 0 28 -8 37 -30z
m-11235 -12 c4 -18 12 -39 18 -46 5 -7 8 -14 6 -16 -2 -2 -114 -29 -249 -60
-135 -30 -438 -101 -673 -157 l-429 -101 -24 23 c-26 25 -31 51 -11 67 10 9
623 156 1127 271 96 21 184 41 195 44 11 3 23 5 27 6 3 0 10 -14 13 -31z
m11050 -45 c15 -35 15 -39 -1 -50 -24 -18 -30 -16 -48 9 -18 25 -13 38 16 38
17 0 18 3 8 15 -9 11 -17 12 -31 4 -10 -5 -19 -6 -19 -1 0 15 12 22 37 22 17
0 27 -9 38 -37z m-150 -23 c10 -23 26 -45 34 -50 14 -8 14 -9 -1 -10 -10 0
-24 14 -33 30 -21 41 -48 42 -32 1 15 -39 -4 -63 -47 -59 -64 6 -67 88 -3 88
38 0 62 13 53 29 -4 6 -3 11 2 11 5 0 17 -18 27 -40z m68 5 c19 -39 21 -55 9
-55 -4 0 -14 16 -21 35 -7 19 -17 35 -22 35 -5 0 -9 5 -9 10 0 23 28 7 43 -25z
m-4134 -12 c21 -20 70 -117 162 -323 357 -796 344 -763 319 -809 -14 -27 -57
-42 -402 -136 -1260 -347 -1526 -420 -1828 -505 -528 -148 -506 -143 -545
-124 -18 8 -40 25 -48 37 -13 20 -285 651 -421 975 -59 140 -71 207 -41 232 8
7 70 25 137 40 224 51 328 77 938 229 333 83 614 154 625 156 77 19 781 201
870 225 144 38 195 39 234 3z m1025 5 c14 -13 62 -104 111 -213 251 -554 296
-658 293 -678 -4 -30 -71 -63 -101 -50 -19 9 -18 10 10 10 33 0 83 26 83 43 0
7 -6 7 -17 0 -10 -5 -54 -19 -98 -30 -186 -49 -464 -120 -471 -120 -5 0 -2 -5
6 -10 12 -8 10 -10 -8 -10 -16 0 -21 4 -16 13 6 9 4 9 -8 -1 -13 -10 -17 -10
-22 0 -3 7 -4 0 -2 -15 3 -26 3 -27 -15 -11 -11 9 -19 22 -19 28 0 6 5 4 10
-4 5 -8 10 -11 10 -6 0 4 -11 22 -26 38 -14 17 -23 37 -20 45 3 8 2 12 -2 9
-8 -4 -35 52 -203 429 -158 355 -163 370 -131 397 14 13 560 156 599 158 7 0
23 -10 37 -22z m2321 -7 c-12 -11 -330 -101 -357 -101 -33 0 -19 19 25 31 254
70 353 91 332 70z m420 -75 c20 -45 22 -57 10 -53 -8 4 -15 2 -15 -3 0 -6 -8
-10 -18 -10 -17 0 -52 55 -52 80 0 23 16 7 33 -32 13 -32 20 -39 29 -30 9 9 8
18 -2 39 -7 16 -14 33 -16 38 -1 6 -5 19 -10 30 -16 44 16 -2 41 -59z m142 60
c-3 -7 3 -27 14 -45 14 -23 15 -31 5 -31 -7 0 -18 11 -24 25 -7 14 -19 28 -27
31 -22 9 -18 22 8 27 12 2 24 5 26 6 2 0 1 -5 -2 -13z m-235 -67 c15 -34 25
-66 22 -70 -3 -5 -21 -9 -39 -9 -28 0 -37 6 -50 31 -9 17 -15 38 -13 47 3 12
11 4 26 -25 39 -75 65 -47 33 35 -29 73 -11 65 21 -9z m184 26 c16 -40 18 -55
5 -55 -5 0 -12 12 -16 28 -3 15 -14 35 -22 45 -15 15 -15 17 1 17 10 0 23 -14
32 -35z m-44 -20 c13 -35 14 -45 4 -45 -7 0 -18 17 -24 39 -14 45 -15 51 -4
51 4 0 15 -20 24 -45z m-8688 -118 c77 -62 183 -146 234 -186 91 -72 107 -91
76 -91 -28 0 -466 349 -472 376 -7 30 26 10 162 -99z m8151 63 c3 -6 -5 -10
-19 -10 -14 0 -60 -11 -103 -25 -74 -23 -112 -31 -101 -20 6 6 189 64 205 64
6 1 15 -3 18 -9z m-10383 -44 l16 -33 -86 -18 c-78 -16 -357 -81 -639 -148
l-102 -24 -25 30 c-14 17 -24 32 -22 34 3 4 238 60 636 153 91 21 174 39 186
39 14 1 25 -10 36 -33z m9937 -23 c-10 -26 -12 -26 -19 -8 -4 11 -2 30 3 43
16 34 30 2 16 -35z m327 1 c-44 -13 -87 -24 -95 -23 -22 1 129 48 154 48 11 0
-16 -11 -59 -25z m219 -4 c-44 -3 -141 -21 -217 -40 l-136 -34 -6 -37 c-13
-81 -115 -119 -168 -61 -30 32 -58 73 -58 84 0 5 13 8 28 8 22 0 33 -8 50 -39
29 -52 42 -61 71 -50 17 7 21 13 14 20 -8 8 -7 22 4 48 17 39 31 53 50 47 6
-3 74 10 150 29 102 25 159 33 218 33 l80 -1 -80 -7z m-425 -95 c-10 -27 -11
-27 -25 -9 -20 26 -19 32 8 36 29 5 29 5 17 -27z m-9645 -1 c0 -10 6 -25 13
-32 6 -7 12 -19 12 -27 0 -14 -215 -69 -755 -195 -137 -32 -332 -79 -433 -103
l-183 -45 -26 34 c-52 70 -96 55 832 273 424 99 517 120 530 117 6 -2 10 -11
10 -22z m-541 -7 c9 -15 7 -22 -13 -38 -28 -23 -45 -24 -65 -3 -20 20 -20 29
0 49 21 20 63 16 78 -8z m-825 -58 c17 -6 31 -12 31 -14 0 -2 -12 -17 -27 -33
-53 -56 -107 -69 -115 -28 -8 39 11 59 78 86 1 0 15 -5 33 -11z m1409 -98 c8
-5 12 -16 10 -26 -2 -13 -26 -24 -88 -41 -196 -54 -1032 -255 -1053 -253 -50
5 -77 -2 -103 -26 -49 -45 -142 -26 -115 24 6 10 25 22 43 26 18 3 260 62 538
130 799 195 742 183 768 166z m1250 -286 c46 -115 116 -295 157 -400 40 -104
132 -343 205 -530 72 -187 138 -346 145 -354 12 -13 33 -9 152 22 283 76 1359
345 1392 349 31 3 35 0 47 -34 7 -20 14 -52 16 -70 3 -29 0 -33 -22 -36 -14
-2 -133 -31 -265 -64 -232 -57 -461 -108 -474 -106 -3 1 -13 -1 -21 -5 -53
-20 -747 -187 -779 -187 -75 0 -141 35 -141 75 0 12 -9 39 -19 61 -10 21 -58
140 -106 264 -48 124 -137 351 -197 505 -212 544 -269 697 -264 712 4 10 18
13 48 11 l42 -3 84 -210z m-1117 -92 c0 -10 1 -33 2 -51 2 -29 -1 -33 -33 -42
-45 -12 -421 -101 -565 -134 -60 -14 -119 -28 -130 -31 -16 -5 -25 2 -44 35
-13 23 -19 45 -15 50 7 6 327 85 749 183 34 8 35 8 36 -10z m7824 -102 c17 -7
17 -8 -8 -15 -15 -3 -35 -2 -45 4 -13 8 -11 9 13 4 23 -4 26 -3 15 5 -17 12
-4 13 25 2z m-119 -44 c-47 -13 -72 -15 -79 -8 -7 7 -3 8 10 5 12 -3 24 -1 27
5 4 5 14 7 23 4 10 -4 14 -2 10 4 -5 7 0 9 13 6 11 -3 20 -1 20 5 0 6 10 8 22
4 17 -4 6 -10 -46 -25z m-88 -22 c-7 -6 -231 -66 -235 -62 -2 2 41 17 94 32
54 15 105 31 113 35 13 7 37 3 28 -5z m-255 -72 c-7 -2 -19 -2 -25 0 -7 3 -2
5 12 5 14 0 19 -2 13 -5z m-8458 -73 c3 -4 -6 -10 -18 -14 -13 -3 -38 -27 -55
-53 -45 -68 -53 -77 -85 -91 -35 -15 -37 -15 -37 2 0 13 58 90 111 146 19 21
32 27 52 23 15 -3 29 -9 32 -13z m3796 5 c44 -16 83 -46 100 -76 13 -25 -103
-99 -154 -99 -55 0 -111 53 -111 105 0 74 70 103 165 70z m834 -56 c9 -28 15
-53 12 -55 -3 -3 -65 -20 -138 -39 -150 -37 -514 -132 -541 -141 -15 -4 -18 1
-18 29 0 30 -3 34 -20 30 -10 -3 -19 -8 -18 -12 6 -50 -18 -53 -38 -5 -27 65
-9 80 126 104 36 6 187 41 335 78 149 38 273 67 277 65 3 -2 14 -26 23 -54z
m-1458 43 c7 -4 9 -13 5 -19 -4 -6 -152 -49 -329 -95 -306 -80 -323 -84 -329
-65 -3 11 -1 23 5 26 6 4 111 31 234 60 122 30 260 64 307 76 102 28 92 26
107 17z m-2218 -62 c5 -16 14 -30 18 -30 5 0 14 -13 20 -29 10 -28 9 -30 -20
-40 -38 -14 -57 -14 -57 0 0 5 -9 31 -21 56 -24 53 -19 61 43 72 3 0 11 -12
17 -29z m-741 -12 c20 -20 14 -56 -9 -63 -32 -11 -65 25 -50 54 13 23 40 28
59 9z m576 -53 c14 -27 26 -55 26 -62 0 -15 -68 -29 -79 -17 -16 20 -43 116
-35 124 12 11 47 18 55 11 4 -3 18 -28 33 -56z m2562 43 c6 -4 21 -39 34 -77
24 -69 24 -70 5 -91 -19 -20 -20 -21 -33 -3 -15 19 -46 87 -67 143 l-12 35 31
0 c17 0 36 -3 42 -7z m-2756 -89 c16 -34 30 -62 30 -64 0 -3 -59 -25 -67 -25
-6 0 -53 108 -53 124 0 13 16 22 47 25 7 0 26 -26 43 -60z m2548 17 c2 -18 0
-26 -7 -21 -6 3 -14 -1 -17 -9 -5 -12 -19 -15 -63 -14 -42 2 -102 -11 -236
-49 -249 -70 -242 -69 -250 -43 -4 12 -5 24 -2 26 2 2 111 31 241 64 130 33
245 64 254 70 9 5 31 9 47 7 25 -2 31 -7 33 -31z m-2723 -61 c15 -36 25 -68
23 -71 -3 -3 -21 -7 -41 -11 -34 -5 -35 -5 -55 48 -11 30 -23 62 -27 71 -5 13
0 17 27 21 18 2 36 5 39 5 3 1 19 -27 34 -63z m4211 -9 c1 -22 -8 -26 -141
-61 -172 -45 -173 -45 -157 -80 10 -21 10 -26 0 -23 -19 7 -39 90 -24 105 11
12 307 92 316 86 2 -2 5 -14 6 -27z m36 9 c3 -15 1 -25 -6 -25 -6 0 -12 11
-12 25 -2 32 12 32 18 0z m-2389 -27 c4 -12 2 -25 -3 -28 -6 -3 -64 -19 -130
-35 -123 -29 -151 -28 -137 9 6 14 91 44 187 64 68 15 77 14 83 -10z m1517
-39 c0 -30 -50 -43 -101 -27 -21 7 -25 14 -21 33 2 14 10 25 17 25 7 0 26 7
41 15 27 14 30 14 47 -6 9 -12 17 -30 17 -40z m422 -61 c6 -24 18 -53 26 -65
13 -21 12 -22 -30 -33 -24 -6 -56 -15 -73 -20 -63 -19 -271 -70 -286 -70 -23
0 -76 137 -60 153 7 7 47 15 89 18 42 3 120 18 172 32 137 37 146 36 162 -15z
m-622 7 c0 -14 -2 -25 -4 -25 -10 0 -386 -96 -626 -160 -145 -38 -270 -70
-276 -70 -11 0 -27 40 -19 48 12 12 860 231 898 232 22 0 27 -4 27 -25z m-810
-13 c28 -14 35 -23 35 -47 0 -21 -5 -31 -18 -33 -23 -5 -47 15 -47 39 0 23 -7
23 -76 3 -57 -16 -89 -13 -82 8 4 10 110 45 143 47 6 0 26 -8 45 -17z m214 2
c26 -26 20 -63 -11 -70 -20 -6 -31 -2 -45 16 -10 12 -18 26 -18 30 0 13 30 40
45 40 7 0 21 -7 29 -16z m-666 -35 c3 -26 0 -28 -85 -48 -48 -12 -200 -50
-338 -85 l-250 -63 -32 21 -31 21 31 13 c47 20 659 172 682 169 13 -1 21 -11
23 -28z m-1393 -11 c63 -16 146 -62 201 -111 l50 -45 54 14 c179 46 369 -43
447 -211 25 -53 28 -72 28 -155 0 -88 -20 -175 -32 -142 -3 6 -10 9 -16 5 -7
-4 -8 0 -3 13 48 124 17 270 -77 364 -100 99 -238 131 -371 84 l-39 -14 -56
54 c-66 62 -113 88 -198 110 -187 49 -395 -26 -480 -172 -15 -25 -34 -72 -43
-106 -16 -57 -19 -61 -53 -68 -147 -31 -255 -163 -265 -325 -5 -83 -23 -95
-29 -20 -14 157 97 320 247 364 55 17 59 20 65 53 17 94 96 206 180 255 111
66 261 86 390 53z m3808 -35 c3 -16 5 -28 4 -28 -9 -1 -313 -78 -321 -81 -7
-3 -16 8 -22 23 l-10 28 161 42 c88 22 165 42 171 42 7 1 14 -11 17 -26z
m-1031 -10 c6 -16 18 -43 27 -60 15 -31 14 -34 -4 -52 -11 -10 -32 -21 -47
-25 -25 -6 -30 -2 -52 41 -13 27 -31 57 -39 67 -14 19 -15 19 -26 -2 -7 -14
-28 -26 -56 -33 -25 -6 -47 -15 -50 -19 -3 -4 2 -27 10 -51 12 -34 13 -44 3
-51 -25 -15 -38 -7 -63 40 -27 53 -49 82 -59 82 -4 0 -5 -4 -2 -9 3 -5 -1 -14
-9 -21 -8 -7 -13 -16 -10 -20 3 -4 -15 -11 -40 -14 -24 -4 -47 -11 -50 -15 -2
-5 1 -29 9 -55 13 -42 13 -46 -5 -51 -26 -9 -36 0 -64 56 -14 27 -29 49 -34
49 -4 0 -18 -8 -30 -19 -11 -10 -40 -21 -62 -25 -38 -6 -41 -8 -35 -32 19 -73
19 -81 -3 -87 -23 -6 -30 1 -60 61 -16 32 -27 42 -46 42 -17 0 -23 -4 -19 -14
4 -10 -6 -18 -33 -25 -21 -6 -43 -11 -50 -11 -20 0 -23 -15 -12 -55 8 -29 8
-40 -3 -46 -22 -14 -25 -11 -60 60 l-35 69 121 32 c67 17 162 41 211 52 50 11
95 24 100 28 6 4 30 11 55 15 25 4 86 19 135 35 119 36 324 88 353 89 16 1 26
-7 34 -26z m-3566 -48 c25 -15 44 -28 42 -30 -2 -3 -30 3 -62 11 -63 16 -76
14 -56 -12 8 -9 23 -14 37 -11 26 5 53 -15 53 -39 0 -31 -67 -6 -111 43 -21
22 -49 80 -49 99 0 8 102 -35 146 -61z m790 -30 c66 -20 135 -73 174 -134 19
-28 34 -51 35 -51 2 0 29 12 61 26 128 56 243 39 330 -50 77 -79 90 -168 39
-266 -20 -39 -88 -95 -138 -113 -39 -15 -269 -73 -723 -181 -280 -67 -358 -61
-460 38 -88 86 -103 185 -42 284 31 50 97 90 185 110 l78 18 6 59 c3 33 14 78
25 100 36 76 123 145 209 166 53 13 170 9 221 -6z m1442 -17 c4 -20 0 -21
-298 -96 -305 -77 -316 -79 -329 -54 -10 18 -3 21 92 46 306 79 494 125 512
123 11 -1 21 -9 23 -19z m46 -114 c4 -15 6 -28 4 -29 -5 -4 -211 -56 -212 -53
-1 2 -7 15 -13 29 -11 26 -11 27 50 43 70 18 137 34 153 35 7 1 15 -11 18 -25z
m2387 -15 c-5 -13 -10 -19 -10 -13 -1 13 -52 5 -87 -14 -20 -10 -88 -22 -160
-27 -17 -1 -37 -5 -43 -10 -7 -4 -17 -3 -22 2 -12 12 47 27 64 16 5 -3 7 -2 4
4 -4 6 29 19 82 32 48 12 107 28 132 35 48 15 54 11 40 -25z m-2688 -89 c-4
-4 -20 -10 -34 -14 -21 -4 -28 -1 -37 20 -16 33 -16 32 21 42 28 8 34 6 45
-16 8 -13 10 -28 5 -32z m2357 16 c0 -2 -7 -6 -15 -10 -8 -3 -15 -1 -15 4 0 6
7 10 15 10 8 0 15 -2 15 -4z m-1991 -84 c17 -43 31 -81 31 -84 0 -3 -14 -11
-31 -17 -30 -10 -30 -10 -55 46 -14 31 -32 69 -40 84 -14 28 -14 29 18 38 18
5 36 10 39 10 4 1 21 -34 38 -77z m1886 68 c-3 -5 -12 -10 -18 -10 -7 0 -6 4
3 10 19 12 23 12 15 0z m-46 -31 c-20 -12 -31 -11 -23 2 4 7 -6 2 -22 -9 -16
-12 -48 -23 -71 -24 -24 -2 -43 -6 -43 -10 0 -5 -4 -8 -10 -8 -5 0 -10 4 -10
10 0 11 66 41 84 38 6 0 22 3 36 9 38 16 65 20 69 10 2 -5 -3 -13 -10 -18z
m-1949 -126 c28 -71 69 -172 91 -225 l41 -96 -16 -61 c-35 -136 -74 -176 -211
-216 -171 -50 -631 -165 -658 -165 -32 0 -46 25 -26 44 8 7 154 48 324 91 385
96 464 120 494 150 22 21 23 27 12 51 l-12 27 -22 -20 c-12 -11 -33 -26 -46
-33 -13 -6 -305 -83 -649 -170 -611 -155 -627 -158 -654 -142 -57 34 -43 40
267 122 149 40 320 85 380 102 61 17 220 59 355 94 314 82 307 80 326 116 19
37 18 41 -62 254 -35 94 -64 176 -64 181 0 10 60 32 71 27 4 -2 30 -61 59
-131z m1760 83 c0 -12 -60 -34 -191 -72 -12 -3 -18 -22 -23 -67 -4 -46 -11
-67 -27 -79 -33 -27 -41 -22 -32 20 4 20 7 63 6 94 -2 55 -1 58 25 64 15 4 68
17 117 30 106 27 125 29 125 10z m-509 -55 l24 -19 -40 -10 c-22 -6 -65 -16
-95 -22 -30 -7 -75 -18 -100 -26 -25 -7 -119 -31 -210 -54 -91 -23 -187 -48
-213 -57 -53 -17 -52 -17 -61 14 -6 19 -2 24 21 30 129 33 639 161 644 162 4
1 17 -8 30 -18z m-947 -231 c47 -17 30 -90 -20 -90 -41 0 -63 51 -36 83 18 20
22 20 56 7z m-834 -54 c0 -27 -21 -71 -47 -98 -24 -25 -89 -55 -98 -46 -3 2
10 25 28 50 18 25 40 60 49 77 12 22 24 31 43 31 15 0 25 -6 25 -14z m-296
-585 c38 -42 -22 -94 -64 -56 -11 10 -20 26 -20 35 0 40 54 54 84 21z m-200
-57 c9 -8 16 -22 16 -29 0 -20 -28 -45 -50 -45 -23 0 -50 26 -50 49 0 39 54
55 84 25z m-244 -64 c24 -24 25 -34 4 -54 -29 -29 -84 -14 -84 23 0 19 29 51
47 51 7 0 22 -9 33 -20z"/>
<path d="M13316 9200 c-46 -14 -93 -52 -117 -93 -78 -140 117 -395 341 -447
198 -46 348 32 313 162 -9 35 -9 38 6 33 35 -14 71 -17 71 -7 0 18 -35 32 -80
32 -50 0 -124 36 -165 80 l-30 33 40 -5 c22 -3 56 0 75 7 34 12 37 11 74 -24
33 -30 36 -31 18 -7 -12 15 -19 32 -16 37 3 5 2 9 -3 7 -4 -1 -29 19 -56 45
-112 111 -347 184 -471 147z m153 -56 c2 -2 -18 -4 -46 -4 -63 0 -103 -27
-103 -71 0 -34 60 -105 119 -141 20 -12 50 -34 68 -49 64 -55 135 -58 174 -8
15 20 16 20 59 -13 58 -45 67 -60 52 -93 -33 -72 -200 -86 -326 -27 -125 59
-216 177 -216 281 0 42 5 56 30 85 34 39 85 56 145 49 22 -3 42 -7 44 -9z
m-27 -98 c15 -28 27 -96 17 -96 -12 0 -92 64 -96 77 -6 18 34 54 52 47 9 -4
21 -16 27 -28z m176 -134 c2 -12 -1 -22 -6 -22 -14 0 -43 36 -35 44 14 13 38
1 41 -22z"/>
<path d="M12470 8835 c-19 -23 2 -65 33 -65 45 0 65 50 28 70 -27 14 -46 13
-61 -5z"/>
<path d="M10251 8085 c6 -28 55 -50 83 -37 19 9 17 10 -13 9 -25 0 -40 7 -54
24 -17 21 -19 22 -16 4z"/>
<path d="M9893 8349 c-24 -9 -28 -17 -15 -34 4 -6 15 -2 29 12 25 26 19 35
-14 22z"/>
<path d="M9910 8286 c0 -34 25 -52 58 -40 30 10 41 42 20 55 -7 5 -28 9 -45 9
-28 0 -33 -4 -33 -24z"/>
<path d="M10834 8489 c-3 -6 -1 -16 5 -22 8 -8 11 -6 11 6 0 20 26 23 33 5 2
-7 8 -10 12 -6 12 12 -5 28 -30 28 -13 0 -27 -5 -31 -11z"/>
<path d="M8645 8315 c-517 -103 -773 -153 -1280 -250 -288 -55 -285 -54 -297
-80 -8 -18 0 -48 45 -166 149 -387 386 -1010 404 -1058 11 -30 27 -60 36 -65
12 -7 68 1 204 32 248 55 1433 306 1846 390 130 27 240 52 243 55 7 7 -102
274 -348 850 -81 192 -148 352 -148 356 0 4 -9 17 -20 29 -16 17 -32 22 -68
21 -26 0 -303 -52 -617 -114z m141 -232 c-3 -3 -17 4 -32 16 -15 11 -23 21
-19 21 5 0 17 -7 27 -17 17 -15 18 -15 19 8 l2 24 4 -23 c3 -13 2 -26 -1 -29z
m21 10 c-3 -10 -5 -4 -5 12 0 17 2 24 5 18 2 -7 2 -21 0 -30z m-163 -18 c-9
-14 -19 -23 -22 -20 -5 4 26 45 35 45 2 0 -4 -11 -13 -25z m476 -1 c0 -8 -5
-12 -10 -9 -6 4 -8 11 -5 16 9 14 15 11 15 -7z m27 -16 c-3 -7 -5 -2 -5 12 0
14 2 19 5 13 2 -7 2 -19 0 -25z m-609 4 c2 -7 -1 -12 -8 -12 -6 0 -8 5 -5 10
3 6 1 10 -6 10 -7 0 -9 -10 -7 -25 3 -13 1 -22 -3 -19 -11 6 -12 38 -2 48 9 9
26 2 31 -12z m438 -40 c-4 -3 -12 0 -18 6 -9 9 -9 12 0 12 7 0 13 8 13 18 1
10 3 8 6 -6 3 -13 2 -26 -1 -30z m41 26 c-3 -8 -6 -5 -6 6 -1 11 2 17 5 13 3
-3 4 -12 1 -19z m77 6 c3 -8 2 -12 -4 -9 -6 3 -10 10 -10 16 0 14 7 11 14 -7z
m-614 -26 c0 -5 -7 -3 -15 6 -8 8 -15 18 -15 22 0 3 7 1 15 -6 8 -7 15 -17 15
-22z m-54 -7 c-8 -13 -36 -15 -36 -3 0 4 5 13 12 20 14 14 34 0 24 -17z m434
-1 c12 -23 12 -24 -3 -11 -10 7 -17 10 -17 6 0 -5 -2 -6 -5 -3 -3 3 -3 13 1
22 7 19 7 19 24 -14z m-502 -11 c-3 -8 -7 -3 -11 10 -4 17 -3 21 5 13 5 -5 8
-16 6 -23z m1006 15 c3 -8 2 -12 -4 -9 -6 3 -10 10 -10 16 0 14 7 11 14 -7z
m-1114 -40 c0 -3 -7 -1 -15 6 -8 7 -15 17 -15 22 0 5 7 3 15 -6 8 -8 15 -18
15 -22z m60 26 c0 -5 -5 -10 -11 -10 -5 0 -7 5 -4 10 3 6 8 10 11 10 2 0 4 -4
4 -10z m927 -12 c-3 -8 -6 -5 -6 6 -1 11 2 17 5 13 3 -3 4 -12 1 -19z m31 -3
c-3 -3 -9 2 -12 12 -6 14 -5 15 5 6 7 -7 10 -15 7 -18z m-615 0 c-3 -9 -8 -14
-10 -11 -3 3 -2 9 2 15 9 16 15 13 8 -4z m535 -10 c-3 -3 -9 2 -12 12 -6 14
-5 15 5 6 7 -7 10 -15 7 -18z m137 6 c-3 -6 -11 -11 -16 -11 -5 0 -4 6 3 14
14 16 24 13 13 -3z m-1161 -7 c3 -8 2 -12 -4 -9 -6 3 -10 10 -10 16 0 14 7 11
14 -7z m964 -11 c1 -24 0 -25 -9 -10 -5 9 -7 22 -4 27 9 15 10 13 13 -17z
m-523 -4 c10 -30 2 -32 -12 -3 -6 13 -7 24 -3 24 5 0 12 -9 15 -21z m-522 -4
c-3 -9 -8 -14 -10 -11 -3 3 -2 9 2 15 9 16 15 13 8 -4z m1007 -5 c0 -11 -7
-20 -15 -20 -8 0 -15 5 -15 11 0 5 5 7 10 4 6 -3 10 1 10 9 0 9 2 16 5 16 3 0
5 -9 5 -20z m-595 0 c3 -6 0 -17 -8 -25 -13 -13 -16 -13 -21 1 -10 27 15 47
29 24z m39 -6 c3 -8 2 -12 -4 -9 -6 3 -10 10 -10 16 0 14 7 11 14 -7z m483 -6
c-3 -8 -6 -5 -6 6 -1 11 2 17 5 13 3 -3 4 -12 1 -19z m-600 -25 c-3 -10 -5 -4
-5 12 0 17 2 24 5 18 2 -7 2 -21 0 -30z m543 17 c0 -11 -2 -20 -4 -20 -2 0 -6
9 -9 20 -3 11 -1 20 4 20 5 0 9 -9 9 -20z m-960 0 c0 -5 -7 -7 -15 -4 -8 4
-15 8 -15 10 0 2 7 4 15 4 8 0 15 -4 15 -10z m924 -5 c6 -17 -29 -22 -39 -5
-4 6 1 7 11 3 12 -4 15 -3 10 5 -4 7 -3 12 2 12 6 0 12 -7 16 -15z m-1041 -15
c3 -11 2 -20 -3 -20 -4 0 -10 9 -13 20 -3 11 -2 20 3 20 4 0 10 -9 13 -20z
m444 -2 c-3 -8 -6 -5 -6 6 -1 11 2 17 5 13 3 -3 4 -12 1 -19z m28 13 c3 -5 2
-12 -3 -15 -5 -3 -9 1 -9 9 0 17 3 19 12 6z m482 -13 c-3 -8 -6 -5 -6 6 -1 11
2 17 5 13 3 -3 4 -12 1 -19z m-1042 2 c3 -6 -1 -7 -10 -4 -11 5 -14 2 -9 -10
3 -9 10 -13 15 -10 5 3 9 0 9 -5 0 -17 -27 -13 -34 5 -10 27 14 48 29 24z
m482 -22 c-3 -7 -5 -2 -5 12 0 14 2 19 5 13 2 -7 2 -19 0 -25z m-590 -30 c-3
-7 -5 -2 -5 12 0 14 2 19 5 13 2 -7 2 -19 0 -25z m-51 11 c3 -6 1 -16 -6 -22
-10 -9 -11 -9 -6 1 4 6 2 12 -3 12 -6 0 -11 5 -11 10 0 13 17 13 26 -1z m109
1 c-3 -5 -12 -10 -18 -10 -7 0 -6 4 3 10 19 12 23 12 15 0z m-155 -32 c0 -5
-4 -8 -10 -8 -5 0 -10 10 -10 23 0 18 2 19 10 7 5 -8 10 -18 10 -22z m423 17
c-3 -9 -8 -14 -10 -11 -3 3 -2 9 2 15 9 16 15 13 8 -4z m-519 -1 c-7 -3 -10
-15 -8 -27 4 -21 4 -21 -5 -2 -10 23 -5 35 12 34 9 0 9 -2 1 -5z m44 -25 c-3
-8 -7 -3 -11 10 -4 17 -3 21 5 13 5 -5 8 -16 6 -23z m1510 6 c-3 -3 -9 2 -12
12 -6 14 -5 15 5 6 7 -7 10 -15 7 -18z m-548 -9 c0 -2 -9 -2 -20 1 -11 3 -20
9 -20 15 0 5 9 4 20 -2 11 -6 20 -12 20 -14z m-1104 -16 c1 -14 0 -19 -2 -12
-3 6 -10 12 -15 12 -6 0 -7 -4 -4 -10 3 -5 1 -10 -4 -10 -6 0 -11 4 -11 9 0 5
-3 17 -6 26 -5 13 -2 16 16 13 16 -2 24 -11 26 -28z m37 10 c3 -11 1 -20 -4
-20 -5 0 -9 9 -9 20 0 11 2 20 4 20 2 0 6 -9 9 -20z m464 -2 c-3 -8 -6 -5 -6
6 -1 11 2 17 5 13 3 -3 4 -12 1 -19z m20 -10 c-3 -7 -5 -2 -5 12 0 14 2 19 5
13 2 -7 2 -19 0 -25z m963 22 c0 -5 -2 -10 -4 -10 -3 0 -8 5 -11 10 -3 6 -1
10 4 10 6 0 11 -4 11 -10z m40 -11 c0 -6 -4 -7 -10 -4 -5 3 -10 11 -10 16 0 6
5 7 10 4 6 -3 10 -11 10 -16z m-563 -4 c0 -8 -4 -15 -9 -15 -4 0 -8 7 -8 15 0
8 4 15 8 15 5 0 9 -7 9 -15z m473 11 c0 -2 -7 -7 -16 -10 -8 -3 -12 -2 -9 4 6
10 25 14 25 6z m510 -15 c0 -4 -7 -8 -15 -8 -8 0 -15 6 -15 13 0 8 6 11 15 8
8 -4 15 -9 15 -13z m-1535 -20 c-6 -5 -25 10 -25 20 0 5 6 4 14 -3 8 -7 12
-15 11 -17z m1473 -2 c-3 -8 -7 -3 -11 10 -4 17 -3 21 5 13 5 -5 8 -16 6 -23z
m-1534 5 c3 -8 2 -12 -4 -9 -6 3 -10 10 -10 16 0 14 7 11 14 -7z m1003 -16
c-3 -7 -5 -2 -5 12 0 14 2 19 5 13 2 -7 2 -19 0 -25z m60 0 c-3 -8 -6 -5 -6 6
-1 11 2 17 5 13 3 -3 4 -12 1 -19z m381 15 c-11 -3 -15 -11 -12 -21 5 -14 4
-14 -4 -2 -13 18 -6 30 16 29 16 -1 16 -2 0 -6z m59 -15 c-3 -8 -6 -5 -6 6 -1
11 2 17 5 13 3 -3 4 -12 1 -19z m-1559 -19 c-3 -8 -7 -3 -11 10 -4 17 -3 21 5
13 5 -5 8 -16 6 -23z m1013 8 c-10 -9 -11 -8 -5 6 3 10 9 15 12 12 3 -3 0 -11
-7 -18z m-1075 1 c4 -7 3 -8 -4 -4 -7 4 -12 0 -12 -10 0 -10 -3 -15 -6 -11 -7
6 2 37 10 37 3 0 8 -5 12 -12z m1008 -4 c3 -8 2 -12 -4 -9 -6 3 -10 10 -10 16
0 14 7 11 14 -7z m494 -9 c-3 -3 -9 2 -12 12 -6 14 -5 15 5 6 7 -7 10 -15 7
-18z m349 -13 c6 2 11 -1 12 -7 1 -5 -5 -10 -11 -10 -14 -1 -28 14 -28 30 0 6
4 4 9 -3 4 -7 13 -12 18 -10z m-1468 -36 c1 -5 -5 -3 -13 4 -8 6 -12 19 -9 27
6 14 8 14 14 -3 4 -10 8 -23 8 -28z m918 12 c-3 -7 -5 -2 -5 12 0 14 2 19 5
13 2 -7 2 -19 0 -25z m516 12 c3 -11 1 -18 -4 -14 -5 3 -9 12 -9 20 0 20 7 17
13 -6z m-576 -22 c-3 -7 -5 -2 -5 12 0 14 2 19 5 13 2 -7 2 -19 0 -25z m33 17
c0 -8 -4 -15 -10 -15 -5 0 -7 7 -4 15 4 8 8 15 10 15 2 0 4 -7 4 -15z m456
-22 c-7 -17 -8 -17 -17 0 -12 21 -2 44 13 29 6 -6 8 -19 4 -29z m-58 13 c-7
-8 -15 -12 -17 -11 -5 6 10 25 20 25 5 0 4 -6 -3 -14z m-501 -18 c-3 -8 -6 -5
-6 6 -1 11 2 17 5 13 3 -3 4 -12 1 -19z m460 -5 c1 -24 1 -25 -7 -8 -11 26
-12 35 -2 35 4 0 8 -12 9 -27z m-1483 -4 c-2 -4 2 -10 8 -12 7 -3 8 -6 2 -6
-5 -1 -18 5 -28 12 -16 12 -16 13 3 13 11 0 18 -3 15 -7z m1546 3 c0 -5 -7 -9
-15 -9 -8 0 -12 4 -9 9 3 4 9 8 15 8 5 0 9 -4 9 -8z m-670 -27 c14 -19 14 -19
-2 -6 -10 7 -18 18 -18 24 0 6 1 8 3 6 1 -2 9 -13 17 -24z m443 -5 c3 -11 1
-18 -4 -14 -5 3 -9 12 -9 20 0 20 7 17 13 -6z m-1061 -32 c-6 -6 -7 0 -4 19 5
21 7 23 10 9 2 -10 0 -22 -6 -28z m546 11 c-3 -8 -7 -3 -11 10 -4 17 -3 21 5
13 5 -5 8 -16 6 -23z m852 -4 c6 -8 8 -20 4 -26 -5 -9 -11 -7 -21 6 -23 33 -9
51 17 20z m-533 -27 c-3 -7 -5 -2 -5 12 0 14 2 19 5 13 2 -7 2 -19 0 -25z
m483 28 c0 -3 -4 -8 -10 -11 -5 -3 -10 -1 -10 4 0 6 5 11 10 11 6 0 10 -2 10
-4z m-1460 -30 c0 -7 -7 -13 -15 -13 -10 0 -12 4 -5 12 5 7 6 16 2 20 -4 5 -1
5 6 1 6 -4 12 -13 12 -20z m1420 -8 c0 -19 -16 -5 -17 14 -2 18 0 20 7 8 5 -8
10 -18 10 -22z m-63 -10 c-3 -8 -6 -5 -6 6 -1 11 2 17 5 13 3 -3 4 -12 1 -19z
m-344 -53 c-3 -9 -8 -14 -10 -11 -3 3 -2 9 2 15 9 16 15 13 8 -4z m-350 -85
c3 -11 3 -20 1 -20 -2 0 -8 9 -14 20 -6 11 -7 20 -2 20 6 0 12 -9 15 -20z
m447 5 c4 3 6 -4 3 -16 -4 -16 -8 -17 -14 -7 -5 7 -8 20 -8 28 0 10 2 11 6 2
2 -6 8 -10 13 -7z m-90 -37 c0 -19 -2 -20 -10 -8 -13 19 -13 30 0 30 6 0 10
-10 10 -22z m-503 -10 c-3 -8 -6 -5 -6 6 -1 11 2 17 5 13 3 -3 4 -12 1 -19z
m343 -24 c0 -22 -16 -17 -17 6 -1 11 2 18 8 15 5 -4 9 -13 9 -21z m-414 4 c4
-7 4 -10 -1 -6 -4 4 -16 3 -26 -3 -12 -6 -19 -6 -19 0 0 5 8 12 18 14 9 3 18
5 19 6 1 0 5 -5 9 -11z m327 -3 c-3 -9 -8 -14 -10 -11 -3 3 -2 9 2 15 9 16 15
13 8 -4z m51 -1 c3 -8 2 -12 -4 -9 -6 3 -10 10 -10 16 0 14 7 11 14 -7z m-566
-30 c-3 -14 -5 -12 -10 9 -3 19 -2 25 4 19 6 -6 8 -18 6 -28z m50 22 c-7 -8
-15 -12 -17 -11 -5 6 10 25 20 25 5 0 4 -6 -3 -14z m426 -1 c-4 -8 -8 -15 -10
-15 -2 0 -4 7 -4 15 0 8 4 15 10 15 5 0 7 -7 4 -15z m-60 -21 c3 -8 2 -12 -4
-9 -6 3 -10 10 -10 16 0 14 7 11 14 -7z m-64 -11 c0 -10 -4 -14 -8 -8 -4 6
-11 13 -16 18 -5 4 -2 7 7 7 10 0 17 -8 17 -17z m-50 -10 c0 -10 -4 -14 -8 -8
-4 6 -11 13 -16 18 -5 4 -2 7 7 7 10 0 17 -8 17 -17z m94 1 c3 -8 2 -12 -4 -9
-6 3 -10 10 -10 16 0 14 7 11 14 -7z m-134 -19 c0 -14 -4 -25 -10 -25 -11 0
-14 33 -3 43 11 11 13 8 13 -18z m-400 -99 c0 -3 -4 -8 -10 -11 -5 -3 -10 -1
-10 4 0 6 5 11 10 11 6 0 10 -2 10 -4z m717 -68 c-3 -8 -6 -5 -6 6 -1 11 2 17
5 13 3 -3 4 -12 1 -19z m-654 -8 c3 -11 1 -18 -4 -14 -5 3 -9 12 -9 20 0 20 7
17 13 -6z m351 -25 c3 -8 1 -15 -4 -15 -6 0 -10 7 -10 15 0 8 2 15 4 15 2 0 6
-7 10 -15z m-57 -27 c-3 -8 -6 -5 -6 6 -1 11 2 17 5 13 3 -3 4 -12 1 -19z"/>
<path d="M8470 7949 c0 -5 5 -7 10 -4 6 3 10 8 10 11 0 2 -4 4 -10 4 -5 0 -10
-5 -10 -11z"/>
<path d="M12570 8355 c-85 -38 -132 -132 -110 -217 53 -201 318 -336 488 -249
66 34 87 73 87 161 -1 89 -20 132 -90 204 -68 70 -159 110 -260 114 -56 1 -90
-2 -115 -13z m259 -85 c165 -88 205 -268 74 -331 -156 -76 -408 95 -377 256
15 80 74 118 175 112 51 -3 80 -12 128 -37z"/>
<path d="M13806 8305 c-10 -26 4 -44 32 -41 30 4 39 20 22 41 -16 19 -46 19
-54 0z"/>
<path d="M10071 6894 l-23 -55 21 -23 c19 -20 96 -46 136 -46 11 0 35 48 35
71 0 6 -134 109 -143 109 -2 0 -14 -25 -26 -56z"/>
<path d="M10180 6916 c0 -2 8 -10 18 -17 15 -13 16 -12 3 4 -13 16 -21 21 -21
13z"/>
<path d="M6521 7764 c0 -11 3 -14 6 -6 3 7 2 16 -1 19 -3 4 -6 -2 -5 -13z"/>
<path d="M6820 6870 c-14 -27 -4 -57 25 -76 36 -24 65 -10 65 30 0 57 -66 91
-90 46z"/>
<path d="M6730 7746 c0 -2 7 -9 15 -16 13 -11 14 -10 9 4 -5 14 -24 23 -24 12z"/>
<path d="M6747 7683 c-15 -15 -6 -43 13 -43 11 0 20 6 20 14 0 17 -24 38 -33
29z"/>
<path d="M13450 7718 c0 -47 101 -107 157 -93 33 8 63 33 63 52 0 11 -7 9 -26
-6 -48 -38 -128 -22 -173 35 -14 17 -21 21 -21 12z"/>
<path d="M6125 7480 c-16 -7 -17 -9 -3 -9 9 -1 20 4 23 9 7 11 7 11 -20 0z"/>
<path d="M6155 7370 c-3 -5 -2 -10 4 -10 5 0 13 5 16 10 3 6 2 10 -4 10 -5 0
-13 -4 -16 -10z"/>
<path d="M6290 7059 c0 -5 5 -7 10 -4 6 3 10 8 10 11 0 2 -4 4 -10 4 -5 0 -10
-5 -10 -11z"/>
<path d="M12475 7451 c-8 -15 3 -31 21 -31 9 0 14 7 12 17 -4 20 -24 28 -33
14z"/>
<path d="M14414 7190 c-128 -28 -175 -153 -109 -285 17 -32 45 -70 64 -84 20
-15 31 -19 27 -11 -4 8 0 6 8 -4 9 -11 16 -17 16 -13 0 4 19 -3 42 -15 60 -32
184 -32 225 -2 45 34 67 80 65 140 -4 157 -188 306 -338 274z m136 -200 c43
-19 65 -34 65 -46 0 -48 -89 -42 -142 11 -67 67 -31 84 77 35z"/>
<path d="M4359 6134 c-21 -25 8 -69 46 -69 25 0 30 4 33 28 2 16 -2 35 -9 43
-15 19 -53 18 -70 -2z"/>
<path d="M12817 6725 c-104 -24 -191 -46 -194 -49 -5 -5 133 -334 146 -349 9
-9 301 56 354 80 85 37 110 100 78 196 -34 101 -104 169 -173 166 -13 0 -108
-20 -211 -44z"/>
<path d="M3624 6978 c3 -13 6 -29 6 -35 0 -7 7 -13 16 -13 11 0 14 5 9 18 -4
9 -10 25 -12 35 -8 26 -26 21 -19 -5z"/>
<path d="M3445 6930 c9 -16 18 -30 21 -30 2 0 -2 14 -11 30 -9 17 -18 30 -21
30 -2 0 2 -13 11 -30z"/>
<path d="M2356 6734 c-19 -50 14 -104 63 -104 54 0 66 55 21 100 -24 24 -75
27 -84 4z"/>
<path d="M5455 6660 c-3 -5 -1 -10 4 -10 6 0 11 5 11 10 0 6 -2 10 -4 10 -3 0
-8 -4 -11 -10z"/>
<path d="M14014 6550 c0 -11 4 -20 8 -20 4 0 8 9 8 20 0 11 -4 20 -8 20 -4 0
-8 -9 -8 -20z"/>
<path d="M5366 6288 c-9 -5 -21 -6 -26 -3 -6 3 -10 2 -10 -4 0 -13 15 -22 24
-14 4 4 16 8 27 10 12 2 28 7 37 12 12 7 9 9 -10 9 -14 0 -32 -5 -42 -10z"/>
<path d="M13770 5930 c8 -5 22 -9 30 -9 10 0 8 3 -5 9 -27 12 -43 12 -25 0z"/>
<path d="M6197 6193 c-22 -22 8 -73 44 -73 25 0 45 46 28 66 -12 14 -60 19
-72 7z m33 -29 c0 -8 -4 -14 -9 -14 -11 0 -22 26 -14 34 9 9 23 -3 23 -20z"/>
<path d="M5860 5930 c0 -5 5 -10 11 -10 5 0 7 5 4 10 -3 6 -8 10 -11 10 -2 0
-4 -4 -4 -10z"/>
<path d="M3630 5360 c0 -55 96 -91 148 -54 13 9 22 26 22 41 l0 26 -21 -27
c-28 -36 -89 -37 -124 -1 -14 13 -25 20 -25 15z"/>
<path d="M5065 4894 c-131 -30 -241 -57 -244 -60 -3 -2 1 -21 8 -42 20 -56
113 -297 116 -300 6 -6 453 101 492 118 58 25 83 69 83 143 0 90 -37 150 -113
182 -53 22 -76 19 -342 -41z"/>
<path d="M14958 5273 c7 -3 16 -2 19 1 4 3 -2 6 -13 5 -11 0 -14 -3 -6 -6z"/>
<path d="M14960 5250 c0 -5 7 -10 16 -10 8 0 12 5 9 10 -3 6 -10 10 -16 10 -5
0 -9 -4 -9 -10z"/>
<path d="M3139 5049 c-24 -24 -22 -36 14 -63 34 -25 53 -12 38 27 -6 15 -15
27 -20 27 -6 0 -8 7 -5 15 8 21 -2 19 -27 -6z"/>
<path d="M12700 4990 c-142 -37 -195 -64 -237 -118 -46 -61 -59 -111 -46 -175
12 -55 150 -362 205 -455 126 -213 385 -313 600 -232 74 27 131 79 165 148 24
50 28 68 28 148 l0 91 -113 228 c-130 261 -170 313 -275 361 -93 41 -180 43
-327 4z m320 -66 c77 -42 112 -89 215 -295 120 -240 133 -279 118 -366 -15
-86 -52 -139 -123 -178 -52 -28 -61 -30 -171 -30 -113 0 -116 1 -191 38 -111
54 -163 116 -248 292 -38 77 -82 175 -99 218 -65 163 -28 257 120 308 54 18
54 18 77 -4 38 -35 44 -54 28 -79 -13 -21 -10 -33 43 -147 49 -105 63 -127 90
-140 29 -14 35 -14 66 4 19 10 35 26 35 35 0 22 -106 245 -123 258 -7 5 -21
11 -32 14 -18 3 -69 77 -60 86 12 12 78 21 136 18 50 -2 79 -10 119 -32z"/>
<path d="M15520 4882 c0 -23 19 -42 42 -42 22 0 22 4 2 35 -19 29 -44 33 -44
7z"/>
<path d="M15175 4800 c3 -5 13 -10 21 -10 8 0 14 5 14 10 0 6 -9 10 -21 10
-11 0 -17 -4 -14 -10z"/>
<path d="M15202 4769 c2 -6 8 -10 13 -10 5 0 11 4 13 10 2 6 -4 11 -13 11 -9
0 -15 -5 -13 -11z"/>
<path d="M14927 4744 c-12 -12 -8 -29 13 -52 25 -26 40 -28 34 -4 -7 26 -39
64 -47 56z"/>
<path d="M15610 4710 c0 -5 12 -10 26 -10 14 0 23 4 19 10 -3 6 -15 10 -26 10
-10 0 -19 -4 -19 -10z"/>
<path d="M14760 4694 c0 -27 20 -54 40 -54 25 0 25 11 -1 44 -23 29 -39 34
-39 10z"/>
<path d="M14575 4641 c14 -28 35 -49 35 -36 0 14 -31 65 -41 65 -5 0 -3 -13 6
-29z"/>
<path d="M15415 4660 c-9 -14 13 -50 30 -50 20 0 19 46 -1 54 -21 8 -22 8 -29
-4z"/>
<path d="M15330 4632 c0 -19 18 -42 32 -42 12 0 9 35 -4 48 -17 17 -28 15 -28
-6z"/>
<path d="M15160 4545 c0 -8 7 -15 15 -15 8 0 15 7 15 15 0 8 -7 15 -15 15 -8
0 -15 -7 -15 -15z"/>
<path d="M14940 4525 c-24 -29 23 -58 59 -36 11 7 9 13 -8 30 -25 25 -34 26
-51 6z"/>
<path d="M10757 4508 c-39 -11 -57 -32 -40 -49 6 -6 30 -3 64 7 67 20 69 21
62 39 -6 17 -30 18 -86 3z"/>
<path d="M10855 4453 c-45 -12 -1301 -331 -1724 -439 -249 -63 -539 -137 -644
-164 -104 -28 -191 -50 -193 -50 -2 0 -8 -9 -14 -20 -12 -22 -28 20 257 -650
162 -382 160 -379 191 -387 15 -3 83 11 176 37 83 23 216 60 296 81 80 22 222
62 315 89 94 27 328 91 520 144 193 52 431 117 530 145 222 61 518 143 645
177 189 51 186 48 142 151 -45 103 -229 506 -324 708 -85 180 -85 180 -119
182 -19 0 -43 -1 -54 -4z m50 -63 c20 -39 20 -38 -22 -49 -91 -24 -88 -24
-101 4 -19 42 -14 52 31 62 67 17 75 15 92 -17z m-176 -48 l20 -39 -71 -17
c-39 -9 -71 -16 -73 -14 -8 9 -36 70 -33 73 3 2 116 32 130 34 4 1 16 -16 27
-37z m-192 -50 c13 -31 12 -33 -14 -43 -16 -6 -44 -13 -65 -16 -33 -5 -38 -3
-53 27 -9 17 -15 33 -13 35 6 6 113 33 123 31 5 -1 15 -17 22 -34z m436 -48
c16 -31 26 -58 24 -60 -5 -6 -269 -74 -285 -74 -12 0 -70 106 -61 113 8 7 254
75 274 76 16 1 28 -13 48 -55z m-610 1 l16 -34 -37 -11 c-94 -25 -96 -25 -115
15 -18 39 -20 36 43 54 63 17 75 14 93 -24z m-183 -41 c15 -38 14 -39 -43 -57
-72 -23 -74 -22 -87 19 -13 39 -8 50 30 57 67 12 90 8 100 -19z m442 -49 c15
-28 28 -54 28 -58 0 -11 -65 -37 -94 -37 -19 0 -32 13 -60 58 l-35 57 52 17
c29 9 59 16 67 15 8 -1 27 -25 42 -52z m-627 5 c9 -17 13 -35 10 -39 -3 -5
-28 -15 -57 -21 -46 -12 -52 -11 -65 6 -7 10 -13 24 -13 31 0 7 -1 16 -2 20
-3 8 65 31 94 32 10 1 24 -12 33 -29z m451 -51 c14 -28 23 -56 21 -63 -6 -14
-91 -36 -117 -29 -20 5 -76 100 -65 111 7 8 89 29 117 31 12 1 27 -17 44 -50z
m-632 19 c27 -38 20 -56 -26 -68 -24 -6 -49 -13 -56 -15 -14 -5 -48 62 -37 74
5 5 75 27 97 30 4 1 14 -9 22 -21z m1239 -53 c15 -31 26 -59 24 -62 -7 -6
-140 -43 -157 -43 -8 0 -30 27 -48 60 l-32 59 72 21 c40 12 78 23 83 25 21 7
31 -3 58 -60z m-793 -12 c16 -27 30 -53 30 -60 0 -11 -23 -20 -100 -38 -22 -5
-28 1 -54 49 -17 31 -26 59 -22 63 9 10 74 30 98 32 11 1 30 -18 48 -46z
m-615 12 c0 -15 -8 -21 -32 -23 -18 -2 -33 -8 -33 -13 0 -8 29 -5 68 7 8 2 12
-2 10 -8 -5 -13 -84 -35 -93 -26 -3 2 -8 19 -11 36 -6 27 -3 33 17 41 38 16
74 9 74 -14z m437 -59 c16 -27 27 -54 24 -61 -4 -12 -104 -51 -111 -44 -13 16
-65 105 -65 114 0 12 84 43 109 41 8 0 28 -23 43 -50z m740 -1 c15 -27 28 -53
28 -57 0 -10 -110 -40 -125 -34 -17 6 -67 97 -61 112 5 14 71 33 106 31 19 -2
32 -14 52 -52z m-1323 8 c6 -20 9 -38 8 -39 -1 -1 -20 -7 -42 -13 -46 -12 -56
-6 -58 40 -2 27 2 34 23 40 50 14 59 10 69 -28z m-153 -39 c8 -44 0 -52 -55
-56 -42 -3 -44 -2 -57 34 l-13 38 42 10 c23 6 47 12 52 14 17 6 24 -3 31 -40z
m555 -14 c15 -25 28 -50 28 -57 1 -7 -24 -20 -54 -29 -46 -13 -59 -13 -71 -3
-16 13 -68 109 -62 113 8 7 95 24 112 22 12 0 31 -20 47 -46z m732 -7 c16 -29
26 -57 23 -61 -3 -5 -31 -14 -62 -21 -65 -15 -66 -14 -106 63 -22 44 -18 52
37 65 66 16 78 11 108 -46z m-1456 -22 l10 -39 -37 -11 c-53 -16 -57 -15 -69
20 -16 45 -15 47 22 58 57 16 64 14 74 -28z m1271 -32 l31 -56 -65 -18 c-36
-10 -66 -16 -68 -14 -22 26 -55 100 -51 112 7 16 106 49 116 38 3 -3 20 -31
37 -62z m-728 9 c16 -29 30 -56 30 -59 0 -5 -109 -39 -124 -39 -6 0 -66 108
-66 118 0 10 63 29 102 31 23 1 32 -7 58 -51z m1413 -15 c13 -32 24 -59 23
-60 -6 -7 -235 -63 -258 -63 -21 0 -34 9 -54 39 -42 64 -35 71 101 107 165 44
158 45 188 -23z m-2114 16 c6 -18 11 -37 11 -43 0 -10 -72 -36 -101 -36 -11 0
-43 69 -35 77 4 4 90 30 108 32 3 1 11 -13 17 -30z m1243 -45 c15 -27 28 -54
28 -60 0 -10 -118 -50 -125 -42 -17 20 -55 112 -48 119 11 11 94 38 108 35 6
-1 22 -25 37 -52z m-727 -4 c14 -27 25 -53 25 -58 0 -10 -92 -42 -121 -42 -18
0 -79 90 -79 116 0 12 71 31 122 33 24 1 31 -7 53 -49z m-690 -10 c10 -22 16
-42 14 -43 -7 -6 -131 -39 -133 -35 -9 14 -26 62 -26 72 0 11 69 36 121 45 3
1 14 -17 24 -39z m1235 -40 c34 -68 33 -70 -49 -89 l-41 -9 -31 54 c-17 30
-29 59 -27 66 4 10 69 33 105 37 7 0 26 -26 43 -59z m-740 -10 c22 -44 27 -62
18 -65 -7 -2 -32 -9 -56 -15 -24 -6 -49 -13 -56 -16 -12 -5 -76 92 -76 114 0
11 85 40 117 41 18 1 29 -12 53 -59z m1445 10 c34 -68 32 -76 -19 -89 -67 -17
-73 -15 -102 34 -38 65 -36 77 11 91 72 22 82 19 110 -36z m-2130 -1 c9 -17
15 -35 13 -41 -4 -11 -80 -38 -109 -38 -14 0 -44 68 -35 78 4 3 93 29 108 31
4 1 15 -13 23 -30z m1247 -44 c15 -27 26 -54 25 -60 -3 -9 -88 -34 -117 -35
-18 0 -75 109 -63 121 13 12 75 28 103 26 19 -2 32 -14 52 -52z m-757 -15 c16
-33 26 -62 24 -65 -3 -2 -32 -11 -66 -19 l-61 -14 -32 60 c-18 33 -29 62 -25
66 10 10 77 30 106 31 22 1 30 -8 54 -59z m1458 10 c15 -28 27 -56 27 -63 0
-17 -117 -47 -129 -33 -5 6 -20 34 -35 63 l-26 51 43 15 c74 27 89 23 120 -33z
m-2120 -7 c8 -21 14 -39 13 -40 -1 -1 -30 -9 -64 -17 l-62 -14 -15 35 c-21 49
-20 49 28 60 75 19 83 17 100 -24z m2727 -32 c27 -54 28 -60 12 -65 -9 -3 -84
-24 -166 -46 -109 -29 -153 -37 -162 -29 -16 13 -64 94 -64 107 0 5 12 12 28
15 15 3 86 21 157 40 72 19 138 36 147 36 12 1 28 -19 48 -58z m-1494 -2 c14
-28 23 -56 21 -63 -4 -11 -89 -36 -121 -36 -13 0 -48 57 -60 97 -6 20 -1 24
41 37 81 25 90 22 119 -35z m708 -21 l25 -57 -53 -15 c-30 -9 -58 -16 -64 -16
-5 0 -23 27 -41 60 l-32 59 63 20 c35 10 66 16 70 13 4 -4 18 -33 32 -64z
m-1472 7 c15 -27 28 -55 28 -61 0 -11 -99 -44 -132 -44 -20 0 -71 111 -57 125
13 13 88 34 114 32 13 -1 30 -20 47 -52z m575 -46 l31 -60 -23 -9 c-48 -18
-106 -31 -115 -25 -12 7 -60 99 -60 114 0 10 81 38 115 40 15 1 28 -15 52 -60z
m709 5 c19 -30 34 -60 32 -66 -2 -6 -30 -19 -61 -28 l-58 -18 -23 36 c-58 93
-57 95 20 117 27 7 50 14 52 14 1 1 18 -24 38 -55z m-1487 -9 c17 -30 31 -59
31 -64 0 -10 -41 -24 -107 -37 -30 -6 -33 -4 -63 56 -17 34 -30 63 -28 64 5 4
112 34 125 35 6 1 25 -24 42 -54z m584 -49 c15 -32 24 -62 20 -66 -9 -8 -94
-30 -116 -30 -15 0 -67 88 -67 113 0 15 90 48 120 44 8 -1 27 -29 43 -61z
m727 3 c17 -33 29 -63 25 -67 -7 -8 -93 -31 -116 -32 -22 0 -86 118 -67 125
28 11 104 33 114 34 6 1 26 -26 44 -60z m752 6 c15 -27 28 -53 28 -57 0 -10
-110 -40 -126 -34 -13 5 -64 96 -64 115 0 12 67 30 105 28 25 -2 35 -10 57
-52z m-2254 -20 l31 -64 -42 -12 c-86 -23 -97 -20 -131 43 -17 31 -28 59 -24
63 6 6 97 31 123 34 6 1 25 -28 43 -64z m581 -34 c17 -32 31 -61 31 -65 0 -6
-96 -36 -117 -36 -13 0 -73 95 -73 116 0 9 81 39 116 43 6 0 25 -26 43 -58z
m737 -1 c18 -30 29 -58 26 -61 -14 -13 -113 -41 -127 -35 -14 5 -65 96 -65
115 0 12 87 41 114 38 12 -1 32 -24 52 -57z m753 0 l32 -59 -52 -16 c-29 -8
-58 -15 -66 -15 -15 0 -59 65 -68 101 -6 23 -2 26 32 36 79 22 87 19 122 -47z
m650 15 c46 -78 48 -76 -106 -117 l-138 -38 -17 23 c-9 12 -24 39 -32 60 -14
37 -14 37 12 44 15 3 74 19 132 34 58 15 110 28 117 28 6 1 20 -15 32 -34z
m-836 -53 c15 -32 27 -63 27 -69 0 -6 -27 -17 -60 -26 l-60 -15 -30 57 c-36
65 -32 80 26 98 64 19 69 17 97 -45z m-1483 -24 l31 -57 -53 -15 c-89 -25 -90
-25 -114 19 -43 79 -43 82 28 104 35 10 66 16 69 13 4 -4 21 -33 39 -64z m724
13 c16 -32 26 -63 22 -69 -6 -9 -82 -32 -108 -32 -14 0 -85 107 -77 115 11 10
96 44 115 44 15 1 27 -13 48 -58z m585 -42 c18 -33 31 -63 28 -65 -6 -6 -107
-34 -123 -34 -12 0 -64 90 -64 113 0 12 76 43 115 46 6 1 25 -26 44 -60z
m-773 -9 c18 -30 33 -58 34 -61 0 -7 -101 -39 -123 -39 -15 0 -84 107 -74 116
10 11 103 43 116 41 8 -1 29 -27 47 -57z m1451 -1 c20 -39 27 -62 19 -64 -67
-23 -139 -35 -151 -25 -18 15 -59 99 -52 106 4 5 124 39 148 43 3 1 19 -26 36
-60z m-2187 -9 c22 -44 27 -62 18 -65 -18 -6 -252 -65 -259 -65 -7 0 -63 120
-57 124 6 5 233 64 250 65 12 1 28 -19 48 -59z m1320 -30 c16 -33 30 -61 30
-64 0 -6 -91 -36 -111 -36 -11 0 -29 21 -48 57 -17 31 -31 60 -31 63 0 7 90
36 117 39 7 0 26 -26 43 -59z m-771 -11 c18 -33 30 -63 27 -67 -11 -10 -119
-41 -127 -36 -13 7 -59 92 -59 107 0 13 78 50 120 56 3 1 20 -26 39 -60z
m1425 -8 c15 -29 24 -56 20 -61 -8 -6 -132 -40 -148 -40 -3 0 -19 26 -35 59
l-30 58 72 21 c40 11 77 19 82 18 6 -1 23 -26 39 -55z m-839 -31 c18 -37 25
-64 19 -69 -9 -8 -92 -31 -113 -31 -12 0 -75 119 -68 127 7 6 97 31 118 32 9
1 26 -22 44 -59z m-775 -20 c17 -33 30 -62 30 -64 0 -5 -47 -19 -106 -31 -30
-6 -33 -3 -63 49 -17 31 -31 59 -31 64 0 10 122 51 133 45 4 -3 21 -31 37 -63z
m1391 -11 c16 -34 29 -62 27 -64 -2 -2 -75 -22 -163 -45 -88 -23 -333 -89
-544 -146 -273 -75 -387 -102 -395 -94 -20 15 -49 87 -43 103 6 15 72 34 637
186 184 50 355 97 380 105 25 8 51 14 57 15 7 1 27 -26 44 -60z m-839 29 c16
-13 70 -109 64 -115 -4 -4 -114 -33 -126 -33 -10 0 -64 97 -65 114 0 5 23 17
50 27 62 22 58 21 77 7z m-748 -69 c15 -33 26 -61 25 -63 -7 -5 -334 -86 -345
-86 -6 0 -23 24 -37 52 -21 42 -24 56 -14 65 11 12 296 91 327 92 9 0 27 -26
44 -60z m585 -26 c18 -32 29 -63 27 -69 -2 -6 -24 -16 -49 -22 -24 -7 -51 -14
-60 -18 -11 -4 -24 9 -46 48 -17 29 -31 58 -31 65 0 9 92 49 122 52 3 1 20
-25 37 -56z m-187 -58 c15 -27 28 -55 28 -62 0 -11 -86 -43 -114 -43 -12 0
-76 101 -76 118 0 13 86 41 115 39 13 -1 30 -20 47 -52z m-184 -57 c18 -33 31
-63 29 -64 -7 -7 -454 -124 -474 -124 -17 0 -29 12 -48 50 -14 27 -25 54 -25
59 0 15 70 37 280 91 107 27 198 50 201 50 3 0 20 -28 37 -62z m213 -139 c16
-34 29 -62 27 -63 -2 -2 -34 -11 -73 -21 -38 -10 -75 -20 -80 -22 -6 -2 -23
22 -39 53 -24 47 -26 58 -15 69 12 12 104 42 136 44 7 1 27 -26 44 -60z m-248
-16 c8 -10 24 -39 35 -64 l20 -46 -75 -17 c-41 -10 -76 -16 -77 -15 -8 9 -56
109 -56 117 0 7 96 38 126 41 6 1 18 -7 27 -16z m-180 -101 c16 -29 27 -55 24
-58 -5 -5 -183 -54 -197 -54 -13 0 -63 111 -53 120 11 12 154 49 178 47 13 -1
30 -20 48 -55z"/>
<path d="M9447 4033 c-3 -5 3 -15 14 -22 18 -11 20 -10 17 5 -3 19 -23 30 -31
17z"/>
<path d="M9438 4003 c7 -3 16 -2 19 1 4 3 -2 6 -13 5 -11 0 -14 -3 -6 -6z"/>
<path d="M8294 3885 c-9 -22 22 -53 37 -38 15 15 7 47 -14 51 -9 2 -20 -4 -23
-13z"/>
<path d="M11695 4474 c-137 -35 -262 -67 -277 -70 -30 -7 -35 -21 -15 -47 11
-15 31 -12 254 42 134 33 262 63 286 66 64 10 73 18 59 49 -8 17 -19 26 -34
25 -13 0 -135 -29 -273 -65z"/>
<path d="M11732 4333 c-147 -36 -220 -59 -214 -65 11 -11 472 101 472 115 0
13 -30 7 -258 -50z"/>
<path d="M11760 4292 c-118 -30 -217 -57 -219 -59 -2 -2 -2 -5 1 -8 8 -8 458
108 458 117 0 12 -12 10 -240 -50z"/>
<path d="M11638 4208 c-43 -11 -78 -24 -78 -29 0 -5 6 -9 13 -9 16 0 179 48
185 55 10 10 -44 2 -120 -17z"/>
<path d="M12020 4203 c-290 -73 -453 -123 -399 -123 21 0 448 116 456 123 13
14 -3 14 -57 0z"/>
<path d="M11706 4175 c-121 -34 -146 -45 -108 -45 34 0 262 62 262 72 0 13
-28 8 -154 -27z"/>
<path d="M11895 4121 c-270 -72 -268 -72 -259 -81 11 -11 454 108 454 122 0
11 8 13 -195 -41z"/>
<path d="M11870 4061 c-118 -32 -214 -61 -212 -64 1 -4 2 -9 2 -11 0 -3 30 4
68 15 57 16 171 46 345 90 34 9 53 30 25 28 -7 0 -110 -26 -228 -58z"/>
<path d="M11918 4030 c-237 -66 -238 -66 -238 -79 0 -5 57 8 128 29 70 20 168
48 217 60 85 22 114 34 104 44 -2 2 -97 -22 -211 -54z"/>
<path d="M11970 3933 c-91 -25 -182 -49 -202 -54 -36 -9 -53 -29 -25 -29 25 0
437 115 437 123 0 13 -44 5 -210 -40z"/>
<path d="M11961 3885 c-123 -34 -220 -65 -214 -68 6 -4 84 13 174 37 244 65
280 77 274 87 -4 5 -7 8 -8 8 -1 -1 -103 -29 -226 -64z"/>
<path d="M12308 3703 c7 -3 16 -2 19 1 4 3 -2 6 -13 5 -11 0 -14 -3 -6 -6z"/>
<path d="M12288 3673 c7 -3 16 -2 19 1 4 3 -2 6 -13 5 -11 0 -14 -3 -6 -6z"/>
<path d="M12088 3643 c7 -3 16 -2 19 1 4 3 -2 6 -13 5 -11 0 -14 -3 -6 -6z"/>
<path d="M11918 3603 c7 -3 16 -2 19 1 4 3 -2 6 -13 5 -11 0 -14 -3 -6 -6z"/>
<path d="M11878 3593 c7 -3 16 -2 19 1 4 3 -2 6 -13 5 -11 0 -14 -3 -6 -6z"/>
<path d="M11928 3583 c7 -3 16 -2 19 1 4 3 -2 6 -13 5 -11 0 -14 -3 -6 -6z"/>
<path d="M11888 3573 c7 -3 16 -2 19 1 4 3 -2 6 -13 5 -11 0 -14 -3 -6 -6z"/>
<path d="M11815 3560 c-25 -11 1 -11 35 0 20 6 21 8 5 8 -11 0 -29 -3 -40 -8z"/>
<path d="M11747 3540 c10 -11 19 -20 21 -20 1 0 -2 9 -8 20 -6 11 -15 20 -20
20 -6 0 -2 -9 7 -20z"/>
<path d="M6136 2443 c-4 -5 -13 -8 -19 -8 -7 0 -13 -11 -15 -25 l-4 -25 28 27
c15 15 26 30 23 33 -3 3 -9 2 -13 -2z"/>
<path d="M7085 3346 c-44 -32 27 -108 73 -80 28 18 26 49 -4 73 -31 25 -43 26
-69 7z"/>
<path d="M6145 3011 c-3 -6 3 -9 14 -8 11 0 17 5 15 9 -7 11 -22 10 -29 -1z"/>
<path d="M6337 3013 c-4 -3 -7 -11 -7 -17 0 -6 5 -5 12 2 6 6 9 14 7 17 -3 3
-9 2 -12 -2z"/>
<path d="M14345 2868 c-11 -7 -43 -15 -71 -19 -28 -4 -158 -36 -290 -73 -819
-225 -867 -237 -915 -231 -90 12 -183 -38 -198 -107 -18 -77 30 -136 115 -145
27 -3 54 -12 61 -20 13 -17 37 -8 27 9 -4 6 -3 8 3 5 6 -4 27 3 49 13 21 11
46 20 55 20 9 0 22 7 30 16 9 11 22 14 41 10 16 -3 27 -2 24 2 -2 4 8 7 22 6
36 -1 63 6 57 16 -3 5 28 17 68 29 39 12 86 25 102 30 17 5 91 26 165 46 74
20 164 45 199 56 35 11 66 17 69 14 3 -3 11 0 19 7 8 6 33 12 57 12 24 1 40 4
34 7 -5 3 11 11 37 18 25 6 51 8 57 5 6 -4 8 -3 5 3 -7 12 90 36 105 26 6 -3
8 -1 5 4 -9 15 31 21 119 19 55 -1 74 2 74 12 0 7 16 20 35 28 30 12 35 19 35
47 -1 97 -119 179 -195 135z m124 -74 c21 -27 28 -64 13 -64 -15 0 -40 34 -47
63 -9 35 7 35 34 1z m-111 1 c-2 -2 -70 -21 -153 -43 -82 -22 -343 -93 -578
-156 -385 -105 -468 -122 -440 -95 4 4 208 62 453 128 245 66 483 132 530 145
47 13 109 24 138 24 29 0 52 -1 50 -3z m-1231 -331 c20 -22 21 -25 6 -54 -18
-36 -42 -36 -60 0 -7 14 -13 21 -13 15 0 -5 -10 5 -22 23 -18 28 -19 35 -7 43
22 14 72 0 96 -27z m-147 -14 c23 -23 27 -70 6 -70 -20 0 -46 39 -46 67 0 28
14 29 40 3z"/>
<path d="M12315 2493 c-11 -3 -94 -25 -185 -50 -163 -45 -226 -69 -247 -95
-18 -21 -45 -99 -48 -138 -3 -38 23 -100 34 -82 4 7 14 -1 26 -21 16 -27 16
-30 2 -18 -9 7 -17 9 -17 3 0 -5 11 -17 25 -26 14 -9 23 -21 20 -26 -3 -4 -1
-10 5 -12 16 -5 147 -306 171 -393 12 -44 30 -110 40 -146 10 -37 35 -89 54
-117 19 -29 35 -56 35 -62 0 -6 5 -8 12 -4 8 5 9 2 5 -10 -4 -10 -7 -22 -7
-28 0 -6 -7 -5 -17 3 -14 11 -14 9 1 -9 27 -32 150 -90 215 -102 55 -10 114
-5 141 12 12 8 12 9 -2 4 -12 -4 -18 0 -18 10 0 12 6 15 21 11 12 -3 30 0 40
6 15 9 21 9 27 0 5 -8 14 -6 32 8 23 18 23 19 3 9 -35 -17 -27 -3 8 16 23 11
29 12 24 2 -4 -7 12 7 34 32 23 25 60 83 83 128 39 77 42 91 46 175 5 119 -8
159 -169 522 -112 252 -129 285 -174 330 -64 65 -138 88 -220 68z m151 -74
c42 -26 66 -66 144 -244 34 -77 88 -199 120 -271 32 -72 66 -158 76 -189 21
-74 15 -182 -13 -246 -80 -181 -308 -234 -474 -109 -69 52 -104 108 -129 206
-26 105 -53 178 -135 354 -146 317 -154 343 -114 393 19 26 97 56 181 72 29 6
36 3 48 -19 10 -20 11 -32 2 -50 -9 -20 -3 -40 40 -132 27 -60 59 -117 70
-126 23 -20 84 -25 72 -6 -4 7 -3 8 5 4 15 -10 41 11 41 34 0 10 -25 68 -55
129 -48 98 -58 112 -85 117 -27 6 -60 40 -60 62 0 5 33 19 73 30 84 25 144 22
193 -9z m-167 -1153 c9 -11 9 -16 0 -22 -8 -4 -9 -3 -5 4 4 7 2 12 -3 12 -6 0
-11 5 -11 10 0 14 5 13 19 -4z"/>
<path d="M13818 2493 c7 -3 16 -2 19 1 4 3 -2 6 -13 5 -11 0 -14 -3 -6 -6z"/>
<path d="M13811 2192 l-204 -56 -126 32 c-114 29 -127 31 -148 17 -27 -18
-132 -164 -133 -185 0 -22 32 -100 55 -134 11 -16 43 -79 71 -140 44 -95 56
-114 89 -132 61 -35 109 -38 163 -12 26 13 52 28 57 34 11 13 101 48 160 64
59 15 78 30 40 30 -17 0 -36 -5 -42 -11 -10 -10 -76 114 -118 224 -18 46 -17
48 1 65 25 23 159 66 175 56 7 -4 10 -3 6 3 -6 10 95 43 132 43 11 0 23 5 26
10 3 6 14 10 23 10 12 0 39 -43 90 -142 81 -161 107 -206 129 -228 13 -13 14
-11 10 20 -4 41 -167 379 -182 380 -6 0 -19 16 -29 35 -11 19 -23 35 -27 35
-15 0 -393 -110 -451 -132 -32 -11 -58 -24 -58 -29 0 -4 14 -17 30 -29 24 -17
30 -28 30 -60 0 -21 5 -42 10 -45 6 -3 10 -11 10 -16 0 -19 -142 65 -173 102
-30 36 -32 36 -64 23 -18 -8 -48 -14 -68 -14 l-35 0 47 70 c26 39 52 70 58 70
5 0 57 -9 114 -20 l104 -20 195 55 c107 31 201 54 209 51 8 -3 11 -2 8 3 -3 5
5 11 17 13 13 2 19 6 13 9 -5 4 -102 -18 -214 -49z m-384 -257 c15 -20 60 -58
99 -85 97 -67 103 -75 63 -89 -43 -15 -114 -14 -127 2 -30 37 -109 197 -98
201 25 10 36 5 63 -29z"/>
<path d="M11195 2105 c-249 -70 -530 -147 -1525 -420 -454 -124 -829 -228
-835 -229 -5 -2 -26 -54 -44 -116 l-35 -113 27 -78 c15 -43 24 -86 21 -96 -4
-14 -4 -15 4 -4 7 10 18 -10 42 -75 17 -49 53 -141 78 -204 l47 -115 41 -9
c48 -10 9 -20 1489 409 451 131 546 157 565 159 9 1 20 5 25 8 6 3 82 27 170
52 208 60 218 65 259 128 43 67 116 213 116 231 0 8 -19 56 -43 108 -24 52
-74 163 -112 247 -38 84 -76 157 -84 162 -10 5 -84 -11 -206 -45z m280 -228
c52 -115 97 -216 100 -226 7 -24 2 -26 -285 -106 -129 -36 -359 -101 -510
-145 -151 -43 -369 -106 -485 -139 -115 -32 -329 -94 -475 -136 -251 -73 -616
-176 -670 -188 -23 -5 -23 -5 -7 7 9 8 117 41 240 76 122 34 265 74 317 90
105 31 703 202 1155 330 311 88 481 137 613 176 74 22 82 27 77 45 -4 11 -40
91 -80 177 -40 86 -80 174 -88 195 -10 23 -23 37 -34 37 -10 0 -207 -52 -438
-115 -231 -64 -616 -169 -855 -235 -239 -66 -556 -153 -705 -195 -148 -41
-307 -85 -352 -97 -47 -12 -83 -27 -83 -34 0 -12 145 -365 179 -435 17 -34 17
-36 1 -32 -19 5 -201 418 -203 462 -2 23 6 27 173 72 283 76 838 229 1850 510
234 64 435 117 448 116 20 -2 36 -30 117 -210z m-160 104 c0 -9 -31 -22 -90
-38 -49 -13 -250 -69 -445 -123 -195 -55 -452 -126 -570 -158 -118 -33 -437
-121 -709 -197 -401 -112 -495 -135 -502 -124 -4 8 -5 17 -1 21 4 3 158 48
342 98 184 50 452 125 595 165 143 40 337 94 430 119 94 25 339 93 545 150
206 58 382 104 390 103 8 -1 15 -9 15 -16z m45 -86 c0 -8 -4 -15 -10 -15 -15
0 -22 -43 -11 -72 5 -14 22 -38 36 -52 l27 -27 -26 5 c-14 3 -26 0 -26 -5 0
-6 -5 -7 -10 -4 -6 4 -8 12 -4 18 3 7 -2 3 -10 -7 -12 -15 -16 -16 -17 -5 0
11 -2 11 -6 1 -4 -10 -9 -9 -20 5 -13 17 -14 16 -7 -7 6 -23 6 -24 -11 -10
-11 8 -16 10 -12 4 9 -16 -18 -25 -32 -11 -8 8 -11 8 -11 -2 0 -7 -4 -10 -9
-7 -5 4 -11 0 -14 -6 -2 -7 -9 2 -14 21 -5 19 -15 36 -23 39 -10 2 -11 1 -4
-5 6 -4 14 -21 18 -37 6 -26 6 -28 -9 -16 -9 7 -14 19 -11 27 3 7 1 13 -5 13
-7 0 -8 -12 -4 -31 5 -22 4 -29 -4 -25 -6 4 -11 1 -11 -6 -1 -7 -6 -2 -13 12
-15 32 -36 36 -33 7 2 -13 -3 -28 -11 -35 -10 -10 -13 -9 -13 7 0 29 -11 51
-25 51 -7 0 -15 5 -17 12 -2 6 -10 8 -17 4 -9 -6 -9 -11 0 -22 9 -11 8 -14 -4
-14 -8 0 -18 6 -20 13 -4 9 -6 9 -6 -1 -1 -7 10 -17 24 -22 19 -7 25 -17 25
-37 l-1 -28 -14 30 c-7 17 -14 24 -14 16 -1 -12 -3 -12 -13 1 -11 12 -17 13
-36 3 -19 -10 -20 -14 -8 -18 9 -4 16 -2 16 4 0 6 5 7 10 4 16 -10 12 -35 -5
-29 -11 5 -14 2 -9 -12 6 -17 5 -17 -9 1 -15 18 -16 19 -17 2 0 -10 -4 -16 -9
-13 -5 4 -12 0 -14 -6 -3 -8 -6 -6 -6 5 -1 9 -5 17 -10 17 -5 0 -7 -9 -4 -20
7 -27 -5 -25 -17 3 -8 21 -9 20 -10 -8 l-2 -30 -14 35 -14 35 6 -32 c6 -38 -2
-43 -17 -10 -9 20 -9 20 -4 -5 7 -34 -1 -35 -26 -5 l-19 22 6 -27 c4 -18 2
-28 -5 -28 -6 0 -11 6 -11 14 0 8 -4 17 -9 20 -4 3 -6 -7 -4 -22 l5 -27 -22
30 -21 30 6 -35 c5 -32 5 -33 -9 -17 -14 18 -15 18 -18 -5 -4 -23 -4 -23 -16
4 -6 14 -16 29 -22 33 -9 6 -9 2 -1 -13 18 -34 12 -49 -9 -22 -21 27 -27 21
-10 -11 8 -13 7 -19 -1 -19 -6 0 -14 10 -17 23 -6 20 -7 20 -13 -8 l-6 -30
-11 28 c-14 33 -22 35 -15 5 4 -19 3 -20 -6 -8 -9 12 -11 11 -11 -10 l-1 -25
-10 23 c-5 13 -6 29 -2 34 3 7 1 8 -5 4 -7 -4 -9 -20 -5 -39 5 -31 5 -31 -12
-12 -9 11 -14 16 -12 10 3 -5 -6 -18 -19 -28 -14 -10 -23 -13 -22 -6 2 6 -3
14 -9 16 -7 3 -13 -2 -13 -10 0 -9 -7 -14 -17 -13 -10 2 -21 -2 -25 -8 -5 -7
-8 -6 -9 4 0 10 -3 8 -9 -5 l-9 -20 -1 20 c-2 17 -3 16 -10 -5 l-7 -25 -12 25
c-10 23 -11 23 -7 3 4 -23 -9 -33 -16 -11 -2 6 -11 12 -20 14 -11 1 -14 -4
-10 -19 3 -14 1 -18 -6 -13 -7 4 -12 1 -12 -6 0 -9 -3 -9 -10 2 -6 10 -10 11
-10 3 0 -21 -20 -15 -30 10 -9 20 -10 19 -7 -9 3 -29 1 -31 -25 -29 -15 1 -28
-2 -28 -7 0 -6 -7 -5 -15 2 -12 10 -16 9 -21 -5 -5 -13 -9 -14 -15 -3 -7 10
-9 9 -9 -5 0 -10 -5 -15 -10 -12 -6 4 -8 16 -5 28 5 17 4 19 -4 7 -6 -8 -11
-23 -11 -32 0 -25 -21 -23 -27 2 -8 30 -31 25 -25 -5 2 -15 0 -25 -7 -25 -6 0
-11 7 -11 15 0 8 -4 15 -10 15 -5 0 -10 -12 -10 -27 0 -19 -3 -24 -10 -17 -7
7 -7 19 -1 36 7 18 6 25 -4 25 -7 0 -10 -8 -7 -19 2 -10 -1 -18 -7 -18 -6 0
-11 -9 -11 -20 0 -28 -30 -25 -31 3 -2 22 -2 22 -6 0 -2 -12 -11 -27 -19 -33
-11 -10 -14 -9 -14 8 0 25 -28 55 -43 45 -8 -5 -8 -8 1 -11 19 -6 14 -23 -5
-20 -14 2 -17 -3 -15 -24 5 -44 -15 -33 -23 12 l-7 40 -54 0 c-34 0 -53 4 -49
10 8 13 -50 2 -89 -16 -16 -8 -37 -14 -47 -14 -10 0 -21 -5 -24 -10 -4 -6 -10
-8 -14 -6 -4 3 -25 0 -47 -6 -21 -6 -42 -11 -46 -10 -13 3 -9 -16 5 -21 8 -4
7 -6 -4 -6 -8 -1 -20 4 -27 11 -9 9 -12 9 -12 0 0 -7 -14 -12 -35 -12 -25 0
-35 -4 -35 -15 0 -11 -7 -14 -24 -9 -13 3 -57 -4 -97 -16 -41 -12 -81 -23 -90
-26 -10 -3 -20 5 -28 22 -6 15 -10 28 -8 30 1 2 61 20 133 39 71 20 174 49
229 65 55 16 231 65 390 109 160 44 434 120 610 170 176 49 453 126 615 171
162 45 300 83 305 85 24 8 45 4 45 -10z m-320 -225 c0 -5 -2 -10 -4 -10 -3 0
-8 5 -11 10 -3 6 -1 10 4 10 6 0 11 -4 11 -10z m-753 -232 c-3 -8 -6 -5 -6 6
-1 11 2 17 5 13 3 -3 4 -12 1 -19z m-569 -151 c2 -17 -2 -26 -8 -22 -5 3 -10
15 -10 27 0 14 -5 18 -15 15 -8 -4 -17 -3 -19 2 -3 4 7 7 23 7 23 0 27 -4 29
-29z m29 1 c-3 -7 -5 -2 -5 12 0 14 2 19 5 13 2 -7 2 -19 0 -25z m-85 -35 c-9
-14 -10 -14 -16 5 -9 29 3 51 16 28 5 -10 5 -23 0 -33z m-39 15 c6 -23 1 -38
-12 -38 -11 0 -19 31 -14 48 7 19 20 14 26 -10z m-43 -30 c0 -22 -26 -24 -34
-2 -7 19 16 47 26 30 4 -6 8 -19 8 -28z m-46 1 c4 -20 1 -29 -11 -33 -10 -4
-14 -4 -11 0 4 4 2 16 -3 27 -8 15 -8 22 2 28 16 9 15 11 23 -22z m-60 -5 c12
-32 5 -48 -9 -19 l-14 30 5 -35 5 -35 -14 30 c-8 17 -12 33 -10 38 7 13 31 8
37 -9z m-43 -25 c11 -18 12 -32 0 -25 -5 4 -11 1 -13 -6 -3 -7 -9 2 -15 19 -9
26 -9 31 4 29 8 -1 19 -9 24 -17z m-43 -22 c2 -19 -1 -27 -12 -27 -9 0 -13 6
-10 14 4 10 0 14 -13 12 -10 -2 -17 -11 -17 -20 2 -20 -19 -21 -36 -1 -18 22
-29 18 -23 -7 5 -23 5 -23 -11 -3 -17 20 -17 20 -10 -5 l6 -25 -25 24 -26 23
6 -23 c4 -19 3 -21 -6 -9 -18 25 -12 39 17 39 43 -1 144 25 135 35 -4 5 -1 7
7 4 8 -2 16 -17 18 -31z m-189 -65 c1 -7 -3 -10 -9 -7 -5 3 -10 18 -9 33 0 24
1 25 9 7 5 -11 9 -26 9 -33z m-102 11 c1 -24 1 -25 -7 -8 -11 26 -12 35 -2 35
4 0 8 -12 9 -27z m59 14 c8 3 14 0 14 -6 0 -6 -7 -11 -16 -11 -11 0 -14 -6
-10 -17 4 -11 -1 -8 -13 7 -19 24 -18 51 1 32 6 -6 17 -8 24 -5z"/>
<path d="M10440 1545 c0 -8 2 -15 4 -15 2 0 6 7 10 15 3 8 1 15 -4 15 -6 0
-10 -7 -10 -15z"/>
<path d="M10405 1540 c3 -5 8 -10 11 -10 2 0 4 5 4 10 0 6 -5 10 -11 10 -5 0
-7 -4 -4 -10z"/>
<path d="M10470 1540 c0 -5 5 -10 10 -10 6 0 10 5 10 10 0 6 -4 10 -10 10 -5
0 -10 -4 -10 -10z"/>
<path d="M10451 1504 c0 -11 3 -14 6 -6 3 7 2 16 -1 19 -3 4 -6 -2 -5 -13z"/>
<path d="M10375 1500 c3 -5 8 -10 11 -10 2 0 4 5 4 10 0 6 -5 10 -11 10 -5 0
-7 -4 -4 -10z"/>
<path d="M10151 1424 c0 -11 3 -14 6 -6 3 7 2 16 -1 19 -3 4 -6 -2 -5 -13z"/>
<path d="M10171 1424 c0 -11 3 -14 6 -6 3 7 2 16 -1 19 -3 4 -6 -2 -5 -13z"/>
<path d="M9790 1410 c8 -5 20 -10 25 -10 6 0 3 5 -5 10 -8 5 -19 10 -25 10 -5
0 -3 -5 5 -10z"/>
<path d="M9770 1349 c0 -5 5 -7 10 -4 6 3 10 8 10 11 0 2 -4 4 -10 4 -5 0 -10
-5 -10 -11z"/>
</g>
</svg>
