<?xml version="1.0" standalone="no"?>
<!DOCTYPE svg PUBLIC "-//W3C//DTD SVG 20010904//EN"
 "http://www.w3.org/TR/2001/REC-SVG-20010904/DTD/svg10.dtd">
<svg version="1.0" xmlns="http://www.w3.org/2000/svg"
 width="600.000000pt" height="202.000000pt" viewBox="0 0 600.000000 202.000000"
 preserveAspectRatio="xMidYMid meet">

<g transform="translate(0.000000,202.000000) scale(0.100000,-0.100000)"
fill="#000000" stroke="none">
<path d="M765 1610 c-4 -6 -3 -16 3 -22 6 -6 12 -6 17 2 4 6 3 16 -3 22 -6 6
-12 6 -17 -2z"/>
<path d="M1993 1604 c-8 -21 13 -42 28 -27 13 13 5 43 -11 43 -6 0 -13 -7 -17
-16z"/>
<path d="M1088 1603 c28 -2 76 -2 105 0 28 2 5 3 -53 3 -58 0 -81 -1 -52 -3z"/>
<path d="M2085 1600 c-3 -5 -1 -10 4 -10 6 0 11 5 11 10 0 6 -2 10 -4 10 -3 0
-8 -4 -11 -10z"/>
<path d="M2150 1440 l0 -170 175 0 175 0 0 170 0 170 -175 0 -175 0 0 -170z
m307 133 c-10 -9 -257 -10 -257 -1 0 4 59 8 132 8 72 0 128 -3 125 -7z m-234
-50 c-7 -2 -19 -2 -25 0 -7 3 -2 5 12 5 14 0 19 -2 13 -5z m130 0 c-18 -2 -48
-2 -65 0 -18 2 -4 4 32 4 36 0 50 -2 33 -4z m97 -3 c0 -5 -6 -10 -14 -10 -8 0
-18 5 -21 10 -3 6 3 10 14 10 12 0 21 -4 21 -10z m0 -40 c0 -6 -50 -10 -130
-10 -80 0 -130 4 -130 10 0 6 50 10 130 10 80 0 130 -4 130 -10z m-62 -47
c-38 -2 -98 -2 -135 0 -38 2 -7 3 67 3 74 0 105 -1 68 -3z m80 -95 c2 -19 -2
-28 -18 -33 -24 -8 -50 10 -50 35 0 24 10 31 40 28 19 -2 26 -10 28 -30z"/>
<path d="M2414 1345 c-4 -9 -2 -21 4 -27 15 -15 44 -1 40 19 -4 23 -36 29 -44
8z"/>
<path d="M2650 1600 c0 -5 5 -10 11 -10 5 0 7 5 4 10 -3 6 -8 10 -11 10 -2 0
-4 -4 -4 -10z"/>
<path d="M3356 1597 c-25 -19 -18 -79 11 -92 14 -6 23 -20 26 -40 l4 -30 1 30
c2 21 9 33 25 40 28 13 35 65 12 89 -20 19 -55 21 -79 3z m59 -42 c0 -11 -7
-21 -16 -23 -18 -3 -33 23 -23 39 10 17 39 5 39 -16z"/>
<path d="M3382 1559 c2 -6 8 -10 13 -10 5 0 11 4 13 10 2 6 -4 11 -13 11 -9 0
-15 -5 -13 -11z"/>
<path d="M3774 1585 c-20 -30 -10 -63 23 -76 51 -19 94 41 58 81 -25 27 -61
25 -81 -5z m61 -29 c0 -22 -14 -29 -34 -17 -19 12 -6 43 16 39 10 -2 18 -12
18 -22z"/>
<path d="M4030 1531 l0 -79 48 -4 c26 -1 64 -2 85 0 l37 3 0 80 0 79 -85 0
-85 0 0 -79z m33 17 c-7 -53 -13 -62 -13 -20 0 16 -3 37 -6 46 -4 10 -1 16 9
16 12 0 14 -9 10 -42z m75 -6 c3 -18 -1 -22 -22 -22 -19 0 -26 5 -26 18 0 39
43 43 48 4z m-8 -46 c0 -11 -19 -15 -25 -6 -3 5 1 10 9 10 9 0 16 -2 16 -4z"/>
<path d="M1933 1593 c9 -2 23 -2 30 0 6 3 -1 5 -18 5 -16 0 -22 -2 -12 -5z"/>
<path d="M3610 1589 c0 -5 5 -7 10 -4 6 3 10 8 10 11 0 2 -4 4 -10 4 -5 0 -10
-5 -10 -11z"/>
<path d="M4300 1590 c0 -5 5 -10 10 -10 6 0 10 5 10 10 0 6 -4 10 -10 10 -5 0
-10 -4 -10 -10z"/>
<path d="M4686 1584 c-9 -8 -16 -22 -16 -29 0 -19 28 -45 49 -45 10 0 26 9 36
20 17 18 17 21 1 45 -19 28 -47 32 -70 9z"/>
<path d="M5494 1558 l-29 -33 33 29 c17 17 32 31 32 33 0 8 -8 1 -36 -29z"/>
<path d="M3500 1555 c-6 -8 -10 -22 -7 -32 4 -14 5 -14 6 4 0 12 9 27 19 32 9
6 12 11 6 11 -6 0 -17 -7 -24 -15z"/>
<path d="M4364 1555 c-13 -32 25 -70 47 -48 6 6 2 9 -13 9 -17 -1 -24 5 -26
22 -3 16 2 22 17 22 11 0 25 -8 30 -17 6 -10 11 -13 11 -7 1 30 -56 47 -66 19z"/>
<path d="M580 1550 c0 -5 5 -10 10 -10 6 0 10 5 10 10 0 6 -4 10 -10 10 -5 0
-10 -4 -10 -10z"/>
<path d="M1857 1554 c-13 -13 -7 -24 14 -24 11 0 19 5 17 12 -5 14 -22 21 -31
12z"/>
<path d="M3176 1553 c-11 -11 -6 -23 9 -23 8 0 15 4 15 9 0 13 -16 22 -24 14z"/>
<path d="M3526 1541 c-13 -14 -14 -21 -6 -26 9 -6 9 -9 0 -15 -7 -4 -8 -10 -3
-13 5 -3 14 3 21 14 7 10 9 19 5 18 -22 -4 -24 3 -8 21 10 11 16 20 13 20 -3
0 -13 -9 -22 -19z"/>
<path d="M5341 1547 c-16 -16 -14 -34 5 -41 21 -8 45 11 38 29 -8 19 -30 25
-43 12z"/>
<path d="M2582 1539 c2 -6 8 -10 13 -10 5 0 11 4 13 10 2 6 -4 11 -13 11 -9 0
-15 -5 -13 -11z"/>
<path d="M2628 1543 c7 -3 16 -2 19 1 4 3 -2 6 -13 5 -11 0 -14 -3 -6 -6z"/>
<path d="M2698 1543 c23 -2 59 -2 80 0 20 2 1 4 -43 4 -44 0 -61 -2 -37 -4z"/>
<path d="M4475 1540 c-4 -7 -1 -16 6 -21 17 -10 26 8 11 23 -6 6 -12 6 -17 -2z"/>
<path d="M4905 1540 c-3 -5 -1 -10 4 -10 6 0 11 5 11 10 0 6 -2 10 -4 10 -3 0
-8 -4 -11 -10z"/>
<path d="M5112 1527 c-12 -13 -22 -33 -22 -44 0 -21 42 -63 64 -63 6 0 -4 9
-21 20 -51 31 -39 88 22 103 19 5 19 5 -1 6 -11 0 -30 -9 -42 -22z"/>
<path d="M1235 1530 c3 -5 8 -10 11 -10 2 0 4 5 4 10 0 6 -5 10 -11 10 -5 0
-7 -4 -4 -10z"/>
<path d="M1933 1533 c9 -2 23 -2 30 0 6 3 -1 5 -18 5 -16 0 -22 -2 -12 -5z"/>
<path d="M3615 1515 c-42 -41 -30 -102 23 -124 55 -23 122 29 108 84 -16 64
-86 86 -131 40z m73 -48 c4 -20 -25 -34 -40 -19 -15 15 -1 44 19 40 10 -2 19
-11 21 -21z"/>
<path d="M4972 1529 c2 -6 8 -10 13 -10 5 0 11 4 13 10 2 6 -4 11 -13 11 -9 0
-15 -5 -13 -11z"/>
<path d="M1068 1513 c-28 -32 -30 -58 -7 -86 24 -31 63 -35 97 -11 28 19 30
74 4 97 -24 22 -75 22 -94 0z m80 -45 c2 -19 -2 -28 -18 -33 -24 -8 -50 10
-50 35 0 24 10 31 40 28 19 -2 26 -10 28 -30z"/>
<path d="M4798 1499 c-22 -30 -25 -31 -93 -28 -107 3 -175 0 -175 -8 0 -5 56
-7 125 -5 79 1 125 -2 125 -8 0 -21 41 -50 70 -50 24 0 35 7 48 31 16 29 19
30 75 27 31 -2 57 0 57 5 0 4 -27 7 -60 7 -33 0 -60 4 -60 10 0 19 -40 50 -65
50 -16 0 -32 -11 -47 -31z m76 -25 c7 -19 -10 -44 -31 -44 -17 0 -27 24 -19
45 7 20 42 19 50 -1z"/>
<path d="M5535 1510 c4 -6 11 -8 16 -5 14 9 11 15 -7 15 -8 0 -12 -5 -9 -10z"/>
<path d="M5143 1503 c-21 -7 -15 -33 7 -33 11 0 20 6 20 14 0 18 -11 25 -27
19z"/>
<path d="M2650 1489 c0 -5 5 -7 10 -4 6 3 10 8 10 11 0 2 -4 4 -10 4 -5 0 -10
-5 -10 -11z"/>
<path d="M565 1465 c0 -13 3 -21 8 -18 4 2 7 10 7 18 0 8 -3 16 -7 18 -5 3 -8
-5 -8 -18z"/>
<path d="M1776 1469 c-33 -26 -36 -79 -5 -110 47 -47 141 2 125 65 -15 62 -72
83 -120 45z m68 -38 c10 -16 -6 -42 -23 -39 -9 2 -17 13 -19 26 -3 16 2 22 17
22 11 0 22 -4 25 -9z m-29 -69 c-6 -7 -32 11 -44 30 -12 20 -11 20 17 -3 16
-13 28 -25 27 -27z"/>
<path d="M2991 1473 c0 -10 3 -13 5 -6 7 15 206 5 216 -11 6 -8 8 -7 8 2 0 6
7 12 15 12 8 0 15 -9 15 -20 0 -14 -7 -20 -22 -20 -13 1 -68 -2 -123 -4 -61
-3 -102 -1 -106 5 -3 6 -11 4 -19 -6 -11 -13 7 -15 176 -14 115 0 181 4 169 9
-11 5 -30 9 -42 9 -16 1 -23 7 -23 20 0 23 30 37 42 19 6 -10 8 -8 8 5 0 15
-14 17 -160 17 -146 0 -160 -2 -159 -17z"/>
<path d="M5412 1481 c-18 -11 -12 -41 10 -55 14 -8 22 -7 35 7 29 29 -10 71
-45 48z m46 -24 c4 -20 -25 -34 -40 -19 -15 15 -1 44 19 40 10 -2 19 -11 21
-21z"/>
<path d="M914 1455 c-10 -25 4 -45 30 -45 28 0 37 17 24 43 -11 21 -46 23 -54
2z m36 -15 c0 -5 -4 -10 -10 -10 -5 0 -10 5 -10 10 0 6 5 10 10 10 6 0 10 -4
10 -10z"/>
<path d="M1957 1463 c-13 -12 -7 -41 9 -47 18 -7 44 10 44 27 0 6 -6 3 -13 -8
-17 -22 -41 -11 -34 16 5 20 4 23 -6 12z"/>
<path d="M3795 1461 c31 -5 40 -11 45 -31 5 -22 12 -25 54 -28 27 -2 52 0 57
5 4 4 -16 6 -46 5 l-55 -4 0 31 c0 31 -1 31 -47 30 l-48 -2 40 -6z"/>
<path d="M3958 1463 c6 -2 18 -2 25 0 6 3 1 5 -13 5 -14 0 -19 -2 -12 -5z"/>
<path d="M2924 1225 c0 -132 2 -209 3 -170 2 39 9 73 16 77 9 6 9 8 0 8 -10 0
-13 28 -13 105 0 77 3 105 13 105 9 0 9 2 0 8 -6 4 -13 30 -16 57 -2 28 -3
-58 -3 -190z"/>
<path d="M807 1435 c39 -16 53 -42 53 -92 0 -30 -7 -45 -27 -65 -16 -14 -35
-28 -43 -31 -13 -5 -13 -6 0 -6 27 -2 61 30 79 72 17 40 17 43 -2 74 -21 37
-54 63 -77 63 -8 -1 -1 -7 17 -15z"/>
<path d="M2640 1315 l0 -135 -180 0 -180 0 0 -130 0 -130 302 0 301 0 -6 167
c-4 91 -7 210 -7 265 l0 98 -115 0 -115 0 0 -135z m88 68 c-10 -2 -26 -2 -35
0 -10 3 -2 5 17 5 19 0 27 -2 18 -5z m90 -15 c14 -14 -2 -38 -27 -37 -10 0 -8
3 7 10 13 5 20 13 17 19 -9 14 -35 13 -35 -2 0 -6 -3 -9 -6 -5 -9 8 5 27 20
27 6 0 17 -5 24 -12z m-95 -15 c-7 -2 -21 -2 -30 0 -10 3 -4 5 12 5 17 0 24
-2 18 -5z m67 -73 c0 -5 -16 -10 -36 -10 -21 0 -33 4 -29 10 3 6 19 10 36 10
16 0 29 -4 29 -10z m46 -88 l6 -92 -129 2 -128 2 118 3 117 4 0 91 c0 50 2 89
5 86 3 -2 8 -46 11 -96z m-46 18 c0 -5 -7 -10 -15 -10 -8 0 -15 5 -15 10 0 6
7 10 15 10 8 0 15 -4 15 -10z m-430 -74 c0 -11 -19 -15 -25 -6 -3 5 1 10 9 10
9 0 16 -2 16 -4z m157 -33 c-3 -10 -5 -4 -5 12 0 17 2 24 5 18 2 -7 2 -21 0
-30z m-104 -40 c-18 -2 -48 -2 -65 0 -18 2 -4 4 32 4 36 0 50 -2 33 -4z m350
-10 c-29 -2 -77 -2 -105 0 -29 2 -6 3 52 3 58 0 81 -1 53 -3z m-270 -40 c-29
-2 -78 -2 -110 0 -32 2 -8 3 52 3 61 0 87 -1 58 -3z m270 0 c-23 -2 -64 -2
-90 0 -26 2 -7 3 42 3 50 0 71 -1 48 -3z m-83 -43 c0 -5 -2 -10 -4 -10 -3 0
-8 5 -11 10 -3 6 -1 10 4 10 6 0 11 -4 11 -10z"/>
<path d="M3516 1443 c-12 -12 -6 -33 9 -33 8 0 15 6 15 14 0 17 -14 28 -24 19z"/>
<path d="M5535 1440 c3 -5 8 -10 11 -10 2 0 4 5 4 10 0 6 -5 10 -11 10 -5 0
-7 -4 -4 -10z"/>
<path d="M4482 1433 c-20 -8 -44 -62 -37 -83 9 -28 53 -60 82 -60 36 0 86 54
78 82 -17 55 -72 82 -123 61z m68 -37 c19 -23 8 -61 -18 -64 -44 -7 -67 32
-36 62 19 20 38 20 54 2z"/>
<path d="M1006 1411 c-4 -5 -2 -12 3 -15 5 -4 12 -2 15 3 4 5 2 12 -3 15 -5 4
-12 2 -15 -3z"/>
<path d="M2020 1395 c-11 -13 -11 -19 3 -33 14 -13 19 -14 29 -3 11 10 10 11
-3 6 -19 -7 -34 9 -24 25 5 8 12 7 23 -2 13 -11 14 -11 11 1 -7 22 -24 24 -39
6z"/>
<path d="M4170 1400 c0 -5 5 -10 10 -10 6 0 10 5 10 10 0 6 -4 10 -10 10 -5 0
-10 -4 -10 -10z"/>
<path d="M4268 1403 c12 -2 30 -2 40 0 9 3 -1 5 -23 4 -22 0 -30 -2 -17 -4z"/>
<path d="M4960 1400 c0 -5 5 -10 10 -10 6 0 10 5 10 10 0 6 -4 10 -10 10 -5 0
-10 -4 -10 -10z"/>
<path d="M1517 1393 c-4 -3 -7 -15 -7 -25 0 -12 7 -18 23 -17 16 1 18 2 5 6
-10 2 -18 11 -18 20 0 10 6 13 16 9 8 -3 12 -2 9 4 -7 12 -19 13 -28 3z"/>
<path d="M1214 1375 c-4 -9 -2 -21 4 -27 15 -15 44 -1 40 19 -4 23 -36 29 -44
8z"/>
<path d="M3755 1372 c20 -21 27 -22 224 -22 112 -1 206 1 209 4 6 6 -45 7
-267 6 -123 -1 -146 2 -165 17 l-21 17 20 -22z"/>
<path d="M5245 1380 c-3 -5 -1 -10 4 -10 6 0 11 5 11 10 0 6 -2 10 -4 10 -3 0
-8 -4 -11 -10z"/>
<path d="M5330 1379 c0 -5 5 -7 10 -4 6 3 10 8 10 11 0 2 -4 4 -10 4 -5 0 -10
-5 -10 -11z"/>
<path d="M5390 1380 c0 -5 5 -10 10 -10 6 0 10 5 10 10 0 6 -4 10 -10 10 -5 0
-10 -4 -10 -10z"/>
<path d="M808 1354 c3 -15 -2 -32 -13 -44 -21 -24 -13 -27 9 -4 17 17 22 59 7
68 -4 3 -6 -6 -3 -20z"/>
<path d="M2972 1368 c-18 -18 -14 -46 7 -58 25 -13 48 -4 56 21 12 38 -35 65
-63 37z"/>
<path d="M3462 1349 c-2 -34 -5 -37 -39 -43 -253 -44 -354 -343 -177 -520 43
-42 125 -86 164 -86 39 0 48 -12 53 -65 l3 -50 2 52 c2 52 2 52 40 58 90 15
189 83 228 157 27 51 42 145 31 202 -23 130 -125 231 -254 252 -39 6 -42 9
-46 43 l-4 36 -1 -36z m-53 -192 c-2 -1 -15 -11 -29 -22 l-25 -20 19 23 c11
12 24 22 29 22 6 0 8 -1 6 -3z m157 -28 c3 -6 -5 -3 -20 6 -14 10 -26 19 -26
22 0 7 39 -17 46 -28z m-247 -116 c0 -21 -3 -31 -6 -23 -3 8 -11 18 -17 22 -8
5 -7 8 2 8 6 0 12 7 12 15 0 8 2 15 5 15 3 0 5 -17 4 -37z m315 0 c-5 -5 -12
-12 -16 -18 -4 -6 -8 -2 -8 8 0 9 7 17 17 17 9 0 12 -3 7 -7z m-229 -151 c-3
-3 -11 0 -18 7 -9 10 -8 11 6 5 10 -3 15 -9 12 -12z"/>
<path d="M3520 1369 c0 -5 11 -9 23 -9 42 0 143 -59 191 -110 51 -55 96 -139
96 -182 0 -16 5 -28 10 -28 6 0 8 11 4 25 l-6 25 303 2 304 3 3 58 3 58 52 -2
c53 -2 62 2 54 24 -4 9 -6 9 -6 0 -1 -20 -101 -17 -101 2 0 16 -31 17 -483 15
l-218 -1 -47 42 c-26 23 -63 48 -82 57 -49 21 -100 32 -100 21z m575 -180 c4
-12 3 -25 -2 -30 -6 -6 -9 -1 -9 13 1 29 -33 37 -51 12 -14 -19 -17 -15 -7 10
9 25 61 21 69 -5z m-148 -31 c-3 -8 -6 -5 -6 6 -1 11 2 17 5 13 3 -3 4 -12 1
-19z m123 -2 c0 -3 -4 -8 -10 -11 -5 -3 -10 -1 -10 4 0 6 5 11 10 11 6 0 10
-2 10 -4z"/>
<path d="M4376 1373 c-11 -11 -6 -23 9 -23 8 0 15 4 15 9 0 13 -16 22 -24 14z"/>
<path d="M4645 1370 c-4 -7 -3 -16 3 -22 14 -14 45 -2 40 15 -6 16 -34 21 -43
7z"/>
<path d="M1917 1364 c-8 -8 1 -24 14 -24 5 0 9 7 9 15 0 15 -12 20 -23 9z"/>
<path d="M3245 1360 c-3 -5 -1 -10 4 -10 6 0 11 5 11 10 0 6 -2 10 -4 10 -3 0
-8 -4 -11 -10z"/>
<path d="M3328 1355 c-39 -14 -101 -56 -94 -63 3 -2 20 7 38 21 18 14 56 32
83 40 28 9 41 16 30 16 -11 0 -37 -7 -57 -14z"/>
<path d="M4960 1359 c0 -5 5 -7 10 -4 6 3 10 8 10 11 0 2 -4 4 -10 4 -5 0 -10
-5 -10 -11z"/>
<path d="M1058 1353 c29 -2 74 -2 100 0 26 2 2 3 -53 3 -55 0 -76 -1 -47 -3z"/>
<path d="M3083 1353 c9 -2 23 -2 30 0 6 3 -1 5 -18 5 -16 0 -22 -2 -12 -5z"/>
<path d="M4918 1313 c5 -76 10 -83 11 -15 0 34 -2 62 -7 62 -4 0 -6 -21 -4
-47z"/>
<path d="M5145 1340 c-7 -12 2 -30 16 -30 12 0 12 27 0 35 -5 3 -12 1 -16 -5z"/>
<path d="M3195 1312 c18 -22 18 -23 -7 -50 -34 -36 -75 -101 -83 -132 -6 -24
42 49 64 97 14 30 51 49 62 32 4 -7 11 -10 15 -6 5 4 -10 24 -31 45 -22 20
-31 27 -20 14z"/>
<path d="M5310 1315 c-29 -35 -7 -95 35 -95 27 0 55 29 55 57 0 43 -64 70 -90
38z m59 -29 c9 -10 8 -16 -4 -26 -19 -16 -41 1 -32 24 8 20 21 20 36 2z"/>
<path d="M5340 1275 c0 -9 5 -15 11 -13 6 2 11 8 11 13 0 5 -5 11 -11 13 -6 2
-11 -4 -11 -13z"/>
<path d="M5524 1319 c-10 -17 13 -36 27 -22 12 12 4 33 -11 33 -5 0 -12 -5
-16 -11z"/>
<path d="M506 1311 c-3 -5 0 -8 7 -7 6 0 12 -3 12 -9 0 -5 -6 -9 -12 -9 -7 1
-13 -2 -13 -7 0 -14 37 -11 42 4 11 28 -21 53 -36 28z"/>
<path d="M3920 1310 l-145 -5 149 -5 c81 -3 152 -2 158 1 19 12 -18 14 -162 9z"/>
<path d="M5450 1310 c-13 -8 -12 -10 3 -10 9 0 17 5 17 10 0 12 -1 12 -20 0z"/>
<path d="M1518 1303 c7 -3 16 -2 19 1 4 3 -2 6 -13 5 -11 0 -14 -3 -6 -6z"/>
<path d="M1588 1303 c12 -2 32 -2 45 0 12 2 2 4 -23 4 -25 0 -35 -2 -22 -4z"/>
<path d="M1930 1280 l0 -29 -291 0 c-160 0 -294 -2 -297 -5 -5 -6 211 -9 456
-6 88 1 132 -2 132 -9 0 -6 21 -11 48 -11 l48 0 0 37 c-1 31 3 38 24 44 16 4
-1 7 -47 8 l-73 1 0 -30z m70 -15 c0 -8 -8 -15 -17 -14 -13 0 -14 2 -4 6 11 5
11 7 0 14 -11 7 -10 9 4 9 9 0 17 -7 17 -15z"/>
<path d="M3074 1296 c-9 -24 4 -48 23 -44 12 2 18 12 18 28 0 29 -32 41 -41
16z m26 -16 c0 -5 -5 -10 -11 -10 -5 0 -7 5 -4 10 3 6 8 10 11 10 2 0 4 -4 4
-10z"/>
<path d="M4679 1295 c-32 -17 -59 -57 -59 -85 0 -55 53 -110 105 -110 33 0 95
33 95 51 0 6 7 8 18 4 14 -5 15 -4 5 6 -7 7 -13 28 -13 46 0 44 -24 79 -62 92
-40 14 -57 13 -89 -4z m116 -37 c25 -30 30 -53 19 -82 -8 -22 -26 -20 -23 2 9
58 -38 102 -86 80 -51 -23 -49 -93 4 -119 20 -10 22 -13 9 -16 -45 -11 -97 62
-79 109 27 70 108 83 156 26z m-41 -37 c10 -15 -4 -39 -25 -44 -22 -6 -35 13
-25 38 6 16 41 21 50 6z"/>
<path d="M4970 1290 c0 -13 5 -20 13 -17 6 2 12 10 12 17 0 7 -6 15 -12 18 -8
2 -13 -5 -13 -18z"/>
<path d="M5048 1288 c-13 -13 -17 -18 -8 -12 8 6 24 16 35 22 11 6 15 12 8 12
-7 0 -22 -10 -35 -22z"/>
<path d="M2593 1255 c0 -22 2 -30 4 -17 2 12 2 30 0 40 -3 9 -5 -1 -4 -23z"/>
<path d="M5095 1260 c-58 -24 -92 -98 -74 -164 13 -50 34 -74 76 -92 104 -44
211 34 200 146 -4 36 -13 51 -46 82 -35 33 -46 38 -88 37 -26 0 -57 -4 -68 -9z
m107 -87 c24 -21 23 -58 -2 -83 -55 -55 -135 24 -83 82 20 22 61 23 85 1z
m-138 -58 c5 -22 4 -26 -4 -15 -5 8 -10 24 -10 34 0 26 6 18 14 -19z"/>
<path d="M5128 1169 c-26 -15 -23 -65 3 -79 47 -26 100 25 72 69 -12 19 -51
25 -75 10z m52 -34 c0 -16 -27 -32 -37 -22 -3 4 -3 13 0 22 8 20 37 20 37 0z"/>
<path d="M2970 1245 c-20 -24 -8 -50 24 -50 36 0 56 26 37 49 -17 20 -45 21
-61 1z"/>
<path d="M5444 1235 c-8 -19 3 -35 26 -35 19 0 30 17 23 38 -6 17 -42 15 -49
-3z m36 -11 c0 -17 -22 -14 -28 4 -2 7 3 12 12 12 9 0 16 -7 16 -16z"/>
<path d="M2203 1224 c6 -7 299 -6 306 1 2 3 -67 5 -154 5 -87 0 -156 -3 -152
-6z"/>
<path d="M852 1209 c2 -6 8 -10 13 -10 5 0 11 4 13 10 2 6 -4 11 -13 11 -9 0
-15 -5 -13 -11z"/>
<path d="M1345 1185 c-33 -33 -32 -70 4 -106 44 -44 97 -36 124 19 40 80 -65
151 -128 87z m73 -47 c-2 -13 -10 -23 -18 -23 -8 0 -16 10 -18 23 -3 17 2 22
18 22 16 0 21 -5 18 -22z"/>
<path d="M1580 1195 c0 -8 5 -15 10 -15 6 0 10 7 10 15 0 8 -4 15 -10 15 -5 0
-10 -7 -10 -15z"/>
<path d="M1707 1203 c-13 -12 -7 -41 10 -47 9 -4 23 0 31 8 13 12 13 18 2 30
-13 17 -32 21 -43 9z m33 -23 c0 -5 -7 -10 -15 -10 -8 0 -15 5 -15 10 0 6 7
10 15 10 8 0 15 -4 15 -10z"/>
<path d="M357 1183 c-14 -13 -7 -33 11 -33 26 0 34 11 21 27 -13 14 -22 16
-32 6z"/>
<path d="M5617 1184 c-14 -15 -6 -34 14 -34 14 0 19 5 17 17 -3 18 -20 27 -31
17z"/>
<path d="M735 1171 l-50 -7 52 -4 c29 -3 83 -2 120 1 l68 6 -57 1 c-31 1 -62
4 -70 5 -7 2 -35 1 -63 -2z"/>
<path d="M472 1163 c37 -2 100 -2 140 0 40 1 10 3 -67 3 -77 0 -110 -1 -73 -3z"/>
<path d="M5380 1153 c0 -13 3 -14 8 -6 5 8 44 13 107 16 l100 3 -107 2 c-97 2
-108 0 -108 -15z"/>
<path d="M5330 1150 c0 -5 5 -10 10 -10 6 0 10 5 10 10 0 6 -4 10 -10 10 -5 0
-10 -4 -10 -10z"/>
<path d="M1170 1141 c0 -5 10 -7 21 -4 16 4 20 2 17 -8 -3 -8 -13 -13 -23 -12
-12 1 -14 -2 -6 -10 14 -14 47 15 37 32 -9 13 -46 15 -46 2z"/>
<path d="M2981 1134 c0 -11 3 -14 6 -6 3 7 2 16 -1 19 -3 4 -6 -2 -5 -13z"/>
<path d="M1516 1131 c-4 -5 -2 -12 3 -15 5 -4 12 -2 15 3 4 5 2 12 -3 15 -5 4
-12 2 -15 -3z"/>
<path d="M1850 1130 l-85 -5 88 -5 c49 -3 91 -2 93 2 7 12 -9 13 -96 8z"/>
<path d="M3040 1131 c0 -5 5 -13 10 -16 6 -3 10 -2 10 4 0 5 -4 13 -10 16 -5
3 -10 2 -10 -4z"/>
<path d="M4540 1125 c-18 -21 -5 -45 25 -45 20 0 25 5 25 24 0 13 -7 27 -16
30 -21 8 -20 8 -34 -9z m40 -20 c0 -8 -7 -15 -15 -15 -8 0 -15 7 -15 15 0 8 7
15 15 15 8 0 15 -7 15 -15z"/>
<path d="M545 1120 c3 -5 8 -10 11 -10 2 0 4 5 4 10 0 6 -5 10 -11 10 -5 0 -7
-4 -4 -10z"/>
<path d="M1588 1123 c18 -2 45 -2 60 0 15 2 0 4 -33 4 -33 0 -45 -2 -27 -4z"/>
<path d="M3092 1080 c0 -14 2 -19 5 -12 2 6 2 18 0 25 -3 6 -5 1 -5 -13z"/>
<path d="M694 985 c0 -55 1 -76 3 -47 2 29 2 74 0 100 -2 26 -3 2 -3 -53z"/>
<path d="M774 995 c0 -49 1 -71 3 -48 2 23 2 64 0 90 -2 26 -3 8 -3 -42z"/>
<path d="M1515 1070 c-11 -17 5 -32 21 -19 7 6 11 15 8 20 -7 12 -21 11 -29
-1z"/>
<path d="M1707 1074 c-4 -4 -7 -43 -7 -86 l0 -78 60 0 c33 -1 94 -1 135 -1 41
0 107 0 145 1 l70 0 0 40 0 39 58 4 57 3 -57 2 -57 2 -3 38 -3 37 -196 3
c-107 1 -198 -1 -202 -4z m98 -79 c0 -27 -3 -30 -30 -30 -21 0 -31 5 -33 18
-5 25 17 49 42 45 16 -2 21 -10 21 -33z m253 3 c-6 -18 -28 -21 -28 -4 0 9 7
16 16 16 9 0 14 -5 12 -12z"/>
<path d="M1754 1006 c-8 -21 3 -36 27 -36 15 0 20 6 17 22 -4 27 -35 37 -44
14z"/>
<path d="M3903 1063 c20 -2 54 -2 75 0 20 2 3 4 -38 4 -41 0 -58 -2 -37 -4z"/>
<path d="M4075 1060 c-4 -6 -3 -16 3 -22 6 -6 12 -6 17 2 4 6 3 16 -3 22 -6 6
-12 6 -17 -2z"/>
<path d="M1633 1049 c36 -21 9 -77 -32 -64 -12 3 -21 17 -24 33 l-4 27 -2 -26
c-1 -34 21 -53 54 -45 42 11 43 87 1 86 -6 0 -3 -5 7 -11z"/>
<path d="M2965 1050 c-3 -5 3 -10 15 -10 12 0 18 5 15 10 -3 6 -10 10 -15 10
-5 0 -12 -4 -15 -10z"/>
<path d="M5540 1050 c0 -5 5 -10 10 -10 6 0 10 5 10 10 0 6 -4 10 -10 10 -5 0
-10 -4 -10 -10z"/>
<path d="M5615 1050 c3 -5 8 -10 11 -10 2 0 4 5 4 10 0 6 -5 10 -11 10 -5 0
-7 -4 -4 -10z"/>
<path d="M603 975 c0 -44 2 -61 4 -37 2 23 2 59 0 80 -2 20 -4 1 -4 -43z"/>
<path d="M4245 1043 c330 -7 603 -7 598 0 -2 4 -167 6 -366 5 -199 -1 -303 -4
-232 -5z"/>
<path d="M733 965 c0 -38 2 -53 4 -32 2 20 2 52 0 70 -2 17 -4 1 -4 -38z"/>
<path d="M861 1014 c0 -11 3 -14 6 -6 3 7 2 16 -1 19 -3 4 -6 -2 -5 -13z"/>
<path d="M5279 993 l-24 -28 28 24 c15 14 27 26 27 28 0 8 -8 1 -31 -24z"/>
<path d="M2965 1000 c-3 -5 3 -10 15 -10 12 0 18 5 15 10 -3 6 -10 10 -15 10
-5 0 -12 -4 -15 -10z"/>
<path d="M3020 999 c0 -5 9 -9 20 -9 11 0 20 2 20 4 0 2 -9 6 -20 9 -11 3 -20
1 -20 -4z"/>
<path d="M3840 1000 c55 -8 327 -13 319 -6 -2 2 -87 5 -189 8 -102 3 -160 2
-130 -2z"/>
<path d="M4195 1000 c-18 -8 -17 -9 8 -9 16 -1 26 3 22 9 -3 6 -7 10 -8 9 -1
0 -11 -4 -22 -9z"/>
<path d="M1532 986 c7 -8 15 -12 17 -11 5 6 -10 25 -20 25 -5 0 -4 -6 3 -14z"/>
<path d="M4290 895 l0 -104 58 -3 c31 -2 146 -2 255 0 l197 3 0 29 c0 27 3 30
30 30 17 0 30 4 30 8 0 5 -13 7 -30 4 l-30 -4 0 71 0 71 -255 0 -255 0 0 -105z
m335 35 c4 -6 -15 -10 -50 -10 -35 0 -54 4 -50 10 3 6 26 10 50 10 24 0 47 -4
50 -10z m-258 -42 c-3 -7 -5 -2 -5 12 0 14 2 19 5 13 2 -7 2 -19 0 -25z m48
12 c3 -5 1 -10 -4 -10 -6 0 -11 5 -11 10 0 6 2 10 4 10 3 0 8 -4 11 -10z m213
-27 c-21 -2 -55 -2 -75 0 -21 2 -4 4 37 4 41 0 58 -2 38 -4z m110 0 c-10 -2
-26 -2 -35 0 -10 3 -2 5 17 5 19 0 27 -2 18 -5z m-315 -10 c-7 -2 -19 -2 -25
0 -7 3 -2 5 12 5 14 0 19 -2 13 -5z"/>
<path d="M902 965 c0 -16 2 -22 5 -12 2 9 2 23 0 30 -3 6 -5 -1 -5 -18z"/>
<path d="M2152 960 c0 -14 2 -19 5 -12 2 6 2 18 0 25 -3 6 -5 1 -5 -13z"/>
<path d="M3084 943 c10 -57 61 -154 97 -188 32 -30 32 -29 -4 16 -44 55 -78
128 -80 175 -1 18 -6 34 -11 34 -4 0 -5 -17 -2 -37z"/>
<path d="M1030 966 c0 -2 8 -10 18 -17 15 -13 16 -12 3 4 -13 16 -21 21 -21
13z"/>
<path d="M1092 950 c0 -14 2 -19 5 -12 2 6 2 18 0 25 -3 6 -5 1 -5 -13z"/>
<path d="M5152 950 c0 -14 2 -19 5 -12 2 6 2 18 0 25 -3 6 -5 1 -5 -13z"/>
<path d="M1213 953 l-73 -4 0 -149 0 -150 180 0 180 0 0 155 0 155 -107 -2
c-60 -1 -141 -4 -180 -5z m216 -47 c-10 -9 -249 -14 -249 -6 0 6 53 10 127 10
69 0 124 -2 122 -4z m-201 -53 c2 -8 -6 -13 -22 -13 -25 0 -33 10 -19 24 10
10 36 3 41 -11z m162 -3 c0 -6 -30 -10 -70 -10 -40 0 -70 4 -70 10 0 6 30 10
70 10 40 0 70 -4 70 -10z m-26 -40 c44 0 77 -2 75 -4 -2 -2 -61 -6 -131 -9
-112 -5 -128 -4 -128 10 0 13 9 15 53 9 28 -3 88 -6 131 -6z m-144 -65 c0 -8
-4 -15 -9 -15 -5 0 -11 7 -15 15 -3 9 0 15 9 15 8 0 15 -7 15 -15z m110 -21
c0 -8 -7 -14 -15 -14 -15 0 -21 21 -9 33 10 9 24 -2 24 -19z m60 1 c0 -8 -4
-15 -10 -15 -5 0 -10 7 -10 15 0 8 5 15 10 15 6 0 10 -7 10 -15z m65 5 c3 -5
1 -10 -4 -10 -6 0 -11 5 -11 10 0 6 2 10 4 10 3 0 8 -4 11 -10z"/>
<path d="M5016 952 c-2 -4 -1 -14 5 -22 6 -10 9 -11 9 -2 0 6 12 12 28 13 24
0 25 1 7 9 -26 11 -43 12 -49 2z"/>
<path d="M5208 953 c7 -3 16 -2 19 1 4 3 -2 6 -13 5 -11 0 -14 -3 -6 -6z"/>
<path d="M5373 953 c-18 -7 -16 -23 2 -23 8 0 15 7 15 15 0 8 -1 15 -2 14 -2
0 -9 -3 -15 -6z"/>
<path d="M3831 934 c0 -11 3 -14 6 -6 3 7 2 16 -1 19 -3 4 -6 -2 -5 -13z"/>
<path d="M4137 944 c-13 -13 -7 -42 10 -48 21 -8 36 6 31 30 -3 19 -29 30 -41
18z m33 -25 c0 -5 -7 -9 -15 -9 -15 0 -20 12 -9 23 8 8 24 -1 24 -14z"/>
<path d="M4226 922 c-3 -6 -1 -14 5 -17 15 -10 25 3 12 16 -7 7 -13 7 -17 1z"/>
<path d="M3893 903 c20 -2 54 -2 75 0 20 2 3 4 -38 4 -41 0 -58 -2 -37 -4z"/>
<path d="M3806 857 c-9 -24 -33 -63 -52 -86 -31 -35 -38 -40 -52 -29 -13 11
-14 10 -8 -9 5 -17 0 -25 -30 -44 -20 -12 -53 -28 -73 -35 -23 -9 -29 -13 -15
-14 11 0 46 16 78 35 45 27 62 33 72 24 8 -6 11 -15 8 -20 -3 -5 2 -6 11 -3
14 6 14 9 -4 28 l-21 22 30 29 c31 29 87 131 78 141 -3 2 -13 -15 -22 -39z"/>
<path d="M2065 808 l-80 -83 75 71 c41 40 81 70 88 67 6 -3 12 2 12 11 0 9 -3
16 -8 16 -4 0 -43 -37 -87 -82z"/>
<path d="M1026 865 c-3 -9 1 -18 10 -22 19 -7 28 2 21 22 -8 19 -23 19 -31 0z"/>
<path d="M4022 871 c2 -7 7 -12 11 -12 12 1 9 15 -3 20 -7 2 -11 -2 -8 -8z"/>
<path d="M440 854 c0 -17 22 -14 28 4 2 7 -3 12 -12 12 -9 0 -16 -7 -16 -16z"/>
<path d="M1877 864 c-9 -10 2 -24 19 -24 8 0 14 7 14 15 0 15 -21 21 -33 9z"/>
<path d="M2545 860 c3 -5 8 -10 11 -10 2 0 4 5 4 10 0 6 -5 10 -11 10 -5 0 -7
-4 -4 -10z"/>
<path d="M3838 835 c-10 -22 -9 -29 9 -46 26 -26 60 -18 69 17 9 37 -2 54 -36
54 -23 0 -33 -6 -42 -25z m58 -6 c10 -17 -13 -36 -27 -22 -12 12 -4 33 11 33
5 0 12 -5 16 -11z"/>
<path d="M4915 850 c3 -5 8 -10 11 -10 2 0 4 5 4 10 0 6 -5 10 -11 10 -5 0 -7
-4 -4 -10z"/>
<path d="M5078 853 c12 -2 32 -2 45 0 12 2 2 4 -23 4 -25 0 -35 -2 -22 -4z"/>
<path d="M5343 853 c32 -2 81 -2 110 0 29 2 3 3 -58 3 -60 0 -84 -1 -52 -3z"/>
<path d="M2748 835 c-4 -4 -4 -13 -1 -21 3 -9 -2 -14 -13 -15 -15 0 -15 -2 -4
-6 8 -3 18 -11 22 -17 5 -8 8 -7 8 1 0 10 37 13 148 12 l149 0 57 -58 c36 -36
54 -61 47 -65 -6 -4 -11 -12 -11 -18 0 -7 6 -6 15 2 12 10 18 10 33 -1 15 -13
16 -12 3 4 -12 15 -11 20 3 36 17 19 19 19 64 -10 26 -16 63 -31 82 -34 32 -5
31 -4 -10 11 -25 9 -60 28 -79 42 -30 22 -32 26 -16 32 14 5 15 9 6 14 -8 5
-18 1 -26 -10 -46 -65 -37 -65 -107 4 l-64 62 -146 0 c-141 0 -147 1 -150 21
-2 11 -6 18 -10 14z"/>
<path d="M3973 796 c-42 -35 -59 -87 -43 -127 34 -81 131 -106 189 -48 26 26
31 38 31 80 0 67 -36 109 -101 116 -38 4 -50 1 -76 -21z m118 -6 c27 -15 24
-33 -11 -53 l-30 -18 0 35 c0 20 -4 36 -9 36 -6 0 -7 -17 -4 -37 6 -36 5 -37
-13 -23 -51 38 -54 43 -43 57 13 15 82 17 110 3z m-86 -60 l29 -31 -29 -24
c-35 -29 -51 -31 -59 -9 -10 26 -7 34 14 34 11 0 20 5 20 10 0 6 -9 10 -20 10
-22 0 -23 1 -14 24 9 24 27 19 59 -14z"/>
<path d="M4850 811 c0 -6 4 -13 10 -16 6 -3 7 1 4 9 -7 18 -14 21 -14 7z"/>
<path d="M5016 803 c-6 -14 -5 -15 5 -6 7 7 10 15 7 18 -3 3 -9 -2 -12 -12z"/>
<path d="M5233 810 c-62 -25 -24 -123 41 -106 49 12 53 81 6 106 -21 11 -18
11 -47 0z m47 -45 c0 -9 -7 -18 -16 -22 -18 -7 -39 11 -30 26 11 17 46 13 46
-4z"/>
<path d="M5250 760 c0 -5 5 -10 10 -10 6 0 10 5 10 10 0 6 -4 10 -10 10 -5 0
-10 -4 -10 -10z"/>
<path d="M2230 746 c0 -53 -3 -65 -17 -69 -17 -4 -17 -5 0 -6 13 -1 17 -10 17
-41 l0 -40 173 -1 c94 -1 183 0 196 1 13 1 28 -4 32 -12 7 -10 9 -10 9 0 0 7
13 12 30 12 l30 0 0 110 0 110 -235 0 -235 0 0 -64z m88 17 c-10 -2 -28 -2
-40 0 -13 2 -5 4 17 4 22 1 32 -1 23 -4z m320 0 c-10 -2 -26 -2 -35 0 -10 3
-2 5 17 5 19 0 27 -2 18 -5z m-330 -20 c-10 -2 -26 -2 -35 0 -10 3 -2 5 17 5
19 0 27 -2 18 -5z m-5 -70 c-7 -2 -21 -2 -30 0 -10 3 -4 5 12 5 17 0 24 -2 18
-5z"/>
<path d="M3195 786 c10 -14 19 -26 22 -26 7 0 -17 39 -28 46 -6 3 -3 -5 6 -20z"/>
<path d="M4190 786 c0 -9 7 -16 16 -16 17 0 14 22 -4 28 -7 2 -12 -3 -12 -12z"/>
<path d="M4921 784 c0 -11 3 -14 6 -6 3 7 2 16 -1 19 -3 4 -6 -2 -5 -13z"/>
<path d="M548 773 c23 -2 61 -2 85 0 23 2 4 4 -43 4 -47 0 -66 -2 -42 -4z"/>
<path d="M788 773 c6 -2 18 -2 25 0 6 3 1 5 -13 5 -14 0 -19 -2 -12 -5z"/>
<path d="M5388 773 c29 -2 74 -2 100 0 26 2 2 3 -53 3 -55 0 -76 -1 -47 -3z"/>
<path d="M1600 655 l0 -115 90 0 90 0 0 115 0 115 -90 0 -90 0 0 -115z m130
51 c0 -19 -23 -33 -28 -18 -4 13 -32 17 -32 4 0 -4 5 -13 11 -19 14 -14 -5
-53 -27 -53 -20 0 -29 29 -16 51 7 10 9 25 6 34 -5 12 3 15 40 15 33 0 46 -4
46 -14z m10 -66 c0 -5 -7 -10 -15 -10 -8 0 -15 5 -15 10 0 6 7 10 15 10 8 0
15 -4 15 -10z m-20 -45 c0 -8 -7 -15 -15 -15 -8 0 -15 7 -15 15 0 8 7 15 15
15 8 0 15 -7 15 -15z m-45 -15 c8 -13 -15 -13 -35 0 -12 8 -11 10 7 10 12 0
25 -4 28 -10z"/>
<path d="M357 754 c-14 -15 -6 -34 14 -34 14 0 19 5 17 17 -3 18 -20 27 -31
17z"/>
<path d="M4530 740 c0 -13 5 -20 13 -17 6 2 12 10 12 17 0 7 -6 15 -12 18 -8
2 -13 -5 -13 -18z"/>
<path d="M4920 753 c0 -10 -36 -13 -144 -13 -80 0 -147 -3 -149 -7 -3 -5 118
-8 268 -8 151 0 270 4 266 8 -5 5 -57 8 -117 8 -76 -1 -110 3 -116 11 -6 10
-8 10 -8 1z"/>
<path d="M5607 746 c-8 -20 20 -43 35 -28 14 14 3 42 -16 42 -7 0 -16 -6 -19
-14z"/>
<path d="M1025 740 c-8 -14 3 -30 21 -30 8 0 14 9 14 20 0 21 -24 28 -35 10z"/>
<path d="M3784 718 l-19 -23 22 19 c17 14 32 17 58 13 19 -3 37 -1 40 4 4 5
-13 9 -38 9 -33 0 -49 -5 -63 -22z"/>
<path d="M5538 733 c12 -2 30 -2 40 0 9 3 -1 5 -23 4 -22 0 -30 -2 -17 -4z"/>
<path d="M1947 704 c-26 -35 -17 -38 11 -3 13 16 20 29 15 29 -4 0 -16 -12
-26 -26z"/>
<path d="M2908 683 c6 -2 18 -2 25 0 6 3 1 5 -13 5 -14 0 -19 -2 -12 -5z"/>
<path d="M4659 648 c-2 -24 -3 -62 -1 -85 l3 -43 235 0 234 0 0 85 0 85 -234
0 -234 0 -3 -42z"/>
<path d="M2110 670 c0 -5 5 -10 10 -10 6 0 10 5 10 10 0 6 -4 10 -10 10 -5 0
-10 -4 -10 -10z"/>
<path d="M4190 672 c0 -5 26 -7 58 -5 83 6 87 11 10 12 -38 1 -68 -3 -68 -7z"/>
<path d="M4378 673 c6 -2 18 -2 25 0 6 3 1 5 -13 5 -14 0 -19 -2 -12 -5z"/>
<path d="M1824 585 c0 -49 1 -71 3 -48 2 23 2 64 0 90 -2 26 -3 8 -3 -42z"/>
<path d="M3080 656 c0 -9 7 -16 16 -16 17 0 14 22 -4 28 -7 2 -12 -3 -12 -12z"/>
<path d="M3512 650 c0 -14 2 -19 5 -12 2 6 2 18 0 25 -3 6 -5 1 -5 -13z"/>
<path d="M3680 635 c-13 -14 -34 -25 -46 -25 -13 0 -29 -8 -36 -19 -12 -17
-28 -19 -178 -19 -200 -1 -195 0 -187 -8 4 -4 86 -6 182 -6 115 1 183 -3 194
-10 28 -17 51 -3 51 31 0 20 9 37 31 55 17 14 26 26 22 26 -5 0 -20 -11 -33
-25z"/>
<path d="M5248 653 c7 -3 16 -2 19 1 4 3 -2 6 -13 5 -11 0 -14 -3 -6 -6z"/>
<path d="M3398 633 c6 -2 18 -2 25 0 6 3 1 5 -13 5 -14 0 -19 -2 -12 -5z"/>
<path d="M595 619 c-10 -15 1 -23 20 -15 9 3 13 10 10 16 -8 13 -22 13 -30 -1z"/>
<path d="M655 619 c-10 -15 1 -23 20 -15 9 3 13 10 10 16 -8 13 -22 13 -30 -1z"/>
<path d="M763 622 c-8 -5 -9 -13 -3 -22 7 -12 12 -12 22 -2 14 14 -1 35 -19
24z"/>
<path d="M1030 616 c0 -21 21 -31 30 -15 5 7 6 17 4 21 -9 14 -34 9 -34 -6z"/>
<path d="M2040 620 c0 -5 5 -10 10 -10 6 0 10 5 10 10 0 6 -4 10 -10 10 -5 0
-10 -4 -10 -10z"/>
<path d="M2115 620 c-3 -5 -1 -10 4 -10 6 0 11 5 11 10 0 6 -2 10 -4 10 -3 0
-8 -4 -11 -10z"/>
<path d="M3810 619 c0 -5 5 -7 10 -4 6 3 10 8 10 11 0 2 -4 4 -10 4 -5 0 -10
-5 -10 -11z"/>
<path d="M2797 613 c-4 -3 -7 -42 -7 -85 l0 -78 85 0 85 0 0 85 0 85 -78 0
c-43 0 -82 -3 -85 -7z m63 -43 c0 -5 -4 -10 -10 -10 -5 0 -10 5 -10 10 0 6 5
10 10 10 6 0 10 -4 10 -10z m50 -6 c0 -2 -7 -4 -15 -4 -8 0 -15 4 -15 10 0 5
7 7 15 4 8 -4 15 -8 15 -10z m-10 -64 c0 -5 -2 -10 -4 -10 -3 0 -8 5 -11 10
-3 6 -1 10 4 10 6 0 11 -4 11 -10z"/>
<path d="M3750 616 c0 -2 8 -10 18 -17 15 -13 16 -12 3 4 -13 16 -21 21 -21
13z"/>
<path d="M4590 610 c0 -5 5 -10 10 -10 6 0 10 5 10 10 0 6 -4 10 -10 10 -5 0
-10 -4 -10 -10z"/>
<path d="M5172 609 c2 -6 8 -10 13 -10 5 0 11 4 13 10 2 6 -4 11 -13 11 -9 0
-15 -5 -13 -11z"/>
<path d="M3018 603 c18 -2 45 -2 60 0 15 2 0 4 -33 4 -33 0 -45 -2 -27 -4z"/>
<path d="M3138 603 c7 -3 16 -2 19 1 4 3 -2 6 -13 5 -11 0 -14 -3 -6 -6z"/>
<path d="M5390 591 c0 -5 5 -13 10 -16 6 -3 10 -2 10 4 0 5 -4 13 -10 16 -5 3
-10 2 -10 -4z"/>
<path d="M1877 583 c-13 -12 -7 -41 8 -47 18 -6 30 16 21 39 -6 16 -18 19 -29
8z"/>
<path d="M3693 550 c0 -25 2 -35 4 -22 2 12 2 32 0 45 -2 12 -4 2 -4 -23z"/>
<path d="M1966 556 c-15 -14 -26 -34 -26 -46 0 -27 34 -60 63 -60 80 0 93 107
15 125 -21 5 -33 1 -52 -19z m62 -44 c3 -16 -2 -22 -17 -22 -24 0 -33 13 -25
35 9 23 38 14 42 -13z"/>
<path d="M1996 522 c-3 -6 -1 -14 5 -17 15 -10 25 3 12 16 -7 7 -13 7 -17 1z"/>
<path d="M748 563 l-58 -4 0 -84 0 -85 90 0 91 0 -3 88 -3 87 -30 1 c-16 0
-56 -1 -87 -3z m52 -78 c10 -12 10 -18 0 -30 -7 -8 -18 -15 -25 -15 -19 0 -36
25 -29 44 8 20 38 21 54 1z"/>
<path d="M765 480 c-4 -6 -3 -16 3 -22 6 -6 12 -6 17 2 4 6 3 16 -3 22 -6 6
-12 6 -17 -2z"/>
<path d="M1352 556 c1 -10 8 -17 13 -17 15 1 12 24 -3 29 -9 3 -13 -2 -10 -12z"/>
<path d="M1410 530 c0 -22 3 -40 8 -40 4 0 7 18 7 40 0 22 -3 40 -7 40 -5 0
-8 -18 -8 -40z"/>
<path d="M3791 544 c-27 -34 -26 -50 4 -79 27 -28 37 -30 68 -14 43 23 50 66
17 99 -28 28 -64 25 -89 -6z m64 -35 c0 -15 -7 -25 -18 -27 -22 -4 -33 24 -17
43 18 21 35 13 35 -16z"/>
<path d="M4408 563 c6 -2 18 -2 25 0 6 3 1 5 -13 5 -14 0 -19 -2 -12 -5z"/>
<path d="M5367 559 c7 -7 15 -10 18 -7 3 3 -2 9 -12 12 -14 6 -15 5 -6 -5z"/>
<path d="M1240 549 c0 -5 5 -7 10 -4 6 3 10 8 10 11 0 2 -4 4 -10 4 -5 0 -10
-5 -10 -11z"/>
<path d="M4366 544 c-19 -18 -30 -58 -23 -76 3 -7 6 -1 6 13 1 15 10 38 22 53
23 29 19 35 -5 10z"/>
<path d="M4588 553 c7 -3 16 -2 19 1 4 3 -2 6 -13 5 -11 0 -14 -3 -6 -6z"/>
<path d="M5183 553 c9 -2 23 -2 30 0 6 3 -1 5 -18 5 -16 0 -22 -2 -12 -5z"/>
<path d="M2398 543 c7 -3 16 -2 19 1 4 3 -2 6 -13 5 -11 0 -14 -3 -6 -6z"/>
<path d="M2438 543 c6 -2 18 -2 25 0 6 3 1 5 -13 5 -14 0 -19 -2 -12 -5z"/>
<path d="M2498 543 c7 -3 16 -2 19 1 4 3 -2 6 -13 5 -11 0 -14 -3 -6 -6z"/>
<path d="M3020 535 c-20 -25 -8 -50 25 -50 21 0 31 5 33 18 4 21 -14 47 -33
47 -7 0 -18 -7 -25 -15z m44 -13 c9 -14 -10 -33 -27 -26 -18 6 -21 16 -10 27
9 9 31 9 37 -1z"/>
<path d="M4020 540 c0 -5 5 -10 10 -10 6 0 10 5 10 10 0 6 -4 10 -10 10 -5 0
-10 -4 -10 -10z"/>
<path d="M2624 529 c-3 -6 -2 -15 2 -19 12 -12 38 5 30 19 -9 14 -23 14 -32 0z"/>
<path d="M3331 522 c-7 -7 -10 -16 -6 -20 4 -4 10 -1 12 6 3 6 11 12 18 12 8
0 16 4 20 9 9 15 -30 9 -44 -7z"/>
<path d="M1300 510 c0 -5 5 -10 10 -10 6 0 10 5 10 10 0 6 -4 10 -10 10 -5 0
-10 -4 -10 -10z"/>
<path d="M2246 504 c-9 -8 -16 -31 -16 -49 0 -70 86 -84 110 -19 10 26 -1 61
-24 76 -19 13 -54 9 -70 -8z m59 -44 c0 -16 -6 -26 -18 -28 -19 -4 -32 20 -23
44 9 25 41 13 41 -16z"/>
<path d="M2275 470 c-4 -6 -3 -16 3 -22 6 -6 12 -6 17 2 4 6 3 16 -3 22 -6 6
-12 6 -17 -2z"/>
<path d="M3345 500 c-16 -11 -25 -20 -20 -21 6 0 20 -2 32 -5 12 -2 25 1 29 8
5 8 1 9 -12 5 -18 -7 -18 -6 -1 7 18 14 22 26 10 26 -5 0 -21 -9 -38 -20z"/>
<path d="M5220 505 c-7 -9 -10 -18 -6 -22 3 -3 6 -1 6 6 0 6 10 16 23 21 15 6
17 9 6 9 -9 1 -22 -6 -29 -14z"/>
<path d="M945 500 c-4 -7 -3 -16 3 -22 14 -14 45 -2 40 15 -6 16 -34 21 -43 7z"/>
<path d="M1892 485 c0 -16 2 -22 5 -12 2 9 2 23 0 30 -3 6 -5 -1 -5 -18z"/>
<path d="M3440 488 c-42 -39 -14 -102 44 -96 42 4 65 48 42 82 -20 32 -60 38
-86 14z m24 -43 c-4 -10 0 -15 11 -15 11 0 15 5 11 15 -3 8 -1 15 4 15 16 0
11 -30 -6 -37 -18 -7 -39 11 -30 26 10 16 16 13 10 -4z"/>
<path d="M3940 499 c-9 -5 -10 -9 -3 -9 6 0 13 -10 15 -22 3 -21 4 -20 9 5 7
31 0 40 -21 26z"/>
<path d="M4015 501 c-7 -12 12 -24 25 -16 11 7 4 25 -10 25 -5 0 -11 -4 -15
-9z"/>
<path d="M542 483 c4 -21 33 -25 33 -3 0 8 -8 16 -18 18 -14 3 -18 -1 -15 -15z
m28 -3 c0 -5 -4 -10 -10 -10 -5 0 -10 5 -10 10 0 6 5 10 10 10 6 0 10 -4 10
-10z"/>
<path d="M630 486 c0 -9 5 -16 10 -16 6 0 10 4 10 9 0 6 -4 13 -10 16 -5 3
-10 -1 -10 -9z"/>
<path d="M4412 483 c2 -10 10 -18 18 -18 8 0 16 8 18 18 2 12 -3 17 -18 17
-15 0 -20 -5 -18 -17z"/>
<path d="M4554 486 c-10 -26 4 -48 28 -44 17 2 23 10 23 28 0 18 -6 26 -23 28
-13 2 -25 -3 -28 -12z m46 -17 c0 -14 -5 -19 -17 -17 -23 4 -28 25 -6 31 10 3
19 5 21 6 1 0 2 -8 2 -20z"/>
<path d="M4995 489 c-10 -15 1 -23 20 -15 9 3 13 10 10 16 -8 13 -22 13 -30
-1z"/>
<path d="M472 479 c2 -6 8 -10 13 -10 5 0 11 4 13 10 2 6 -4 11 -13 11 -9 0
-15 -5 -13 -11z"/>
<path d="M4708 483 c50 -2 134 -2 185 0 50 1 9 3 -93 3 -102 0 -143 -2 -92 -3z"/>
<path d="M5472 479 c2 -6 8 -10 13 -10 5 0 11 4 13 10 2 6 -4 11 -13 11 -9 0
-15 -5 -13 -11z"/>
<path d="M2388 473 c6 -2 18 -2 25 0 6 3 1 5 -13 5 -14 0 -19 -2 -12 -5z"/>
<path d="M2498 473 c7 -3 16 -2 19 1 4 3 -2 6 -13 5 -11 0 -14 -3 -6 -6z"/>
<path d="M5276 463 c-6 -14 -5 -15 5 -6 7 7 10 15 7 18 -3 3 -9 -2 -12 -12z"/>
<path d="M2540 455 c-15 -18 -7 -43 16 -52 24 -9 46 24 33 48 -12 23 -32 24
-49 4z m40 -21 c0 -9 -7 -14 -17 -12 -25 5 -28 28 -4 28 12 0 21 -6 21 -16z"/>
<path d="M3244 456 c-10 -26 4 -48 28 -44 17 2 23 10 23 28 0 18 -6 26 -23 28
-13 2 -25 -3 -28 -12z m44 -19 c2 -12 -3 -17 -17 -17 -12 0 -21 6 -21 13 0 31
32 34 38 4z"/>
<path d="M3260 440 c0 -5 5 -10 10 -10 6 0 10 5 10 10 0 6 -4 10 -10 10 -5 0
-10 -4 -10 -10z"/>
<path d="M1358 453 c7 -3 16 -2 19 1 4 3 -2 6 -13 5 -11 0 -14 -3 -6 -6z"/>
<path d="M2427 436 c-8 -20 20 -43 35 -28 14 14 3 42 -16 42 -7 0 -16 -6 -19
-14z m30 -22 c-9 -9 -28 6 -21 18 4 6 10 6 17 -1 6 -6 8 -13 4 -17z"/>
<path d="M4350 442 c0 -13 58 -52 75 -52 6 1 -3 8 -20 16 -16 9 -36 23 -42 32
-8 10 -13 11 -13 4z"/>
<path d="M4733 443 c42 -2 112 -2 155 0 42 1 7 3 -78 3 -85 0 -120 -2 -77 -3z"/>
<path d="M2681 430 c-17 -10 -7 -40 14 -40 8 0 15 9 15 19 0 24 -12 32 -29 21z"/>
<path d="M3080 419 c0 -5 5 -7 10 -4 6 3 10 8 10 11 0 2 -4 4 -10 4 -5 0 -10
-5 -10 -11z"/>
<path d="M4460 415 c-17 -10 -20 -14 -9 -15 9 0 22 7 29 15 15 18 12 18 -20 0z"/>
<path d="M5525 420 c-3 -5 -1 -10 4 -10 6 0 11 5 11 10 0 6 -2 10 -4 10 -3 0
-8 -4 -11 -10z"/>
<path d="M1260 409 c-61 -3 5 -5 160 -5 255 0 272 3 50 8 -58 2 -152 1 -210
-3z"/>
<path d="M4735 410 c-3 -5 1 -10 10 -10 9 0 13 5 10 10 -3 6 -8 10 -10 10 -2
0 -7 -4 -10 -10z"/>
<path d="M1943 403 c9 -2 23 -2 30 0 6 3 -1 5 -18 5 -16 0 -22 -2 -12 -5z"/>
<path d="M2743 403 c9 -2 25 -2 35 0 9 3 1 5 -18 5 -19 0 -27 -2 -17 -5z"/>
<path d="M2823 403 c9 -2 25 -2 35 0 9 3 1 5 -18 5 -19 0 -27 -2 -17 -5z"/>
<path d="M2888 403 c7 -3 16 -2 19 1 4 3 -2 6 -13 5 -11 0 -14 -3 -6 -6z"/>
<path d="M2957 403 c18 -2 50 -2 70 0 21 2 7 4 -32 4 -38 0 -55 -2 -38 -4z"/>
<path d="M4913 403 c75 -2 199 -2 275 0 75 1 13 3 -138 3 -151 0 -213 -2 -137
-3z"/>
</g>
</svg>
